<svg width="982" height="1691" viewBox="0 0 982 1691" fill="none" xmlns="http://www.w3.org/2000/svg">
<path d="M303 1218C-238.235 1153.95 104.5 841.5 146 685.5C321 320.5 32.5002 432.5 74.5003 253C80.0003 204.667 140.7 112 339.5 128C538.3 144 607.333 49.3333 617 0M621.5 1388.5C646.333 1398.17 690.028 1430.85 668 1485C656 1514.5 626.748 1522.77 631.5 1569.5C637.5 1628.5 766 1681.5 809 1673.5C852 1665.5 920.622 1615.19 968 1673.5C981 1689.5 983.5 1691.17 981 1689.5" stroke="white" stroke-opacity="0.5" stroke-width="0.8" stroke-dasharray="8 8"/>
<circle cx="194" cy="432" r="31" fill="black"/>
<circle cx="194" cy="432" r="30.5" stroke="#E58620" stroke-opacity="0.5" stroke-dasharray="8 8"/>
<path d="M194.2 436.28C193.28 437.587 191.98 438.24 190.3 438.24C188.62 438.24 187.313 437.587 186.38 436.28C185.46 434.96 185 433.2 185 431C185 428.8 185.46 427.047 186.38 425.74C187.313 424.42 188.62 423.76 190.3 423.76C191.98 423.76 193.28 424.42 194.2 425.74C195.133 427.047 195.6 428.8 195.6 431C195.6 433.2 195.133 434.96 194.2 436.28ZM187.42 435.34C188.113 436.367 189.073 436.88 190.3 436.88C191.527 436.88 192.48 436.367 193.16 435.34C193.853 434.313 194.2 432.867 194.2 431C194.2 429.133 193.853 427.687 193.16 426.66C192.48 425.633 191.527 425.12 190.3 425.12C189.073 425.12 188.113 425.633 187.42 426.66C186.74 427.687 186.4 429.133 186.4 431C186.4 432.867 186.74 434.313 187.42 435.34ZM200.207 424H201.407V438H200.007V425.54L196.867 426.48L196.507 425.28L200.207 424Z" fill="#E58620"/>
<line x1="233" y1="431.5" x2="263" y2="431.5" stroke="#E58620" stroke-opacity="0.5"/>
<path d="M281.92 438L280.62 434.56H273.98L272.68 438H271.2L276.58 424H278.02L283.4 438H281.92ZM274.48 433.24H280.12L277.3 425.74L274.48 433.24ZM294.767 436.88C293.807 437.787 292.554 438.24 291.007 438.24C289.46 438.24 288.207 437.787 287.247 436.88C286.287 435.973 285.807 434.76 285.807 433.24V424H287.207V433.24C287.207 434.36 287.54 435.247 288.207 435.9C288.874 436.553 289.807 436.88 291.007 436.88C292.207 436.88 293.14 436.553 293.807 435.9C294.474 435.247 294.807 434.36 294.807 433.24V424H296.207V433.24C296.207 434.76 295.727 435.973 294.767 436.88ZM304.81 438.24C303.53 438.24 302.43 437.94 301.51 437.34C300.603 436.727 299.97 435.887 299.61 434.82L300.81 434.12C301.063 434.987 301.53 435.667 302.21 436.16C302.89 436.64 303.763 436.88 304.83 436.88C305.87 436.88 306.677 436.653 307.25 436.2C307.837 435.733 308.13 435.12 308.13 434.36C308.13 433.627 307.863 433.073 307.33 432.7C306.797 432.327 305.917 431.94 304.69 431.54C303.237 431.06 302.277 430.673 301.81 430.38C300.743 429.74 300.21 428.813 300.21 427.6C300.21 426.413 300.623 425.48 301.45 424.8C302.277 424.107 303.297 423.76 304.51 423.76C305.603 423.76 306.55 424.047 307.35 424.62C308.15 425.18 308.743 425.9 309.13 426.78L307.95 427.44C307.31 425.893 306.163 425.12 304.51 425.12C303.643 425.12 302.943 425.333 302.41 425.76C301.877 426.187 301.61 426.78 301.61 427.54C301.61 428.233 301.85 428.753 302.33 429.1C302.81 429.447 303.603 429.8 304.71 430.16C305.217 430.333 305.577 430.46 305.79 430.54C306.017 430.607 306.337 430.727 306.75 430.9C307.177 431.06 307.49 431.207 307.69 431.34C307.89 431.46 308.13 431.633 308.41 431.86C308.703 432.073 308.91 432.293 309.03 432.52C309.163 432.733 309.277 433 309.37 433.32C309.477 433.627 309.53 433.96 309.53 434.32C309.53 435.507 309.097 436.46 308.23 437.18C307.363 437.887 306.223 438.24 304.81 438.24ZM321.426 424V425.32H317.126V438H315.726V425.32H311.426V424H321.426ZM333.227 438L329.947 432.4H326.027V438H324.627V424H330.227C331.387 424 332.373 424.413 333.187 425.24C334.013 426.053 334.427 427.04 334.427 428.2C334.427 429.147 334.14 429.993 333.567 430.74C333.007 431.473 332.287 431.967 331.407 432.22L334.827 438H333.227ZM326.027 425.32V431.08H330.227C331 431.08 331.66 430.8 332.207 430.24C332.753 429.667 333.027 428.987 333.027 428.2C333.027 427.4 332.753 426.72 332.207 426.16C331.66 425.6 331 425.32 330.227 425.32H326.027ZM347.354 438L346.054 434.56H339.414L338.114 438H336.634L342.014 424H343.454L348.834 438H347.354ZM339.914 433.24H345.554L342.734 425.74L339.914 433.24ZM353.231 436.68H359.631V438H351.831V424H353.231V436.68ZM372.547 438L371.247 434.56H364.607L363.307 438H361.827L367.207 424H368.647L374.027 438H372.547ZM365.107 433.24H370.747L367.927 425.74L365.107 433.24ZM381.034 438.24C379.754 438.24 378.654 437.94 377.734 437.34C376.827 436.727 376.194 435.887 375.834 434.82L377.034 434.12C377.287 434.987 377.754 435.667 378.434 436.16C379.114 436.64 379.987 436.88 381.054 436.88C382.094 436.88 382.9 436.653 383.474 436.2C384.06 435.733 384.354 435.12 384.354 434.36C384.354 433.627 384.087 433.073 383.554 432.7C383.02 432.327 382.14 431.94 380.914 431.54C379.46 431.06 378.5 430.673 378.034 430.38C376.967 429.74 376.434 428.813 376.434 427.6C376.434 426.413 376.847 425.48 377.674 424.8C378.5 424.107 379.52 423.76 380.734 423.76C381.827 423.76 382.774 424.047 383.574 424.62C384.374 425.18 384.967 425.9 385.354 426.78L384.174 427.44C383.534 425.893 382.387 425.12 380.734 425.12C379.867 425.12 379.167 425.333 378.634 425.76C378.1 426.187 377.834 426.78 377.834 427.54C377.834 428.233 378.074 428.753 378.554 429.1C379.034 429.447 379.827 429.8 380.934 430.16C381.44 430.333 381.8 430.46 382.014 430.54C382.24 430.607 382.56 430.727 382.974 430.9C383.4 431.06 383.714 431.207 383.914 431.34C384.114 431.46 384.354 431.633 384.634 431.86C384.927 432.073 385.134 432.293 385.254 432.52C385.387 432.733 385.5 433 385.594 433.32C385.7 433.627 385.754 433.96 385.754 434.32C385.754 435.507 385.32 436.46 384.454 437.18C383.587 437.887 382.447 438.24 381.034 438.24ZM389.259 424H390.659V438H389.259V424ZM404.389 438L403.089 434.56H396.449L395.149 438H393.669L399.049 424H400.489L405.869 438H404.389ZM396.949 433.24H402.589L399.769 425.74L396.949 433.24Z" fill="white" fill-opacity="0.5"/>
</svg>
