<svg width="136" height="98" viewBox="0 0 136 98" fill="none" xmlns="http://www.w3.org/2000/svg">
<circle cx="68" cy="31" r="31" fill="black"/>
<circle cx="68" cy="31" r="30.5" stroke="#E58620" stroke-opacity="0.5" stroke-dasharray="8 8"/>
<path d="M68.2 35.28C67.28 36.5867 65.98 37.24 64.3 37.24C62.62 37.24 61.3133 36.5867 60.38 35.28C59.46 33.96 59 32.2 59 30C59 27.8 59.46 26.0467 60.38 24.74C61.3133 23.42 62.62 22.76 64.3 22.76C65.98 22.76 67.28 23.42 68.2 24.74C69.1333 26.0467 69.6 27.8 69.6 30C69.6 32.2 69.1333 33.96 68.2 35.28ZM61.42 34.34C62.1133 35.3667 63.0733 35.88 64.3 35.88C65.5267 35.88 66.48 35.3667 67.16 34.34C67.8533 33.3133 68.2 31.8667 68.2 30C68.2 28.1333 67.8533 26.6867 67.16 25.66C66.48 24.6333 65.5267 24.12 64.3 24.12C63.0733 24.12 62.1133 24.6333 61.42 25.66C60.74 26.6867 60.4 28.1333 60.4 30C60.4 31.8667 60.74 33.3133 61.42 34.34ZM74.207 23H75.407V37H74.007V24.54L70.867 25.48L70.507 24.28L74.207 23Z" fill="#E58620"/>
<path d="M10.92 92L9.62 88.56H2.98L1.68 92H0.2L5.58 78H7.02L12.4 92H10.92ZM3.48 87.24H9.12L6.3 79.74L3.48 87.24ZM23.767 90.88C22.807 91.7867 21.5537 92.24 20.007 92.24C18.4604 92.24 17.207 91.7867 16.247 90.88C15.287 89.9733 14.807 88.76 14.807 87.24V78H16.207V87.24C16.207 88.36 16.5404 89.2467 17.207 89.9C17.8737 90.5533 18.807 90.88 20.007 90.88C21.207 90.88 22.1404 90.5533 22.807 89.9C23.4737 89.2467 23.807 88.36 23.807 87.24V78H25.207V87.24C25.207 88.76 24.727 89.9733 23.767 90.88ZM33.8102 92.24C32.5302 92.24 31.4302 91.94 30.5102 91.34C29.6035 90.7267 28.9702 89.8867 28.6102 88.82L29.8102 88.12C30.0635 88.9867 30.5302 89.6667 31.2102 90.16C31.8902 90.64 32.7635 90.88 33.8302 90.88C34.8702 90.88 35.6768 90.6533 36.2502 90.2C36.8368 89.7333 37.1302 89.12 37.1302 88.36C37.1302 87.6267 36.8635 87.0733 36.3302 86.7C35.7968 86.3267 34.9168 85.94 33.6902 85.54C32.2368 85.06 31.2768 84.6733 30.8102 84.38C29.7435 83.74 29.2102 82.8133 29.2102 81.6C29.2102 80.4133 29.6235 79.48 30.4502 78.8C31.2768 78.1067 32.2968 77.76 33.5102 77.76C34.6035 77.76 35.5502 78.0467 36.3502 78.62C37.1502 79.18 37.7435 79.9 38.1302 80.78L36.9502 81.44C36.3102 79.8933 35.1635 79.12 33.5102 79.12C32.6435 79.12 31.9435 79.3333 31.4102 79.76C30.8768 80.1867 30.6102 80.78 30.6102 81.54C30.6102 82.2333 30.8502 82.7533 31.3302 83.1C31.8102 83.4467 32.6035 83.8 33.7102 84.16C34.2168 84.3333 34.5768 84.46 34.7902 84.54C35.0168 84.6067 35.3368 84.7267 35.7502 84.9C36.1768 85.06 36.4902 85.2067 36.6902 85.34C36.8902 85.46 37.1302 85.6333 37.4102 85.86C37.7035 86.0733 37.9102 86.2933 38.0302 86.52C38.1635 86.7333 38.2768 87 38.3702 87.32C38.4768 87.6267 38.5302 87.96 38.5302 88.32C38.5302 89.5067 38.0968 90.46 37.2302 91.18C36.3635 91.8867 35.2235 92.24 33.8102 92.24ZM50.4258 78V79.32H46.1258V92H44.7258V79.32H40.4258V78H50.4258ZM62.2266 92L58.9466 86.4H55.0266V92H53.6266V78H59.2266C60.3866 78 61.3732 78.4133 62.1866 79.24C63.0132 80.0533 63.4266 81.04 63.4266 82.2C63.4266 83.1467 63.1399 83.9933 62.5666 84.74C62.0066 85.4733 61.2866 85.9667 60.4066 86.22L63.8266 92H62.2266ZM55.0266 79.32V85.08H59.2266C59.9999 85.08 60.6599 84.8 61.2066 84.24C61.7532 83.6667 62.0266 82.9867 62.0266 82.2C62.0266 81.4 61.7532 80.72 61.2066 80.16C60.6599 79.6 59.9999 79.32 59.2266 79.32H55.0266ZM76.3536 92L75.0536 88.56H68.4136L67.1136 92H65.6336L71.0136 78H72.4536L77.8336 92H76.3536ZM68.9136 87.24H74.5536L71.7336 79.74L68.9136 87.24ZM82.2312 90.68H88.6312V92H80.8312V78H82.2312V90.68ZM101.547 92L100.247 88.56H93.6066L92.3066 92H90.8266L96.2066 78H97.6466L103.027 92H101.547ZM94.1066 87.24H99.7466L96.9266 79.74L94.1066 87.24ZM110.034 92.24C108.754 92.24 107.654 91.94 106.734 91.34C105.827 90.7267 105.194 89.8867 104.834 88.82L106.034 88.12C106.287 88.9867 106.754 89.6667 107.434 90.16C108.114 90.64 108.987 90.88 110.054 90.88C111.094 90.88 111.9 90.6533 112.474 90.2C113.06 89.7333 113.354 89.12 113.354 88.36C113.354 87.6267 113.087 87.0733 112.554 86.7C112.02 86.3267 111.14 85.94 109.914 85.54C108.46 85.06 107.5 84.6733 107.034 84.38C105.967 83.74 105.434 82.8133 105.434 81.6C105.434 80.4133 105.847 79.48 106.674 78.8C107.5 78.1067 108.52 77.76 109.734 77.76C110.827 77.76 111.774 78.0467 112.574 78.62C113.374 79.18 113.967 79.9 114.354 80.78L113.174 81.44C112.534 79.8933 111.387 79.12 109.734 79.12C108.867 79.12 108.167 79.3333 107.634 79.76C107.1 80.1867 106.834 80.78 106.834 81.54C106.834 82.2333 107.074 82.7533 107.554 83.1C108.034 83.4467 108.827 83.8 109.934 84.16C110.44 84.3333 110.8 84.46 111.014 84.54C111.24 84.6067 111.56 84.7267 111.974 84.9C112.4 85.06 112.714 85.2067 112.914 85.34C113.114 85.46 113.354 85.6333 113.634 85.86C113.927 86.0733 114.134 86.2933 114.254 86.52C114.387 86.7333 114.5 87 114.594 87.32C114.7 87.6267 114.754 87.96 114.754 88.32C114.754 89.5067 114.32 90.46 113.454 91.18C112.587 91.8867 111.447 92.24 110.034 92.24ZM118.259 78H119.659V92H118.259V78ZM133.389 92L132.089 88.56H125.449L124.149 92H122.669L128.049 78H129.489L134.869 92H133.389ZM125.949 87.24H131.589L128.769 79.74L125.949 87.24Z" fill="white" fill-opacity="0.5"/>
</svg>
