<svg width="244" height="62" viewBox="0 0 244 62" fill="none" xmlns="http://www.w3.org/2000/svg">
<circle cx="31" cy="31" r="31" fill="black"/>
<circle cx="31" cy="31" r="30.5" stroke="#E58620" stroke-opacity="0.5" stroke-dasharray="8 8"/>
<path d="M31.2 35.28C30.28 36.5867 28.98 37.24 27.3 37.24C25.62 37.24 24.3133 36.5867 23.38 35.28C22.46 33.96 22 32.2 22 30C22 27.8 22.46 26.0467 23.38 24.74C24.3133 23.42 25.62 22.76 27.3 22.76C28.98 22.76 30.28 23.42 31.2 24.74C32.1333 26.0467 32.6 27.8 32.6 30C32.6 32.2 32.1333 33.96 31.2 35.28ZM24.42 34.34C25.1133 35.3667 26.0733 35.88 27.3 35.88C28.5267 35.88 29.48 35.3667 30.16 34.34C30.8533 33.3133 31.2 31.8667 31.2 30C31.2 28.1333 30.8533 26.6867 30.16 25.66C29.48 24.6333 28.5267 24.12 27.3 24.12C26.0733 24.12 25.1133 24.6333 24.42 25.66C23.74 26.6867 23.4 28.1333 23.4 30C23.4 31.8667 23.74 33.3133 24.42 34.34ZM37.207 23H38.407V37H37.007V24.54L33.867 25.48L33.507 24.28L37.207 23Z" fill="#E58620"/>
<line x1="70" y1="30.5" x2="100" y2="30.5" stroke="#E58620" stroke-opacity="0.5"/>
<path d="M118.92 37L117.62 33.56H110.98L109.68 37H108.2L113.58 23H115.02L120.4 37H118.92ZM111.48 32.24H117.12L114.3 24.74L111.48 32.24ZM131.767 35.88C130.807 36.7867 129.554 37.24 128.007 37.24C126.46 37.24 125.207 36.7867 124.247 35.88C123.287 34.9733 122.807 33.76 122.807 32.24V23H124.207V32.24C124.207 33.36 124.54 34.2467 125.207 34.9C125.874 35.5533 126.807 35.88 128.007 35.88C129.207 35.88 130.14 35.5533 130.807 34.9C131.474 34.2467 131.807 33.36 131.807 32.24V23H133.207V32.24C133.207 33.76 132.727 34.9733 131.767 35.88ZM141.81 37.24C140.53 37.24 139.43 36.94 138.51 36.34C137.603 35.7267 136.97 34.8867 136.61 33.82L137.81 33.12C138.063 33.9867 138.53 34.6667 139.21 35.16C139.89 35.64 140.763 35.88 141.83 35.88C142.87 35.88 143.677 35.6533 144.25 35.2C144.837 34.7333 145.13 34.12 145.13 33.36C145.13 32.6267 144.863 32.0733 144.33 31.7C143.797 31.3267 142.917 30.94 141.69 30.54C140.237 30.06 139.277 29.6733 138.81 29.38C137.743 28.74 137.21 27.8133 137.21 26.6C137.21 25.4133 137.623 24.48 138.45 23.8C139.277 23.1067 140.297 22.76 141.51 22.76C142.603 22.76 143.55 23.0467 144.35 23.62C145.15 24.18 145.743 24.9 146.13 25.78L144.95 26.44C144.31 24.8933 143.163 24.12 141.51 24.12C140.643 24.12 139.943 24.3333 139.41 24.76C138.877 25.1867 138.61 25.78 138.61 26.54C138.61 27.2333 138.85 27.7533 139.33 28.1C139.81 28.4467 140.603 28.8 141.71 29.16C142.217 29.3333 142.577 29.46 142.79 29.54C143.017 29.6067 143.337 29.7267 143.75 29.9C144.177 30.06 144.49 30.2067 144.69 30.34C144.89 30.46 145.13 30.6333 145.41 30.86C145.703 31.0733 145.91 31.2933 146.03 31.52C146.163 31.7333 146.277 32 146.37 32.32C146.477 32.6267 146.53 32.96 146.53 33.32C146.53 34.5067 146.097 35.46 145.23 36.18C144.363 36.8867 143.223 37.24 141.81 37.24ZM158.426 23V24.32H154.126V37H152.726V24.32H148.426V23H158.426ZM170.227 37L166.947 31.4H163.027V37H161.627V23H167.227C168.387 23 169.373 23.4133 170.187 24.24C171.013 25.0533 171.427 26.04 171.427 27.2C171.427 28.1467 171.14 28.9933 170.567 29.74C170.007 30.4733 169.287 30.9667 168.407 31.22L171.827 37H170.227ZM163.027 24.32V30.08H167.227C168 30.08 168.66 29.8 169.207 29.24C169.753 28.6667 170.027 27.9867 170.027 27.2C170.027 26.4 169.753 25.72 169.207 25.16C168.66 24.6 168 24.32 167.227 24.32H163.027ZM184.354 37L183.054 33.56H176.414L175.114 37H173.634L179.014 23H180.454L185.834 37H184.354ZM176.914 32.24H182.554L179.734 24.74L176.914 32.24ZM190.231 35.68H196.631V37H188.831V23H190.231V35.68ZM209.547 37L208.247 33.56H201.607L200.307 37H198.827L204.207 23H205.647L211.027 37H209.547ZM202.107 32.24H207.747L204.927 24.74L202.107 32.24ZM218.034 37.24C216.754 37.24 215.654 36.94 214.734 36.34C213.827 35.7267 213.194 34.8867 212.834 33.82L214.034 33.12C214.287 33.9867 214.754 34.6667 215.434 35.16C216.114 35.64 216.987 35.88 218.054 35.88C219.094 35.88 219.9 35.6533 220.474 35.2C221.06 34.7333 221.354 34.12 221.354 33.36C221.354 32.6267 221.087 32.0733 220.554 31.7C220.02 31.3267 219.14 30.94 217.914 30.54C216.46 30.06 215.5 29.6733 215.034 29.38C213.967 28.74 213.434 27.8133 213.434 26.6C213.434 25.4133 213.847 24.48 214.674 23.8C215.5 23.1067 216.52 22.76 217.734 22.76C218.827 22.76 219.774 23.0467 220.574 23.62C221.374 24.18 221.967 24.9 222.354 25.78L221.174 26.44C220.534 24.8933 219.387 24.12 217.734 24.12C216.867 24.12 216.167 24.3333 215.634 24.76C215.1 25.1867 214.834 25.78 214.834 26.54C214.834 27.2333 215.074 27.7533 215.554 28.1C216.034 28.4467 216.827 28.8 217.934 29.16C218.44 29.3333 218.8 29.46 219.014 29.54C219.24 29.6067 219.56 29.7267 219.974 29.9C220.4 30.06 220.714 30.2067 220.914 30.34C221.114 30.46 221.354 30.6333 221.634 30.86C221.927 31.0733 222.134 31.2933 222.254 31.52C222.387 31.7333 222.5 32 222.594 32.32C222.7 32.6267 222.754 32.96 222.754 33.32C222.754 34.5067 222.32 35.46 221.454 36.18C220.587 36.8867 219.447 37.24 218.034 37.24ZM226.259 23H227.659V37H226.259V23ZM241.389 37L240.089 33.56H233.449L232.149 37H230.669L236.049 23H237.489L242.869 37H241.389ZM233.949 32.24H239.589L236.769 24.74L233.949 32.24Z" fill="white" fill-opacity="0.5"/>
</svg>
