<svg width="62" height="62" viewBox="0 0 62 62" fill="none" xmlns="http://www.w3.org/2000/svg">
<circle cx="31" cy="31" r="30.6" fill="white" stroke="#E58620" stroke-width="0.8" stroke-dasharray="8 8"/>
<path d="M29.2449 35.28C28.3249 36.5867 27.0249 37.24 25.3449 37.24C23.6649 37.24 22.3583 36.5867 21.4249 35.28C20.5049 33.96 20.0449 32.2 20.0449 30C20.0449 27.8 20.5049 26.0467 21.4249 24.74C22.3583 23.42 23.6649 22.76 25.3449 22.76C27.0249 22.76 28.3249 23.42 29.2449 24.74C30.1783 26.0467 30.6449 27.8 30.6449 30C30.6449 32.2 30.1783 33.96 29.2449 35.28ZM22.4649 34.34C23.1583 35.3667 24.1183 35.88 25.3449 35.88C26.5716 35.88 27.5249 35.3667 28.2049 34.34C28.8983 33.3133 29.2449 31.8667 29.2449 30C29.2449 28.1333 28.8983 26.6867 28.2049 25.66C27.5249 24.6333 26.5716 24.12 25.3449 24.12C24.1183 24.12 23.1583 24.6333 22.4649 25.66C21.7849 26.6867 21.4449 28.1333 21.4449 30C21.4449 31.8667 21.7849 33.3133 22.4649 34.34ZM32.2473 37V35.74L37.2873 30.66C38.7273 29.22 39.4473 27.9867 39.4473 26.96C39.4473 26.0667 39.1673 25.3733 38.6073 24.88C38.0606 24.3733 37.4006 24.12 36.6273 24.12C35.1873 24.12 34.1406 24.78 33.4873 26.1L32.3073 25.4C32.7473 24.5333 33.3473 23.88 34.1073 23.44C34.8673 22.9867 35.7073 22.76 36.6273 22.76C37.7473 22.76 38.7273 23.14 39.5673 23.9C40.4206 24.6467 40.8473 25.6667 40.8473 26.96C40.8473 27.7733 40.6206 28.5533 40.1673 29.3C39.7139 30.0467 39.0739 30.8333 38.2473 31.66L34.2473 35.64H41.1473V37H32.2473Z" fill="#E58620"/>
</svg>
