<svg width="203" height="62" viewBox="0 0 203 62" fill="none" xmlns="http://www.w3.org/2000/svg">
<circle cx="171.28" cy="30.9995" r="30.6" fill="white" stroke="#E58620" stroke-width="0.8" stroke-dasharray="8 8"/>
<path d="M169.574 35.2795C168.654 36.5862 167.354 37.2395 165.674 37.2395C163.994 37.2395 162.687 36.5862 161.754 35.2795C160.834 33.9595 160.374 32.1995 160.374 29.9995C160.374 27.7995 160.834 26.0462 161.754 24.7395C162.687 23.4195 163.994 22.7595 165.674 22.7595C167.354 22.7595 168.654 23.4195 169.574 24.7395C170.507 26.0462 170.974 27.7995 170.974 29.9995C170.974 32.1995 170.507 33.9595 169.574 35.2795ZM162.794 34.3395C163.487 35.3662 164.447 35.8795 165.674 35.8795C166.901 35.8795 167.854 35.3662 168.534 34.3395C169.227 33.3128 169.574 31.8662 169.574 29.9995C169.574 28.1328 169.227 26.6862 168.534 25.6595C167.854 24.6328 166.901 24.1195 165.674 24.1195C164.447 24.1195 163.487 24.6328 162.794 25.6595C162.114 26.6862 161.774 28.1328 161.774 29.9995C161.774 31.8662 162.114 33.3128 162.794 34.3395ZM177.521 28.8195C178.641 28.9662 179.561 29.3995 180.281 30.1195C181.015 30.8262 181.381 31.7662 181.381 32.9395C181.381 34.2728 180.921 35.3262 180.001 36.0995C179.095 36.8595 177.988 37.2395 176.681 37.2395C175.641 37.2395 174.715 36.9995 173.901 36.5195C173.088 36.0395 172.515 35.3528 172.181 34.4595L173.341 33.7795C173.568 34.4728 173.975 34.9995 174.561 35.3595C175.148 35.7062 175.855 35.8795 176.681 35.8795C177.641 35.8795 178.428 35.6262 179.041 35.1195C179.668 34.5995 179.981 33.8728 179.981 32.9395C179.981 32.0062 179.668 31.2862 179.041 30.7795C178.428 30.2595 177.641 29.9995 176.681 29.9995V29.9795L176.661 29.9995H176.281L175.681 29.0795L179.161 24.3195H172.581V22.9995H180.781V24.3195L177.521 28.8195Z" fill="#E58620"/>
<path d="M11.6671 36.9995L10.3671 33.5595H3.72713L2.42713 36.9995H0.947131L6.32713 22.9995H7.76713L13.1471 36.9995H11.6671ZM4.22713 32.2395H9.86713L7.04713 24.7395L4.22713 32.2395ZM23.3142 35.8795C22.3542 36.7862 21.1008 37.2395 19.5542 37.2395C18.0075 37.2395 16.7542 36.7862 15.7942 35.8795C14.8342 34.9728 14.3542 33.7595 14.3542 32.2395V22.9995H15.7542V32.2395C15.7542 33.3595 16.0875 34.2462 16.7542 34.8995C17.4208 35.5528 18.3542 35.8795 19.5542 35.8795C20.7542 35.8795 21.6875 35.5528 22.3542 34.8995C23.0208 34.2462 23.3542 33.3595 23.3542 32.2395V22.9995H24.7542V32.2395C24.7542 33.7595 24.2742 34.9728 23.3142 35.8795ZM32.1573 37.2395C30.8773 37.2395 29.7773 36.9395 28.8573 36.3395C27.9506 35.7262 27.3173 34.8862 26.9573 33.8195L28.1573 33.1195C28.4106 33.9862 28.8773 34.6662 29.5573 35.1595C30.2373 35.6395 31.1106 35.8795 32.1773 35.8795C33.2173 35.8795 34.024 35.6528 34.5973 35.1995C35.184 34.7328 35.4773 34.1195 35.4773 33.3595C35.4773 32.6262 35.2106 32.0728 34.6773 31.6995C34.144 31.3262 33.264 30.9395 32.0373 30.5395C30.584 30.0595 29.624 29.6728 29.1573 29.3795C28.0906 28.7395 27.5573 27.8128 27.5573 26.5995C27.5573 25.4128 27.9706 24.4795 28.7973 23.7995C29.624 23.1062 30.644 22.7595 31.8573 22.7595C32.9506 22.7595 33.8973 23.0462 34.6973 23.6195C35.4973 24.1795 36.0906 24.8995 36.4773 25.7795L35.2973 26.4395C34.6573 24.8928 33.5106 24.1195 31.8573 24.1195C30.9906 24.1195 30.2906 24.3328 29.7573 24.7595C29.224 25.1862 28.9573 25.7795 28.9573 26.5395C28.9573 27.2328 29.1973 27.7528 29.6773 28.0995C30.1573 28.4462 30.9506 28.7995 32.0573 29.1595C32.564 29.3328 32.924 29.4595 33.1373 29.5395C33.364 29.6062 33.684 29.7262 34.0973 29.8995C34.524 30.0595 34.8373 30.2062 35.0373 30.3395C35.2373 30.4595 35.4773 30.6328 35.7573 30.8595C36.0506 31.0728 36.2573 31.2928 36.3773 31.5195C36.5106 31.7328 36.624 31.9995 36.7173 32.3195C36.824 32.6262 36.8773 32.9595 36.8773 33.3195C36.8773 34.5062 36.444 35.4595 35.5773 36.1795C34.7106 36.8862 33.5706 37.2395 32.1573 37.2395ZM47.5729 22.9995V24.3195H43.2729V36.9995H41.8729V24.3195H37.5729V22.9995H47.5729ZM58.1737 36.9995L54.8937 31.3995H50.9737V36.9995H49.5737V22.9995H55.1737C56.3337 22.9995 57.3204 23.4128 58.1337 24.2395C58.9604 25.0528 59.3737 26.0395 59.3737 27.1995C59.3737 28.1462 59.087 28.9928 58.5137 29.7395C57.9537 30.4728 57.2337 30.9662 56.3537 31.2195L59.7737 36.9995H58.1737ZM50.9737 24.3195V30.0795H55.1737C55.947 30.0795 56.607 29.7995 57.1537 29.2395C57.7004 28.6662 57.9737 27.9862 57.9737 27.1995C57.9737 26.3995 57.7004 25.7195 57.1537 25.1595C56.607 24.5995 55.947 24.3195 55.1737 24.3195H50.9737ZM71.1007 36.9995L69.8007 33.5595H63.1607L61.8607 36.9995H60.3807L65.7607 22.9995H67.2007L72.5807 36.9995H71.1007ZM63.6607 32.2395H69.3007L66.4807 24.7395L63.6607 32.2395ZM75.7784 35.6795H82.1784V36.9995H74.3784V22.9995H75.7784V35.6795ZM93.8937 36.9995L92.5937 33.5595H85.9537L84.6537 36.9995H83.1737L88.5537 22.9995H89.9937L95.3737 36.9995H93.8937ZM86.4537 32.2395H92.0937L89.2737 24.7395L86.4537 32.2395ZM101.181 37.2395C99.9007 37.2395 98.8007 36.9395 97.8807 36.3395C96.9741 35.7262 96.3407 34.8862 95.9807 33.8195L97.1807 33.1195C97.4341 33.9862 97.9007 34.6662 98.5807 35.1595C99.2607 35.6395 100.134 35.8795 101.201 35.8795C102.241 35.8795 103.047 35.6528 103.621 35.1995C104.207 34.7328 104.501 34.1195 104.501 33.3595C104.501 32.6262 104.234 32.0728 103.701 31.6995C103.167 31.3262 102.287 30.9395 101.061 30.5395C99.6074 30.0595 98.6474 29.6728 98.1807 29.3795C97.1141 28.7395 96.5807 27.8128 96.5807 26.5995C96.5807 25.4128 96.9941 24.4795 97.8207 23.7995C98.6474 23.1062 99.6674 22.7595 100.881 22.7595C101.974 22.7595 102.921 23.0462 103.721 23.6195C104.521 24.1795 105.114 24.8995 105.501 25.7795L104.321 26.4395C103.681 24.8928 102.534 24.1195 100.881 24.1195C100.014 24.1195 99.3141 24.3328 98.7807 24.7595C98.2474 25.1862 97.9807 25.7795 97.9807 26.5395C97.9807 27.2328 98.2207 27.7528 98.7007 28.0995C99.1807 28.4462 99.9741 28.7995 101.081 29.1595C101.587 29.3328 101.947 29.4595 102.161 29.5395C102.387 29.6062 102.707 29.7262 103.121 29.8995C103.547 30.0595 103.861 30.2062 104.061 30.3395C104.261 30.4595 104.501 30.6328 104.781 30.8595C105.074 31.0728 105.281 31.2928 105.401 31.5195C105.534 31.7328 105.647 31.9995 105.741 32.3195C105.847 32.6262 105.901 32.9595 105.901 33.3195C105.901 34.5062 105.467 35.4595 104.601 36.1795C103.734 36.8862 102.594 37.2395 101.181 37.2395ZM108.207 22.9995H109.607V36.9995H108.207V22.9995ZM122.136 36.9995L120.836 33.5595H114.196L112.896 36.9995H111.416L116.796 22.9995H118.236L123.616 36.9995H122.136ZM114.696 32.2395H120.336L117.516 24.7395L114.696 32.2395Z" fill="black" fill-opacity="0.5"/>
</svg>
