<svg width="62" height="62" viewBox="0 0 62 62" fill="none" xmlns="http://www.w3.org/2000/svg">
<circle cx="31" cy="31" r="31" fill="black"/>
<circle cx="31" cy="31" r="30.5" stroke="#E58620" stroke-opacity="0.5" stroke-dasharray="8 8"/>
<path d="M28.2 35.28C27.28 36.5867 25.98 37.24 24.3 37.24C22.62 37.24 21.3133 36.5867 20.38 35.28C19.46 33.96 19 32.2 19 30C19 27.8 19.46 26.0467 20.38 24.74C21.3133 23.42 22.62 22.76 24.3 22.76C25.98 22.76 27.28 23.42 28.2 24.74C29.1333 26.0467 29.6 27.8 29.6 30C29.6 32.2 29.1333 33.96 28.2 35.28ZM21.42 34.34C22.1133 35.3667 23.0733 35.88 24.3 35.88C25.5267 35.88 26.48 35.3667 27.16 34.34C27.8533 33.3133 28.2 31.8667 28.2 30C28.2 28.1333 27.8533 26.6867 27.16 25.66C26.48 24.6333 25.5267 24.12 24.3 24.12C23.0733 24.12 22.1133 24.6333 21.42 25.66C20.74 26.6867 20.4 28.1333 20.4 30C20.4 31.8667 20.74 33.3133 21.42 34.34ZM41.6977 32.88V34.2H39.8977V37H38.4977V34.2H31.0977V32.88L36.2977 23H37.8377L32.6377 32.88H38.4977V28.6H39.8977V32.88H41.6977Z" fill="#E58620"/>
</svg>
