<svg width="132" height="97" viewBox="0 0 132 97" fill="none" xmlns="http://www.w3.org/2000/svg">
<g id="Group 1000002194">
<g id="Group 1000002186">
<circle id="Ellipse 320" cx="66" cy="31" r="30.6" fill="white" stroke="#E58620" stroke-width="0.8" stroke-dasharray="8 8"/>
<path id="05" d="M64.5008 35.28C63.5808 36.5867 62.2808 37.24 60.6008 37.24C58.9208 37.24 57.6141 36.5867 56.6808 35.28C55.7608 33.96 55.3008 32.2 55.3008 30C55.3008 27.8 55.7608 26.0467 56.6808 24.74C57.6141 23.42 58.9208 22.76 60.6008 22.76C62.2808 22.76 63.5808 23.42 64.5008 24.74C65.4341 26.0467 65.9008 27.8 65.9008 30C65.9008 32.2 65.4341 33.96 64.5008 35.28ZM57.7208 34.34C58.4141 35.3667 59.3741 35.88 60.6008 35.88C61.8274 35.88 62.7808 35.3667 63.4608 34.34C64.1541 33.3133 64.5008 31.8667 64.5008 30C64.5008 28.1333 64.1541 26.6867 63.4608 25.66C62.7808 24.6333 61.8274 24.12 60.6008 24.12C59.3741 24.12 58.4141 24.6333 57.7208 25.66C57.0408 26.6867 56.7008 28.1333 56.7008 30C56.7008 31.8667 57.0408 33.3133 57.7208 34.34ZM72.1984 28.64C73.5051 28.64 74.6118 29.0267 75.5184 29.8C76.4384 30.56 76.8984 31.6067 76.8984 32.94C76.8984 34.2733 76.4384 35.3267 75.5184 36.1C74.6118 36.86 73.5051 37.24 72.1984 37.24C71.1451 37.24 70.2051 36.9867 69.3784 36.48C68.5518 35.96 67.9918 35.22 67.6984 34.26L68.8784 33.58C69.0784 34.3267 69.4718 34.9 70.0584 35.3C70.6584 35.6867 71.3718 35.88 72.1984 35.88C73.1584 35.88 73.9451 35.6267 74.5584 35.12C75.1851 34.6 75.4984 33.8733 75.4984 32.94C75.4984 32.0067 75.1851 31.2867 74.5584 30.78C73.9451 30.26 73.1584 30 72.1984 30H68.3984L68.8984 23H76.3984V24.32H70.1384L69.8384 28.64H72.1984Z" fill="#E58620"/>
</g>
<path id="TESTIMONIALS" d="M10.4 77V78.32H6.1V91H4.7V78.32H0.4V77H10.4ZM13.8008 89.68H20.6008V91H12.4008V77H20.5008V78.32H13.8008V83.28H20.0008V84.6H13.8008V89.68ZM27.4063 91.24C26.1263 91.24 25.0263 90.94 24.1063 90.34C23.1996 89.7267 22.5663 88.8867 22.2063 87.82L23.4063 87.12C23.6596 87.9867 24.1263 88.6667 24.8063 89.16C25.4863 89.64 26.3596 89.88 27.4263 89.88C28.4663 89.88 29.2729 89.6533 29.8463 89.2C30.4329 88.7333 30.7263 88.12 30.7263 87.36C30.7263 86.6267 30.4596 86.0733 29.9263 85.7C29.3929 85.3267 28.5129 84.94 27.2862 84.54C25.8329 84.06 24.8729 83.6733 24.4063 83.38C23.3396 82.74 22.8063 81.8133 22.8063 80.6C22.8063 79.4133 23.2196 78.48 24.0462 77.8C24.8729 77.1067 25.8929 76.76 27.1063 76.76C28.1996 76.76 29.1463 77.0467 29.9463 77.62C30.7463 78.18 31.3396 78.9 31.7263 79.78L30.5463 80.44C29.9063 78.8933 28.7596 78.12 27.1063 78.12C26.2396 78.12 25.5396 78.3333 25.0063 78.76C24.4729 79.1867 24.2063 79.78 24.2063 80.54C24.2063 81.2333 24.4463 81.7533 24.9263 82.1C25.4063 82.4467 26.1996 82.8 27.3063 83.16C27.8129 83.3333 28.1729 83.46 28.3863 83.54C28.6129 83.6067 28.9329 83.7267 29.3463 83.9C29.7729 84.06 30.0863 84.2067 30.2863 84.34C30.4863 84.46 30.7263 84.6333 31.0063 84.86C31.2996 85.0733 31.5063 85.2933 31.6263 85.52C31.7596 85.7333 31.8729 86 31.9662 86.32C32.0729 86.6267 32.1263 86.96 32.1263 87.32C32.1263 88.5067 31.6929 89.46 30.8263 90.18C29.9596 90.8867 28.8196 91.24 27.4063 91.24ZM42.8219 77V78.32H38.5219V91H37.1219V78.32H32.8219V77H42.8219ZM44.8227 77H46.2227V91H44.8227V77ZM62.232 77V91H60.832V79.12L55.932 87.32H55.732L50.832 79.12V91H49.432V77H51.172L55.832 84.8L60.492 77H62.232ZM77.0081 89.14C75.6081 90.54 73.8948 91.24 71.8681 91.24C69.8415 91.24 68.1281 90.54 66.7281 89.14C65.3281 87.7267 64.6281 86.0133 64.6281 84C64.6281 81.9867 65.3281 80.28 66.7281 78.88C68.1281 77.4667 69.8415 76.76 71.8681 76.76C73.8948 76.76 75.6081 77.4667 77.0081 78.88C78.4081 80.28 79.1081 81.9867 79.1081 84C79.1081 86.0133 78.4081 87.7267 77.0081 89.14ZM67.7081 88.18C68.8281 89.3133 70.2148 89.88 71.8681 89.88C73.5215 89.88 74.9081 89.3133 76.0281 88.18C77.1481 87.0333 77.7081 85.64 77.7081 84C77.7081 82.36 77.1481 80.9733 76.0281 79.84C74.9081 78.6933 73.5215 78.12 71.8681 78.12C70.2148 78.12 68.8281 78.6933 67.7081 79.84C66.5881 80.9733 66.0281 82.36 66.0281 84C66.0281 85.64 66.5881 87.0333 67.7081 88.18ZM90.5023 77H91.9023V91H90.7023L82.9023 79.6V91H81.5023V77H82.7023L90.5023 88.4V77ZM95.0961 77H96.4961V91H95.0961V77ZM109.025 91L107.725 87.56H101.085L99.7855 91H98.3055L103.685 77H105.125L110.505 91H109.025ZM101.585 86.24H107.225L104.405 78.74L101.585 86.24ZM113.703 89.68H120.103V91H112.303V77H113.703V89.68ZM126.117 91.24C124.837 91.24 123.737 90.94 122.817 90.34C121.911 89.7267 121.277 88.8867 120.917 87.82L122.117 87.12C122.371 87.9867 122.837 88.6667 123.517 89.16C124.197 89.64 125.071 89.88 126.137 89.88C127.177 89.88 127.984 89.6533 128.557 89.2C129.144 88.7333 129.437 88.12 129.437 87.36C129.437 86.6267 129.171 86.0733 128.637 85.7C128.104 85.3267 127.224 84.94 125.997 84.54C124.544 84.06 123.584 83.6733 123.117 83.38C122.051 82.74 121.517 81.8133 121.517 80.6C121.517 79.4133 121.931 78.48 122.757 77.8C123.584 77.1067 124.604 76.76 125.817 76.76C126.911 76.76 127.857 77.0467 128.657 77.62C129.457 78.18 130.051 78.9 130.437 79.78L129.257 80.44C128.617 78.8933 127.471 78.12 125.817 78.12C124.951 78.12 124.251 78.3333 123.717 78.76C123.184 79.1867 122.917 79.78 122.917 80.54C122.917 81.2333 123.157 81.7533 123.637 82.1C124.117 82.4467 124.911 82.8 126.017 83.16C126.524 83.3333 126.884 83.46 127.097 83.54C127.324 83.6067 127.644 83.7267 128.057 83.9C128.484 84.06 128.797 84.2067 128.997 84.34C129.197 84.46 129.437 84.6333 129.717 84.86C130.011 85.0733 130.217 85.2933 130.337 85.52C130.471 85.7333 130.584 86 130.677 86.32C130.784 86.6267 130.837 86.96 130.837 87.32C130.837 88.5067 130.404 89.46 129.537 90.18C128.671 90.8867 127.531 91.24 126.117 91.24Z" fill="black" fill-opacity="0.5"/>
</g>
</svg>
