<svg width="132" height="102" viewBox="0 0 132 102" fill="none" xmlns="http://www.w3.org/2000/svg">
<g id="Group 1000002194">
<g id="Group 1000002186">
<circle id="Ellipse 320" cx="37" cy="31" r="30.6" fill="white" stroke="#E58620" stroke-width="0.8" stroke-dasharray="8 8"/>
<path id="05" d="M35.5008 35.28C34.5808 36.5867 33.2808 37.24 31.6008 37.24C29.9208 37.24 28.6141 36.5867 27.6808 35.28C26.7608 33.96 26.3008 32.2 26.3008 30C26.3008 27.8 26.7608 26.0467 27.6808 24.74C28.6141 23.42 29.9208 22.76 31.6008 22.76C33.2808 22.76 34.5808 23.42 35.5008 24.74C36.4341 26.0467 36.9008 27.8 36.9008 30C36.9008 32.2 36.4341 33.96 35.5008 35.28ZM28.7208 34.34C29.4141 35.3667 30.3741 35.88 31.6008 35.88C32.8274 35.88 33.7808 35.3667 34.4608 34.34C35.1541 33.3133 35.5008 31.8667 35.5008 30C35.5008 28.1333 35.1541 26.6867 34.4608 25.66C33.7808 24.6333 32.8274 24.12 31.6008 24.12C30.3741 24.12 29.4141 24.6333 28.7208 25.66C28.0408 26.6867 27.7008 28.1333 27.7008 30C27.7008 31.8667 28.0408 33.3133 28.7208 34.34ZM43.1984 28.64C44.5051 28.64 45.6118 29.0267 46.5184 29.8C47.4384 30.56 47.8984 31.6067 47.8984 32.94C47.8984 34.2733 47.4384 35.3267 46.5184 36.1C45.6118 36.86 44.5051 37.24 43.1984 37.24C42.1451 37.24 41.2051 36.9867 40.3784 36.48C39.5518 35.96 38.9918 35.22 38.6984 34.26L39.8784 33.58C40.0784 34.3267 40.4718 34.9 41.0584 35.3C41.6584 35.6867 42.3718 35.88 43.1984 35.88C44.1584 35.88 44.9451 35.6267 45.5584 35.12C46.1851 34.6 46.4984 33.8733 46.4984 32.94C46.4984 32.0067 46.1851 31.2867 45.5584 30.78C44.9451 30.26 44.1584 30 43.1984 30H39.3984L39.8984 23H47.3984V24.32H41.1384L40.8384 28.64H43.1984Z" fill="#E58620"/>
</g>
<path id="TESTIMONIALS" d="M10.4 82V83.32H6.1V96H4.7V83.32H0.4V82H10.4ZM13.8008 94.68H20.6008V96H12.4008V82H20.5008V83.32H13.8008V88.28H20.0008V89.6H13.8008V94.68ZM27.4063 96.24C26.1263 96.24 25.0263 95.94 24.1063 95.34C23.1996 94.7267 22.5663 93.8867 22.2063 92.82L23.4063 92.12C23.6596 92.9867 24.1263 93.6667 24.8063 94.16C25.4863 94.64 26.3596 94.88 27.4263 94.88C28.4663 94.88 29.2729 94.6533 29.8463 94.2C30.4329 93.7333 30.7263 93.12 30.7263 92.36C30.7263 91.6267 30.4596 91.0733 29.9263 90.7C29.3929 90.3267 28.5129 89.94 27.2862 89.54C25.8329 89.06 24.8729 88.6733 24.4063 88.38C23.3396 87.74 22.8063 86.8133 22.8063 85.6C22.8063 84.4133 23.2196 83.48 24.0462 82.8C24.8729 82.1067 25.8929 81.76 27.1063 81.76C28.1996 81.76 29.1463 82.0467 29.9463 82.62C30.7463 83.18 31.3396 83.9 31.7263 84.78L30.5463 85.44C29.9063 83.8933 28.7596 83.12 27.1063 83.12C26.2396 83.12 25.5396 83.3333 25.0063 83.76C24.4729 84.1867 24.2063 84.78 24.2063 85.54C24.2063 86.2333 24.4463 86.7533 24.9263 87.1C25.4063 87.4467 26.1996 87.8 27.3063 88.16C27.8129 88.3333 28.1729 88.46 28.3863 88.54C28.6129 88.6067 28.9329 88.7267 29.3463 88.9C29.7729 89.06 30.0863 89.2067 30.2863 89.34C30.4863 89.46 30.7263 89.6333 31.0063 89.86C31.2996 90.0733 31.5063 90.2933 31.6263 90.52C31.7596 90.7333 31.8729 91 31.9662 91.32C32.0729 91.6267 32.1263 91.96 32.1263 92.32C32.1263 93.5067 31.6929 94.46 30.8263 95.18C29.9596 95.8867 28.8196 96.24 27.4063 96.24ZM42.8219 82V83.32H38.5219V96H37.1219V83.32H32.8219V82H42.8219ZM44.8227 82H46.2227V96H44.8227V82ZM62.232 82V96H60.832V84.12L55.932 92.32H55.732L50.832 84.12V96H49.432V82H51.172L55.832 89.8L60.492 82H62.232ZM77.0081 94.14C75.6081 95.54 73.8948 96.24 71.8681 96.24C69.8415 96.24 68.1281 95.54 66.7281 94.14C65.3281 92.7267 64.6281 91.0133 64.6281 89C64.6281 86.9867 65.3281 85.28 66.7281 83.88C68.1281 82.4667 69.8415 81.76 71.8681 81.76C73.8948 81.76 75.6081 82.4667 77.0081 83.88C78.4081 85.28 79.1081 86.9867 79.1081 89C79.1081 91.0133 78.4081 92.7267 77.0081 94.14ZM67.7081 93.18C68.8281 94.3133 70.2148 94.88 71.8681 94.88C73.5215 94.88 74.9081 94.3133 76.0281 93.18C77.1481 92.0333 77.7081 90.64 77.7081 89C77.7081 87.36 77.1481 85.9733 76.0281 84.84C74.9081 83.6933 73.5215 83.12 71.8681 83.12C70.2148 83.12 68.8281 83.6933 67.7081 84.84C66.5881 85.9733 66.0281 87.36 66.0281 89C66.0281 90.64 66.5881 92.0333 67.7081 93.18ZM90.5023 82H91.9023V96H90.7023L82.9023 84.6V96H81.5023V82H82.7023L90.5023 93.4V82ZM95.0961 82H96.4961V96H95.0961V82ZM109.025 96L107.725 92.56H101.085L99.7855 96H98.3055L103.685 82H105.125L110.505 96H109.025ZM101.585 91.24H107.225L104.405 83.74L101.585 91.24ZM113.703 94.68H120.103V96H112.303V82H113.703V94.68ZM126.117 96.24C124.837 96.24 123.737 95.94 122.817 95.34C121.911 94.7267 121.277 93.8867 120.917 92.82L122.117 92.12C122.371 92.9867 122.837 93.6667 123.517 94.16C124.197 94.64 125.071 94.88 126.137 94.88C127.177 94.88 127.984 94.6533 128.557 94.2C129.144 93.7333 129.437 93.12 129.437 92.36C129.437 91.6267 129.171 91.0733 128.637 90.7C128.104 90.3267 127.224 89.94 125.997 89.54C124.544 89.06 123.584 88.6733 123.117 88.38C122.051 87.74 121.517 86.8133 121.517 85.6C121.517 84.4133 121.931 83.48 122.757 82.8C123.584 82.1067 124.604 81.76 125.817 81.76C126.911 81.76 127.857 82.0467 128.657 82.62C129.457 83.18 130.051 83.9 130.437 84.78L129.257 85.44C128.617 83.8933 127.471 83.12 125.817 83.12C124.951 83.12 124.251 83.3333 123.717 83.76C123.184 84.1867 122.917 84.78 122.917 85.54C122.917 86.2333 123.157 86.7533 123.637 87.1C124.117 87.4467 124.911 87.8 126.017 88.16C126.524 88.3333 126.884 88.46 127.097 88.54C127.324 88.6067 127.644 88.7267 128.057 88.9C128.484 89.06 128.797 89.2067 128.997 89.34C129.197 89.46 129.437 89.6333 129.717 89.86C130.011 90.0733 130.217 90.2933 130.337 90.52C130.471 90.7333 130.584 91 130.677 91.32C130.784 91.6267 130.837 91.96 130.837 92.32C130.837 93.5067 130.404 94.46 129.537 95.18C128.671 95.8867 127.531 96.24 126.117 96.24Z" fill="black" fill-opacity="0.5"/>
</g>
</svg>
