<svg width="32" height="32" viewBox="0 0 32 32" fill="none" xmlns="http://www.w3.org/2000/svg">
<g clip-path="url(#clip0_163_5763)">
<path d="M14.627 2.66669H11.9603C5.29362 2.66669 2.62695 5.33335 2.62695 12V20C2.62695 26.6667 5.29362 29.3334 11.9603 29.3334H19.9603C26.627 29.3334 29.2936 26.6667 29.2936 20V17.3334" stroke="#E58620" stroke-width="1.5" stroke-linecap="round" stroke-linejoin="round"/>
<path d="M29.1736 4.74668C27.5336 8.84001 23.4136 14.4133 19.9736 17.1733L17.8669 18.8533C17.6002 19.0533 17.3336 19.2133 17.0269 19.3333C17.0269 19.1333 17.0136 18.9333 16.9869 18.72C16.8669 17.8267 16.4669 16.9867 15.7469 16.28C15.0136 15.5467 14.1336 15.1333 13.2269 15.0133C13.0136 15 12.8002 14.9867 12.5869 15C12.7069 14.6667 12.8802 14.36 13.1069 14.1067L14.7869 12C17.5469 8.56001 23.1336 4.41334 27.2136 2.77334C27.8402 2.53334 28.4536 2.72001 28.8402 3.10668C29.2402 3.50668 29.4269 4.12001 29.1736 4.74668Z" stroke="#E58620" stroke-width="1.5" stroke-linecap="round" stroke-linejoin="round"/>
<path d="M17.0404 19.32C17.0404 20.4933 16.5871 21.6133 15.7471 22.4667C15.0938 23.12 14.2138 23.5733 13.1604 23.7067L10.5338 23.9867C9.10712 24.1467 7.88045 22.9333 8.04045 21.48L8.32045 18.8533C8.57378 16.52 10.5204 15.0267 12.6004 14.9867C12.8138 14.9733 13.0271 14.9867 13.2405 15C14.1471 15.12 15.0271 15.5333 15.7604 16.2667C16.4804 16.9867 16.8804 17.8133 17.0004 18.7067C17.0271 18.92 17.0404 19.1333 17.0404 19.32Z" stroke="#E58620" stroke-width="1.5" stroke-linecap="round" stroke-linejoin="round"/>
<path d="M21.0934 15.9733C21.0934 13.1866 18.84 10.92 16.04 10.92" stroke="#E58620" stroke-width="1.5" stroke-linecap="round" stroke-linejoin="round"/>
</g>
<defs>
<clipPath id="clip0_163_5763">
<rect width="32" height="32" fill="white"/>
</clipPath>
</defs>
</svg>
