<svg width="32" height="32" viewBox="0 0 32 32" fill="none" xmlns="http://www.w3.org/2000/svg">
<path d="M16.6662 29.3338H5.43955C3.89289 29.3338 2.62622 28.0938 2.62622 26.5738V6.78715C2.62622 3.29382 5.22622 1.70715 8.41289 3.26715L14.3329 6.17382C15.6129 6.80049 16.6662 8.46715 16.6662 9.88049V29.3338Z" stroke="#E58620" stroke-width="1.5" stroke-linecap="round" stroke-linejoin="round"/>
<path d="M29.2929 20.0805V25.1205C29.2929 28.0005 27.9596 29.3338 25.0796 29.3338H16.6663V13.8938L17.2929 14.0271L23.2929 15.3738L25.9996 15.9738C27.7596 16.3605 29.1996 17.2671 29.2796 19.8271C29.2929 19.9071 29.2929 19.9871 29.2929 20.0805Z" stroke="#E58620" stroke-width="1.5" stroke-linecap="round" stroke-linejoin="round"/>
<path d="M7.33301 12.0005H11.9597" stroke="#E58620" stroke-width="1.5" stroke-linecap="round" stroke-linejoin="round"/>
<path d="M7.33301 17.3338H11.9597" stroke="#E58620" stroke-width="1.5" stroke-linecap="round" stroke-linejoin="round"/>
<path d="M23.293 15.3738V19.6672C23.293 21.3205 21.9463 22.6672 20.293 22.6672C18.6396 22.6672 17.293 21.3205 17.293 19.6672V14.0272L23.293 15.3738Z" stroke="#E58620" stroke-width="1.5" stroke-linecap="round" stroke-linejoin="round"/>
<path d="M29.2796 19.8271C29.1996 21.4004 27.893 22.6671 26.293 22.6671C24.6396 22.6671 23.293 21.3204 23.293 19.6671V15.3738L25.9996 15.9738C27.7596 16.3604 29.1996 17.2671 29.2796 19.8271Z" stroke="#E58620" stroke-width="1.5" stroke-linecap="round" stroke-linejoin="round"/>
</svg>
