<svg width="16" height="18" viewBox="0 0 16 18" fill="none" xmlns="http://www.w3.org/2000/svg">
<path fill-rule="evenodd" clip-rule="evenodd" d="M11.7101 1.27919V2.1416C14.2174 2.38484 15.5 3.7706 15.5 6.26201V13.1539C15.5 15.9254 13.9203 17.3333 10.8116 17.3333H5.18841C2.07971 17.3333 0.5 15.9254 0.5 13.1539V6.26201C0.5 4.60352 1.06522 3.41679 2.22464 2.72391C2.4074 2.59916 2.64386 2.59045 2.83501 2.70143C3.02617 2.81241 3.13906 3.02393 3.12641 3.24744C3.11377 3.47096 2.97777 3.66791 2.77536 3.75586C2.00725 4.21286 1.64493 5.00893 1.64493 6.26201V6.48314H12.2174C12.5336 6.48314 12.7899 6.74385 12.7899 7.06545C12.7899 7.38705 12.5336 7.64776 12.2174 7.64776H1.64493V13.1539C1.64493 15.2694 2.67391 16.1466 5.18841 16.1613H10.8116C13.2899 16.1613 14.3478 15.262 14.3478 13.1465V6.25463C14.3478 4.41188 13.5435 3.51998 11.7101 3.30622V3.86642C11.6679 4.16501 11.4109 4.38299 11.1145 4.37161C10.8181 4.36024 10.578 4.12318 10.558 3.82219V1.22759C10.5636 1.07178 10.6304 0.924765 10.7435 0.81947C10.8565 0.714175 11.0063 0.659394 11.1594 0.667394C11.475 0.687135 11.7185 0.957652 11.7101 1.27919ZM5.25731 4.24395C5.14838 4.35337 5.0009 4.41385 4.84783 4.41188C4.5345 4.40383 4.28579 4.14099 4.28986 3.82219V1.27919C4.3228 0.980865 4.57082 0.755332 4.86594 0.755332C5.16107 0.755332 5.40908 0.980865 5.44203 1.27919V2.08263H8.71739C9.03355 2.08263 9.28986 2.34334 9.28986 2.66494C9.28986 2.98654 9.03355 3.24725 8.71739 3.24725H5.42754V3.82957C5.42755 3.98529 5.36624 4.13453 5.25731 4.24395ZM11.4928 9.51263C11.0925 9.51263 10.7681 9.84264 10.7681 10.2497C10.7681 10.6568 11.0925 10.9868 11.4928 10.9868C11.893 10.9868 12.2174 10.6568 12.2174 10.2497C12.2174 10.053 12.1401 9.86435 12.0026 9.7259C11.8651 9.58745 11.6789 9.51066 11.4855 9.51263H11.4928ZM7.28986 10.2497C7.28986 9.84264 7.61429 9.51263 8.01449 9.51263C8.4147 9.51263 8.73913 9.84264 8.73913 10.2497C8.73913 10.6568 8.4147 10.9868 8.01449 10.9868C7.61429 10.9868 7.28986 10.6568 7.28986 10.2497ZM4.54348 9.51263C4.14327 9.51263 3.81884 9.84264 3.81884 10.2497C3.81884 10.6568 4.14327 10.9868 4.54348 10.9868C4.94368 10.9868 5.26812 10.6568 5.26812 10.2497C5.26813 10.053 5.19079 9.86435 5.05332 9.7259C4.91585 9.58745 4.72967 9.51066 4.53623 9.51263H4.54348ZM10.7681 13.235C10.7681 12.8279 11.0925 12.4979 11.4928 12.4979H11.4855C11.6789 12.4959 11.8651 12.5727 12.0026 12.7112C12.1401 12.8496 12.2174 13.0382 12.2174 13.235C12.2174 13.6421 11.893 13.9721 11.4928 13.9721C11.0925 13.9721 10.7681 13.6421 10.7681 13.235ZM8.01449 12.4979C7.61429 12.4979 7.28986 12.8279 7.28986 13.235C7.28986 13.6421 7.61429 13.9721 8.01449 13.9721C8.4147 13.9721 8.73913 13.6421 8.73913 13.235C8.73913 12.8279 8.4147 12.4979 8.01449 12.4979ZM3.81884 13.235C3.81884 12.8279 4.14327 12.4979 4.54348 12.4979H4.53623C4.72967 12.4959 4.91585 12.5727 5.05332 12.7112C5.19079 12.8496 5.26813 13.0382 5.26812 13.235C5.26812 13.6421 4.94368 13.9721 4.54348 13.9721C4.14327 13.9721 3.81884 13.6421 3.81884 13.235Z" fill="black"/>
</svg>
