<svg width="24" height="25" viewBox="0 0 24 25" fill="none" xmlns="http://www.w3.org/2000/svg">
<g id="vuesax/linear/call-calling">
<g id="vuesax/linear/call-calling_2">
<g id="call-calling">
<g id="call-calling_2">
<path id="Vector" d="M21.97 18.7323C21.97 19.0923 21.89 19.4623 21.72 19.8223C21.55 20.1823 21.33 20.5223 21.04 20.8423C20.55 21.3823 20.01 21.7723 19.4 22.0223C18.8 22.2723 18.15 22.4023 17.45 22.4023C16.43 22.4023 15.34 22.1623 14.19 21.6723C13.04 21.1823 11.89 20.5223 10.75 19.6923C9.6 18.8523 8.51 17.9223 7.47 16.8923C6.44 15.8523 5.51 14.7623 4.68 13.6223C3.86 12.4823 3.2 11.3423 2.72 10.2123C2.24 9.07234 2 7.98234 2 6.94234C2 6.26234 2.12 5.61234 2.36 5.01234C2.6 4.40234 2.98 3.84234 3.51 3.34234C4.15 2.71234 4.85 2.40234 5.59 2.40234C5.87 2.40234 6.15 2.46234 6.4 2.58234C6.66 2.70234 6.89 2.88234 7.07 3.14234L9.39 6.41234C9.57 6.66234 9.7 6.89234 9.79 7.11234C9.88 7.32234 9.93 7.53234 9.93 7.72234C9.93 7.96234 9.86 8.20234 9.72 8.43234C9.59 8.66234 9.4 8.90234 9.16 9.14234L8.4 9.93234C8.29 10.0423 8.24 10.1723 8.24 10.3323C8.24 10.4123 8.25 10.4823 8.27 10.5623C8.3 10.6423 8.33 10.7023 8.35 10.7623C8.53 11.0923 8.84 11.5223 9.28 12.0423C9.73 12.5623 10.21 13.0923 10.73 13.6223C11.27 14.1523 11.79 14.6423 12.32 15.0923C12.84 15.5323 13.27 15.8323 13.61 16.0123C13.66 16.0323 13.72 16.0623 13.79 16.0923C13.87 16.1223 13.95 16.1323 14.04 16.1323C14.21 16.1323 14.34 16.0723 14.45 15.9623L15.21 15.2123C15.46 14.9623 15.7 14.7723 15.93 14.6523C16.16 14.5123 16.39 14.4423 16.64 14.4423C16.83 14.4423 17.03 14.4823 17.25 14.5723C17.47 14.6623 17.7 14.7923 17.95 14.9623L21.26 17.3123C21.52 17.4923 21.7 17.7023 21.81 17.9523C21.91 18.2023 21.97 18.4523 21.97 18.7323Z" stroke="white" stroke-width="1.5" stroke-miterlimit="10"/>
<path id="Vector_2" d="M18.5 9.40234C18.5 8.80234 18.03 7.88234 17.33 7.13234C16.69 6.44234 15.84 5.90234 15 5.90234" stroke="white" stroke-width="1.5" stroke-linecap="round" stroke-linejoin="round"/>
<path id="Vector_3" d="M22 9.40234C22 5.53234 18.87 2.40234 15 2.40234" stroke="white" stroke-width="1.5" stroke-linecap="round" stroke-linejoin="round"/>
</g>
</g>
</g>
</g>
</svg>
