<svg width="32" height="32" viewBox="0 0 32 32" fill="none" xmlns="http://www.w3.org/2000/svg">
<path d="M25.2931 29.3334H6.62646C2.62646 29.3334 2.62646 27.5334 2.62646 25.3334V24C2.62646 23.2667 3.22646 22.6667 3.9598 22.6667H27.9598C28.6931 22.6667 29.2931 23.2667 29.2931 24V25.3334C29.2931 27.5334 29.2931 29.3334 25.2931 29.3334Z" stroke="#E58620" stroke-width="1.5" stroke-linecap="round" stroke-linejoin="round"/>
<path d="M27.6265 17.3334V22.6667H4.35986V17.3334C4.35986 12.2134 7.9732 7.93335 12.7865 6.90669C13.5065 6.74669 14.2532 6.66669 15.0265 6.66669H16.9599C17.7332 6.66669 18.4932 6.74669 19.2132 6.90669C24.0265 7.94669 27.6265 12.2134 27.6265 17.3334Z" stroke="#E58620" stroke-width="1.5" stroke-linecap="round" stroke-linejoin="round"/>
<path d="M19.3332 6.00002C19.3332 6.32002 19.2932 6.61335 19.2132 6.90669C18.4932 6.74669 17.7332 6.66669 16.9598 6.66669H15.0265C14.2532 6.66669 13.5065 6.74669 12.7865 6.90669C12.7065 6.61335 12.6665 6.32002 12.6665 6.00002C12.6665 4.16002 14.1598 2.66669 15.9998 2.66669C17.8398 2.66669 19.3332 4.16002 19.3332 6.00002Z" stroke="#E58620" stroke-width="1.5" stroke-linecap="round" stroke-linejoin="round"/>
<path d="M20 14.6667H12" stroke="#E58620" stroke-width="1.5" stroke-linecap="round" stroke-linejoin="round"/>
</svg>
