<svg width="346" height="300" viewBox="0 0 346 300" fill="none" xmlns="http://www.w3.org/2000/svg">
<path d="M60.2136 272.184C48.0778 59.9104 155.822 20.1774 296.5 31.0578" stroke="white" stroke-opacity="0.5" stroke-width="2" stroke-dasharray="8 8"/>
<circle cx="56.9999" cy="268.999" r="31" fill="black"/>
<circle cx="56.9999" cy="268.999" r="30.5" stroke="#E58620" stroke-opacity="0.5" stroke-dasharray="8 8"/>
<path d="M54.1999 273.279C53.2799 274.586 51.9799 275.239 50.2999 275.239C48.6199 275.239 47.3133 274.586 46.3799 273.279C45.4599 271.959 44.9999 270.199 44.9999 267.999C44.9999 265.799 45.4599 264.046 46.3799 262.739C47.3133 261.419 48.6199 260.759 50.2999 260.759C51.9799 260.759 53.2799 261.419 54.1999 262.739C55.1333 264.046 55.5999 265.799 55.5999 267.999C55.5999 270.199 55.1333 271.959 54.1999 273.279ZM47.4199 272.339C48.1133 273.366 49.0733 273.879 50.2999 273.879C51.5266 273.879 52.4799 273.366 53.1599 272.339C53.8533 271.313 54.1999 269.866 54.1999 267.999C54.1999 266.133 53.8533 264.686 53.1599 263.659C52.4799 262.633 51.5266 262.119 50.2999 262.119C49.0733 262.119 48.1133 262.633 47.4199 263.659C46.7399 264.686 46.3999 266.133 46.3999 267.999C46.3999 269.866 46.7399 271.313 47.4199 272.339ZM67.6976 270.879V272.199H65.8976V274.999H64.4976V272.199H57.0976V270.879L62.2976 260.999H63.8376L58.6376 270.879H64.4976V266.599H65.8976V270.879H67.6976Z" fill="#E58620"/>
</svg>
