<svg width="24" height="25" viewBox="0 0 24 25" fill="none" xmlns="http://www.w3.org/2000/svg">
<path d="M9 22.4023H15C20 22.4023 22 20.4023 22 15.4023V9.40234C22 4.40234 20 2.40234 15 2.40234H9C4 2.40234 2 4.40234 2 9.40234V15.4023C2 20.4023 4 22.4023 9 22.4023Z" stroke="white" stroke-width="1.5" stroke-linecap="round" stroke-linejoin="round"/>
<path d="M2 13.4023H5.76C6.52 13.4023 7.21 13.8323 7.55 14.5123L8.44 16.3023C9 17.4023 10 17.4023 10.24 17.4023H13.77C14.53 17.4023 15.22 16.9723 15.56 16.2923L16.45 14.5023C16.79 13.8223 17.48 13.3923 18.24 13.3923H21.98" stroke="white" stroke-width="1.5" stroke-linecap="round" stroke-linejoin="round"/>
</svg>
