<svg width="62" height="63" viewBox="0 0 62 63" fill="none" xmlns="http://www.w3.org/2000/svg">
<g id="Group 48095597">
<circle id="Ellipse 320" cx="31" cy="31.0273" r="30.6" fill="white" stroke="#0D8A9B" stroke-width="0.8" stroke-dasharray="6 6"/>
<path id="05" d="M25.078 39.2273C24.0247 39.2273 23.058 38.934 22.178 38.3473C21.3114 37.7473 20.618 36.9073 20.098 35.8273C19.578 34.7473 19.318 33.474 19.318 32.0073C19.318 30.5407 19.5714 29.274 20.078 28.2073C20.598 27.1273 21.2914 26.294 22.158 25.7073C23.0247 25.1207 23.9847 24.8273 25.038 24.8273C26.1047 24.8273 27.0714 25.1207 27.938 25.7073C28.8047 26.294 29.4914 27.1273 29.998 28.2073C30.518 29.274 30.778 30.5473 30.778 32.0273C30.778 33.494 30.518 34.7673 29.998 35.8473C29.4914 36.9273 28.8047 37.7607 27.938 38.3473C27.0847 38.934 26.1314 39.2273 25.078 39.2273ZM25.038 37.0673C25.7314 37.0673 26.3314 36.8807 26.838 36.5073C27.3447 36.134 27.738 35.574 28.018 34.8273C28.3114 34.0807 28.458 33.1407 28.458 32.0073C28.458 30.8873 28.3114 29.954 28.018 29.2073C27.738 28.4607 27.338 27.9073 26.818 27.5473C26.3114 27.174 25.718 26.9873 25.038 26.9873C24.358 26.9873 23.758 27.174 23.238 27.5473C22.7314 27.9073 22.338 28.4607 22.058 29.2073C21.778 29.9407 21.638 30.874 21.638 32.0073C21.638 33.1407 21.778 34.0807 22.058 34.8273C22.338 35.574 22.7314 36.134 23.238 36.5073C23.758 36.8807 24.358 37.0673 25.038 37.0673ZM36.5435 39.2273C35.5702 39.2273 34.7035 39.0607 33.9435 38.7273C33.1835 38.3807 32.5435 37.8807 32.0235 37.2273L33.5835 35.6673C33.8635 36.094 34.2568 36.434 34.7635 36.6873C35.2835 36.9407 35.8635 37.0673 36.5035 37.0673C37.0902 37.0673 37.6035 36.9607 38.0435 36.7473C38.4835 36.534 38.8302 36.2273 39.0835 35.8273C39.3368 35.4273 39.4635 34.954 39.4635 34.4073C39.4635 33.834 39.3368 33.3607 39.0835 32.9873C38.8435 32.6007 38.5168 32.314 38.1035 32.1273C37.7035 31.9273 37.2702 31.8273 36.8035 31.8273C36.2702 31.8273 35.7902 31.8873 35.3635 32.0073C34.9502 32.1273 34.5435 32.3407 34.1435 32.6473L34.2035 31.2073C34.4168 30.9273 34.6635 30.7007 34.9435 30.5273C35.2235 30.3407 35.5502 30.2007 35.9235 30.1073C36.2968 30.014 36.7368 29.9673 37.2435 29.9673C38.2302 29.9673 39.0568 30.174 39.7235 30.5873C40.4035 31.0007 40.9168 31.554 41.2635 32.2473C41.6102 32.9273 41.7835 33.6873 41.7835 34.5273C41.7835 35.434 41.5568 36.2407 41.1035 36.9473C40.6635 37.654 40.0502 38.214 39.2635 38.6273C38.4768 39.0273 37.5702 39.2273 36.5435 39.2273ZM34.1435 32.6473L32.8835 31.3873L33.5035 25.0273H35.6035L34.8835 31.6473L34.1435 32.6473ZM33.9035 27.0873L33.5035 25.0273H41.0035V27.0873H33.9035Z" fill="#0D8A9B"/>
</g>
</svg>
