<svg width="231" height="117" viewBox="0 0 231 117" fill="none" xmlns="http://www.w3.org/2000/svg">
<g id="Group 48095592">
<path id="Line 177" d="M4 66L4 109" stroke="white" stroke-opacity="0.12"/>
<circle id="Ellipse 340" cx="4" cy="104" r="4" fill="#0D8A9B"/>
<path id="Vector 1" d="M78 0C138.279 8.81943 255.5 17.5 202.5 110.5" stroke="#0D8A9B" stroke-opacity="0.5" stroke-width="0.8" stroke-dasharray="4 4"/>
<g id="Group 48096543">
<g id="Ellipse 320">
<circle cx="214" cy="100" r="17" fill="#01171B"/>
<circle cx="214" cy="100" r="16.5" stroke="#0D8A9B" stroke-opacity="0.5" stroke-dasharray="3 3"/>
</g>
<path id="01" d="M210.606 105.14C209.869 105.14 209.192 104.935 208.576 104.524C207.969 104.104 207.484 103.516 207.12 102.76C206.756 102.004 206.574 101.113 206.574 100.086C206.574 99.0593 206.751 98.1727 207.106 97.426C207.47 96.67 207.955 96.0867 208.562 95.676C209.169 95.2653 209.841 95.06 210.578 95.06C211.325 95.06 212.001 95.2653 212.608 95.676C213.215 96.0867 213.695 96.67 214.05 97.426C214.414 98.1727 214.596 99.064 214.596 100.1C214.596 101.127 214.414 102.018 214.05 102.774C213.695 103.53 213.215 104.113 212.608 104.524C212.011 104.935 211.343 105.14 210.606 105.14ZM210.578 103.628C211.063 103.628 211.483 103.497 211.838 103.236C212.193 102.975 212.468 102.583 212.664 102.06C212.869 101.537 212.972 100.879 212.972 100.086C212.972 99.302 212.869 98.6487 212.664 98.126C212.468 97.6033 212.188 97.216 211.824 96.964C211.469 96.7027 211.054 96.572 210.578 96.572C210.102 96.572 209.682 96.7027 209.318 96.964C208.963 97.216 208.688 97.6033 208.492 98.126C208.296 98.6393 208.198 99.2927 208.198 100.086C208.198 100.879 208.296 101.537 208.492 102.06C208.688 102.583 208.963 102.975 209.318 103.236C209.682 103.497 210.102 103.628 210.578 103.628ZM217.498 105V95.2H219.08V105H217.498ZM215.538 96.642V95.2H218.94V96.642H215.538Z" fill="#0D8A9B" fill-opacity="0.5"/>
</g>
</g>
</svg>
