<svg width="377" height="824" viewBox="0 0 377 824" fill="none" xmlns="http://www.w3.org/2000/svg">
<path d="M0.5 1C119.369 26.5591 375.5 34.5 200.5 399.5L82 671L39 823.5" stroke="#0D8A9B" stroke-opacity="0.5" stroke-width="0.8" stroke-dasharray="8 8"/>
<line x1="278.499" y1="143.75" x2="377.001" y2="143.75" stroke="#0D8A9B" stroke-opacity="0.5"/>
<path d="M244.08 154.2C243.027 154.2 242.06 153.907 241.18 153.32C240.313 152.72 239.62 151.88 239.1 150.8C238.58 149.72 238.32 148.447 238.32 146.98C238.32 145.513 238.573 144.247 239.08 143.18C239.6 142.1 240.293 141.267 241.16 140.68C242.027 140.093 242.987 139.8 244.04 139.8C245.107 139.8 246.073 140.093 246.94 140.68C247.807 141.267 248.493 142.1 249 143.18C249.52 144.247 249.78 145.52 249.78 147C249.78 148.467 249.52 149.74 249 150.82C248.493 151.9 247.807 152.733 246.94 153.32C246.087 153.907 245.133 154.2 244.08 154.2ZM244.04 152.04C244.733 152.04 245.333 151.853 245.84 151.48C246.347 151.107 246.74 150.547 247.02 149.8C247.313 149.053 247.46 148.113 247.46 146.98C247.46 145.86 247.313 144.927 247.02 144.18C246.74 143.433 246.34 142.88 245.82 142.52C245.313 142.147 244.72 141.96 244.04 141.96C243.36 141.96 242.76 142.147 242.24 142.52C241.733 142.88 241.34 143.433 241.06 144.18C240.78 144.913 240.64 145.847 240.64 146.98C240.64 148.113 240.78 149.053 241.06 149.8C241.34 150.547 241.733 151.107 242.24 151.48C242.76 151.853 243.36 152.04 244.04 152.04ZM253.925 154V140H256.185V154H253.925ZM251.125 142.06V140H255.985V142.06H251.125Z" fill="#0D8A9B" fill-opacity="0.5"/>
<circle cx="247" cy="144" r="31" fill="#01171B"/>
<circle cx="247" cy="144" r="30.5" stroke="#0D8A9B" stroke-opacity="0.5" stroke-dasharray="8 8"/>
<path d="M242.58 152.2C241.527 152.2 240.56 151.907 239.68 151.32C238.813 150.72 238.12 149.88 237.6 148.8C237.08 147.72 236.82 146.447 236.82 144.98C236.82 143.513 237.073 142.247 237.58 141.18C238.1 140.1 238.793 139.267 239.66 138.68C240.527 138.093 241.487 137.8 242.54 137.8C243.607 137.8 244.573 138.093 245.44 138.68C246.307 139.267 246.993 140.1 247.5 141.18C248.02 142.247 248.28 143.52 248.28 145C248.28 146.467 248.02 147.74 247.5 148.82C246.993 149.9 246.307 150.733 245.44 151.32C244.587 151.907 243.633 152.2 242.58 152.2ZM242.54 150.04C243.233 150.04 243.833 149.853 244.34 149.48C244.847 149.107 245.24 148.547 245.52 147.8C245.813 147.053 245.96 146.113 245.96 144.98C245.96 143.86 245.813 142.927 245.52 142.18C245.24 141.433 244.84 140.88 244.32 140.52C243.813 140.147 243.22 139.96 242.54 139.96C241.86 139.96 241.26 140.147 240.74 140.52C240.233 140.88 239.84 141.433 239.56 142.18C239.28 142.913 239.14 143.847 239.14 144.98C239.14 146.113 239.28 147.053 239.56 147.8C239.84 148.547 240.233 149.107 240.74 149.48C241.26 149.853 241.86 150.04 242.54 150.04ZM252.425 152V138H254.685V152H252.425ZM249.625 140.06V138H254.485V140.06H249.625Z" fill="#0D8A9B" fill-opacity="0.5"/>
</svg>
