<svg width="62" height="62" viewBox="0 0 62 62" fill="none" xmlns="http://www.w3.org/2000/svg">
<g id="Group 48095606">
<circle id="Ellipse 320" cx="31" cy="31" r="30" fill="white" stroke="#84CAD3" stroke-width="2" stroke-dasharray="8 8"/>
<path id="04" d="M25.0409 39.2C23.9876 39.2 23.0209 38.9067 22.1409 38.32C21.2743 37.72 20.5809 36.88 20.0609 35.8C19.5409 34.72 19.2809 33.4467 19.2809 31.98C19.2809 30.5133 19.5343 29.2467 20.0409 28.18C20.5609 27.1 21.2543 26.2667 22.1209 25.68C22.9876 25.0933 23.9476 24.8 25.0009 24.8C26.0676 24.8 27.0343 25.0933 27.9009 25.68C28.7676 26.2667 29.4543 27.1 29.9609 28.18C30.4809 29.2467 30.7409 30.52 30.7409 32C30.7409 33.4667 30.4809 34.74 29.9609 35.82C29.4543 36.9 28.7676 37.7333 27.9009 38.32C27.0476 38.9067 26.0943 39.2 25.0409 39.2ZM25.0009 37.04C25.6943 37.04 26.2943 36.8533 26.8009 36.48C27.3076 36.1067 27.7009 35.5467 27.9809 34.8C28.2743 34.0533 28.4209 33.1133 28.4209 31.98C28.4209 30.86 28.2743 29.9267 27.9809 29.18C27.7009 28.4333 27.3009 27.88 26.7809 27.52C26.2743 27.1467 25.6809 26.96 25.0009 26.96C24.3209 26.96 23.7209 27.1467 23.2009 27.52C22.6943 27.88 22.3009 28.4333 22.0209 29.18C21.7409 29.9133 21.6009 30.8467 21.6009 31.98C21.6009 33.1133 21.7409 34.0533 22.0209 34.8C22.3009 35.5467 22.6943 36.1067 23.2009 36.48C23.7209 36.8533 24.3209 37.04 25.0009 37.04ZM32.1264 34L37.1064 25H39.7064L34.6064 34H32.1264ZM32.1264 35.4V34L33.1064 33.34H42.9864V35.4H32.1264ZM38.7664 39V29.84H41.0264V39H38.7664Z" fill="#0D8A9B"/>
</g>
</svg>
