<svg width="32" height="32" viewBox="0 0 32 32" fill="none" xmlns="http://www.w3.org/2000/svg">
<path d="M29.3332 22.9334C29.3332 24.1334 28.9999 25.2667 28.3999 26.2267C27.2932 28.08 25.2665 29.3334 22.9332 29.3334C20.5999 29.3334 18.5599 28.08 17.4665 26.2267C16.8799 25.2667 16.5332 24.1334 16.5332 22.9334C16.5332 19.4 19.3999 16.5334 22.9332 16.5334C26.4665 16.5334 29.3332 19.4 29.3332 22.9334Z" stroke="#E58620" stroke-width="1.5" stroke-miterlimit="10" stroke-linecap="round" stroke-linejoin="round"/>
<path d="M20.4399 22.9334L22.0133 24.5067L25.4266 21.36" stroke="#E58620" stroke-width="1.5" stroke-linecap="round" stroke-linejoin="round"/>
<path d="M29.3332 11.5867C29.3332 14.2133 28.6532 16.5333 27.5865 18.5466C26.4132 17.3066 24.7598 16.5334 22.9332 16.5334C19.3998 16.5334 16.5332 19.4 16.5332 22.9333C16.5332 24.5733 17.1598 26.0667 18.1732 27.2C17.6798 27.4267 17.2265 27.6133 16.8265 27.7467C16.3732 27.9067 15.6265 27.9067 15.1732 27.7467C11.3065 26.4267 2.6665 20.92 2.6665 11.5867C2.6665 7.46667 5.98651 4.1333 10.0798 4.1333C12.4932 4.1333 14.6532 5.30669 15.9998 7.10669C17.3465 5.30669 19.5065 4.1333 21.9198 4.1333C26.0132 4.1333 29.3332 7.46667 29.3332 11.5867Z" stroke="#E58620" stroke-width="1.5" stroke-linecap="round" stroke-linejoin="round"/>
</svg>
