<svg width="14" height="18" viewBox="0 0 14 18" fill="none" xmlns="http://www.w3.org/2000/svg">
<path id="Vector" d="M6.99992 9.83329C6.74621 9.83033 6.49768 9.90516 6.28779 10.0477C6.07789 10.1903 5.91671 10.3937 5.82593 10.6306C5.73515 10.8676 5.71914 11.1266 5.78004 11.3729C5.84095 11.6192 5.97585 11.841 6.16659 12.0083V13.1666C6.16659 13.3876 6.25438 13.5996 6.41066 13.7559C6.56694 13.9122 6.77891 14 6.99992 14C7.22093 14 7.43289 13.9122 7.58917 13.7559C7.74545 13.5996 7.83325 13.3876 7.83325 13.1666V12.0083C8.02399 11.841 8.15889 11.6192 8.2198 11.3729C8.2807 11.1266 8.26469 10.8676 8.17391 10.6306C8.08313 10.3937 7.92195 10.1903 7.71205 10.0477C7.50216 9.90516 7.25363 9.83033 6.99992 9.83329ZM11.1666 6.49996V4.83329C11.1666 3.72822 10.7276 2.66842 9.9462 1.88701C9.1648 1.10561 8.10499 0.666626 6.99992 0.666626C5.89485 0.666626 4.83504 1.10561 4.05364 1.88701C3.27224 2.66842 2.83325 3.72822 2.83325 4.83329V6.49996C2.17021 6.49996 1.53433 6.76335 1.06549 7.23219C0.596644 7.70103 0.333252 8.33692 0.333252 8.99996V14.8333C0.333252 15.4963 0.596644 16.1322 1.06549 16.6011C1.53433 17.0699 2.17021 17.3333 2.83325 17.3333H11.1666C11.8296 17.3333 12.4655 17.0699 12.9344 16.6011C13.4032 16.1322 13.6666 15.4963 13.6666 14.8333V8.99996C13.6666 8.33692 13.4032 7.70103 12.9344 7.23219C12.4655 6.76335 11.8296 6.49996 11.1666 6.49996ZM4.49992 4.83329C4.49992 4.17025 4.76331 3.53437 5.23215 3.06553C5.70099 2.59668 6.33688 2.33329 6.99992 2.33329C7.66296 2.33329 8.29885 2.59668 8.76769 3.06553C9.23653 3.53437 9.49992 4.17025 9.49992 4.83329V6.49996H4.49992V4.83329ZM11.9999 14.8333C11.9999 15.0543 11.9121 15.2663 11.7558 15.4225C11.5996 15.5788 11.3876 15.6666 11.1666 15.6666H2.83325C2.61224 15.6666 2.40028 15.5788 2.244 15.4225C2.08772 15.2663 1.99992 15.0543 1.99992 14.8333V8.99996C1.99992 8.77895 2.08772 8.56698 2.244 8.4107C2.40028 8.25442 2.61224 8.16663 2.83325 8.16663H11.1666C11.3876 8.16663 11.5996 8.25442 11.7558 8.4107C11.9121 8.56698 11.9999 8.77895 11.9999 8.99996V14.8333Z" fill="black"/>
</svg>
