<svg width="763" height="685" viewBox="0 0 763 685" fill="none" xmlns="http://www.w3.org/2000/svg">
<path d="M3.1921 288.439C3.56992 287.04 -4.17543 283.043 3.1921 275.448C10.5596 267.654 4.13663 256.663 4.70336 251.267C5.2701 245.871 9.04834 237.877 12.0709 237.278C14.9046 236.878 15.4713 247.47 21.3275 245.471C26.9949 243.473 19.8163 236.079 25.1058 231.682C30.3953 227.285 42.2967 226.286 50.7977 215.694C59.2987 204.902 60.621 206.301 73.6559 206.701C86.6908 207.101 93.6805 197.308 100.292 198.307C106.904 199.307 106.715 190.913 118.428 190.314C130.14 189.714 138.452 186.716 148.276 177.523C158.099 168.53 155.266 164.134 160.555 167.531C165.845 170.928 173.212 149.545 169.245 149.345C165.278 149.145 161.122 142.15 165.278 139.752C169.245 137.554 167.167 130.16 173.023 126.962C178.879 123.764 185.302 118.369 185.869 122.366C186.436 126.362 185.869 133.157 190.781 138.153C195.692 143.15 198.148 142.75 199.66 139.752C201.171 136.755 198.526 131.958 199.66 129.36C200.793 126.762 193.048 115.571 198.715 115.371C204.382 115.171 211.372 118.369 216.473 115.371C221.762 112.373 215.528 108.576 216.473 104.379C217.417 100.182 214.395 94.3869 221.951 93.9872C229.508 93.7874 227.807 97.7843 229.696 87.3923C231.586 77.0002 231.586 75.0018 236.875 75.0018C242.165 75.0018 243.676 62.0117 250.477 62.6112C257.089 63.4106 257.089 67.4076 266.912 68.4068C276.735 69.406 279.758 80.7973 278.058 80.3976C276.358 80.1978 278.624 86.5929 278.436 89.3908C278.247 92.1886 281.647 92.5883 283.536 90.1902C285.425 87.5921 287.314 86.1932 291.093 86.9926C294.871 87.792 299.971 92.5883 305.828 90.5898C311.684 88.5914 309.606 85.3938 309.606 82.3961C309.606 79.3984 308.472 74.6021 305.639 72.8034C302.805 71.0048 303.75 66.2085 308.661 64.21C313.573 62.2115 310.173 50.4205 315.462 51.0201C320.941 51.6196 318.485 46.0239 319.807 42.027C321.129 38.03 323.774 39.0293 334.542 37.0308C345.31 35.0323 348.333 30.236 356.834 31.0354C365.335 31.8348 367.035 33.2337 366.846 25.04C366.657 16.8462 368.357 17.8454 363.823 15.4473C359.29 13.249 354.567 9.45187 356.078 6.85386C357.589 4.25585 358.534 11.0506 364.201 12.4496C369.869 13.8485 372.702 14.0484 375.158 16.6464C377.614 19.4442 379.125 21.4427 387.059 20.8432C394.805 20.2436 392.349 24.8401 398.016 26.8386C403.684 28.8371 410.296 34.6326 418.608 31.6349C426.92 28.6372 430.32 26.0392 432.776 30.0361C435.421 34.0331 436.743 30.236 441.088 31.2352C445.433 32.2344 445.055 37.0308 441.088 39.8286C437.121 42.6265 439.388 47.8225 436.743 49.821C434.098 51.8195 432.965 46.6234 429.187 47.0231C425.408 47.6227 418.796 50.6204 423.897 56.0163C429.187 61.612 429.376 62.8111 425.786 65.0094C422.197 67.2077 411.051 79.7981 416.907 83.5952C422.764 87.3923 436.554 95.586 438.443 101.182C440.332 106.777 442.221 104.379 450.722 108.376C459.223 112.373 463.757 120.767 469.047 122.765C474.336 124.764 483.593 123.365 489.071 132.758C494.55 142.35 514.574 143.35 519.675 135.955C524.965 128.761 526.854 119.368 530.821 117.17C534.788 114.971 527.798 99.583 533.277 92.5883C538.755 85.5937 536.11 80.1978 536.299 72.4037C536.488 64.6097 529.687 60.4129 533.465 55.6166C537.244 50.8202 533.843 46.6235 536.677 42.6265C539.511 38.6296 541.967 39.6288 542.722 38.8294C543.478 38.03 535.166 33.8332 538.188 29.8363C541.211 25.8393 540.644 26.6387 542.722 18.0453C544.8 9.45187 552.734 -3.33836 554.624 2.45721C556.513 8.25278 555.379 12.0499 558.402 17.8455C561.424 23.641 566.714 27.638 564.636 33.6334C562.558 39.6288 570.87 39.6288 570.114 48.2222C569.359 56.8157 570.681 76.2008 576.915 76.6005C583.338 77.2001 586.172 68.4068 590.139 74.8019C594.106 81.3969 606.763 81.7966 605.818 90.39C604.874 98.9834 599.584 116.77 608.652 121.966C617.72 127.162 613.375 128.561 617.909 136.755C622.443 144.948 615.831 140.352 617.909 150.144C619.987 159.937 627.921 155.74 623.387 163.134C618.853 170.729 629.055 173.127 633.211 174.925C637.178 176.724 646.434 176.724 647.001 182.12C647.568 187.716 649.646 191.113 659.091 192.912C668.537 194.91 669.481 196.709 668.159 201.905C666.648 207.101 686.295 229.883 688.184 239.076C690.073 248.269 703.108 242.873 704.808 255.064C706.508 267.455 718.032 275.648 729.744 286.24C741.457 296.832 738.056 292.835 740.134 300.829C742.212 308.823 752.791 313.619 751.091 321.613C749.391 329.607 752.036 348.593 756.57 358.985C761.103 369.577 764.126 380.768 760.159 383.166C756.192 385.564 762.615 393.958 756.57 403.351C750.713 412.744 750.713 429.531 750.147 435.726C749.58 441.921 744.29 438.524 741.834 448.716C739.379 458.908 734.656 465.503 729.933 472.098C725.21 478.693 725.21 488.086 719.921 488.885C714.631 489.685 715.387 489.885 715.954 497.679C716.52 505.473 704.808 515.065 705.941 523.259C707.075 531.453 705.752 542.844 700.085 550.438C694.418 558.032 690.073 573.82 690.828 581.614C691.584 589.408 686.106 596.003 681.383 597.602C676.66 599.401 670.426 601.799 659.469 601.799C648.512 601.799 645.868 611.392 639.067 615.788C632.266 620.385 624.332 615.588 619.609 622.783C614.886 629.977 607.33 616.788 610.352 613.79C613.375 610.792 604.496 608.994 600.34 610.592C596.184 612.191 597.695 604.997 601.096 602.399C604.496 599.601 594.484 597.602 591.65 602.598C588.816 607.595 592.784 611.592 586.738 615.389C580.504 619.186 576.726 624.182 573.515 624.981C570.114 625.781 567.281 622.783 557.646 618.986C547.823 615.189 543.856 608.194 533.277 609.993C522.509 611.791 520.431 607.195 511.363 601.999C502.295 596.803 494.739 581.215 499.65 576.818C504.562 572.621 499.084 556.434 493.416 552.437C487.749 548.44 478.492 542.644 474.714 542.444C470.936 542.245 471.125 534.451 476.225 529.654C481.137 524.858 475.092 525.657 474.714 516.664C474.525 507.671 472.636 510.469 467.913 512.068C463.191 513.866 466.78 520.861 463.38 525.857C459.979 530.853 458.09 531.053 453.367 531.653C448.644 532.252 446.944 538.847 444.3 538.447C441.655 537.848 440.521 530.653 447.889 529.055C455.256 527.456 456.768 525.258 457.901 517.463C459.035 509.669 455.067 508.47 460.546 502.675C466.024 496.879 466.969 493.881 466.402 490.684C465.835 487.486 460.168 479.293 456.012 485.688C451.667 491.883 454.501 493.482 448.833 496.679C443.166 499.877 441.277 491.683 436.554 503.874C431.831 516.065 432.776 521.66 424.842 520.661C417.096 519.662 417.663 507.071 413.129 500.077C408.595 493.082 398.583 490.484 401.228 481.891C403.873 473.297 393.105 460.107 382.526 459.308C371.758 458.509 367.602 460.307 360.423 455.311C353.244 450.315 345.31 445.518 337.187 446.518C329.064 447.517 298.649 447.117 289.392 451.114C280.136 455.111 273.524 462.505 261.622 462.705C249.721 462.905 237.253 459.708 231.397 465.503C225.54 471.299 223.651 478.893 210.616 479.093C197.582 479.293 207.216 500.676 189.647 501.875C172.079 503.074 176.424 511.868 160.177 506.072C144.12 500.277 130.707 503.474 123.151 504.873C115.594 506.072 120.506 521.261 112.194 518.463C103.882 515.665 100.481 517.663 93.6805 522.46C86.8797 527.256 68.1775 531.453 56.0872 524.258C43.9969 517.064 45.886 518.663 37.9517 515.665C30.2064 512.667 24.728 496.28 32.4733 494.881C40.2187 493.282 41.3521 495.88 41.7299 490.084C42.2967 484.289 39.0852 476.495 46.2638 471.499C53.4424 466.502 45.1304 457.509 44.1858 451.714C43.2412 445.918 31.3398 434.727 32.2844 415.941C33.2289 397.355 34.1735 394.158 29.2618 387.962C24.3501 381.967 25.8614 376.971 24.3501 370.376C22.6499 363.781 15.4713 368.777 13.5822 356.586C11.6931 344.196 -2.85307 329.407 1.49188 328.608C5.83684 327.808 7.15922 334.803 9.61506 328.008C12.0709 321.214 8.48159 315.618 13.2044 319.815C17.9271 323.812 15.6602 328.408 17.9271 323.812C20.383 319.215 14.1489 312.22 13.96 307.024C13.2044 303.227 3.1921 288.439 3.1921 288.439Z" stroke="#E58620" stroke-opacity="0.5" stroke-miterlimit="10" stroke-dasharray="8 8"/>
<path d="M595.067 646.628C595.067 646.628 590.763 642.078 592.789 641.007C594.687 639.936 597.219 637.929 602.156 642.345C607.093 646.896 610.638 650.375 618.233 647.699C625.829 645.022 632.665 636.724 636.083 643.015C639.501 649.305 639.247 642.345 637.982 650.911C636.716 659.476 646.21 654.524 640.134 660.279C633.931 666.168 634.564 668.175 632.032 674.867C629.5 681.558 623.803 680.086 620.132 682.897C616.588 685.841 613.17 685.841 609.752 681.96C606.334 677.945 595.32 670.986 598.991 668.175C602.536 665.365 604.055 663.893 600.257 656.933C596.46 649.974 595.067 646.628 595.067 646.628Z" stroke="#E58620" stroke-opacity="0.5" stroke-miterlimit="10" stroke-dasharray="8 8"/>
<path d="M545.103 523.26C545.103 525.152 543.671 526.666 541.88 526.666C540.09 526.666 538.657 525.152 538.657 523.26C538.657 521.368 540.09 519.854 541.88 519.854C543.671 519.854 545.103 521.368 545.103 523.26Z" fill="white" fill-opacity="0.5"/>
<path d="M188.014 325.7C188.014 327.593 186.581 329.107 184.791 329.107C183 329.107 181.568 327.593 181.568 325.7C181.568 323.808 183 322.294 184.791 322.294C186.581 322.294 188.014 323.808 188.014 325.7Z" fill="white" fill-opacity="0.5"/>
<path d="M365.913 222.152C365.913 224.044 364.481 225.558 362.69 225.558C360.9 225.558 359.468 224.044 359.468 222.152C359.468 220.259 360.9 218.746 362.69 218.746C364.481 218.746 365.913 220.314 365.913 222.152Z" fill="white" fill-opacity="0.5"/>
<path d="M387.829 403.362C387.829 405.254 386.396 406.768 384.606 406.768C382.815 406.768 381.383 405.254 381.383 403.362C381.383 401.47 382.815 399.956 384.606 399.956C386.396 399.956 387.829 401.47 387.829 403.362Z" fill="white" fill-opacity="0.5"/>
<path d="M548.97 276.651C548.97 278.543 547.537 280.057 545.747 280.057C543.956 280.057 542.524 278.543 542.524 276.651C542.524 274.759 543.956 273.245 545.747 273.245C547.537 273.245 548.97 274.813 548.97 276.651Z" fill="white" fill-opacity="0.5"/>
<path d="M608.271 389.736C608.271 391.629 606.839 393.143 605.048 393.143C603.258 393.143 601.825 391.629 601.825 389.736C601.825 387.844 603.258 386.33 605.048 386.33C606.839 386.33 608.271 387.844 608.271 389.736Z" fill="white" fill-opacity="0.5"/>
<path d="M512.358 495.511L516.134 506.827H516.283L520.059 495.511H521.673L517.003 508.953H515.413L510.743 495.511H512.358Z" fill="white" fill-opacity="0.5"/>
<path d="M523.456 508.953V498.872H524.921V508.953H523.456ZM524.201 497.192C523.915 497.192 523.669 497.089 523.462 496.883C523.259 496.677 523.158 496.43 523.158 496.141C523.158 495.853 523.259 495.605 523.462 495.4C523.669 495.194 523.915 495.091 524.201 495.091C524.486 495.091 524.731 495.194 524.934 495.4C525.141 495.605 525.244 495.853 525.244 496.141C525.244 496.43 525.141 496.677 524.934 496.883C524.731 497.089 524.486 497.192 524.201 497.192Z" fill="white" fill-opacity="0.5"/>
<path d="M531.481 509.163C530.586 509.163 529.816 508.94 529.171 508.494C528.525 508.048 528.028 507.433 527.68 506.65C527.332 505.866 527.158 504.972 527.158 503.965C527.158 502.941 527.336 502.038 527.692 501.254C528.053 500.467 528.554 499.852 529.195 499.41C529.841 498.964 530.595 498.741 531.456 498.741C532.127 498.741 532.731 498.872 533.269 499.134C533.807 499.397 534.248 499.764 534.592 500.237C534.936 500.71 535.149 501.261 535.232 501.891H533.766C533.654 501.432 533.406 501.025 533.021 500.67C532.64 500.311 532.127 500.132 531.481 500.132C530.909 500.132 530.408 500.29 529.978 500.605C529.551 500.915 529.218 501.355 528.978 501.924C528.742 502.488 528.624 503.151 528.624 503.913C528.624 504.692 528.74 505.37 528.972 505.947C529.208 506.525 529.539 506.973 529.965 507.293C530.396 507.612 530.901 507.772 531.481 507.772C531.862 507.772 532.207 507.702 532.518 507.562C532.828 507.422 533.091 507.221 533.306 506.958C533.522 506.696 533.675 506.381 533.766 506.013H535.232C535.149 506.608 534.944 507.144 534.617 507.621C534.294 508.094 533.865 508.47 533.331 508.75C532.801 509.026 532.185 509.163 531.481 509.163Z" fill="white" fill-opacity="0.5"/>
<path d="M541.523 498.872V500.185H536.579V498.872H541.523ZM538.02 496.456H539.486V506.065C539.486 506.503 539.546 506.831 539.666 507.05C539.79 507.264 539.947 507.409 540.138 507.483C540.332 507.553 540.537 507.588 540.752 507.588C540.914 507.588 541.046 507.579 541.15 507.562C541.253 507.54 541.336 507.523 541.398 507.509L541.696 508.901C541.597 508.94 541.458 508.98 541.28 509.019C541.102 509.063 540.877 509.085 540.603 509.085C540.189 509.085 539.784 508.991 539.386 508.802C538.993 508.614 538.666 508.328 538.405 507.943C538.148 507.558 538.02 507.072 538.02 506.486V496.456Z" fill="white" fill-opacity="0.5"/>
<path d="M547.5 509.163C546.639 509.163 545.883 508.947 545.233 508.514C544.587 508.08 544.082 507.474 543.718 506.696C543.358 505.917 543.178 505.007 543.178 503.965C543.178 502.915 543.358 501.998 543.718 501.215C544.082 500.432 544.587 499.824 545.233 499.39C545.883 498.957 546.639 498.741 547.5 498.741C548.361 498.741 549.114 498.957 549.76 499.39C550.41 499.824 550.915 500.432 551.276 501.215C551.64 501.998 551.822 502.915 551.822 503.965C551.822 505.007 551.64 505.917 551.276 506.696C550.915 507.474 550.41 508.08 549.76 508.514C549.114 508.947 548.361 509.163 547.5 509.163ZM547.5 507.772C548.154 507.772 548.692 507.595 549.115 507.24C549.537 506.886 549.849 506.42 550.052 505.842C550.255 505.265 550.357 504.639 550.357 503.965C550.357 503.291 550.255 502.663 550.052 502.081C549.849 501.499 549.537 501.029 549.115 500.67C548.692 500.311 548.154 500.132 547.5 500.132C546.846 500.132 546.307 500.311 545.885 500.67C545.463 501.029 545.15 501.499 544.947 502.081C544.745 502.663 544.643 503.291 544.643 503.965C544.643 504.639 544.745 505.265 544.947 505.842C545.15 506.42 545.463 506.886 545.885 507.24C546.307 507.595 546.846 507.772 547.5 507.772Z" fill="white" fill-opacity="0.5"/>
<path d="M558.208 498.872V500.185H553.264V498.872H558.208ZM554.705 496.456H556.171V506.065C556.171 506.503 556.231 506.831 556.351 507.05C556.475 507.264 556.632 507.409 556.823 507.483C557.017 507.553 557.222 507.588 557.438 507.588C557.599 507.588 557.732 507.579 557.835 507.562C557.939 507.54 558.021 507.523 558.084 507.509L558.382 508.901C558.282 508.94 558.144 508.98 557.966 509.019C557.788 509.063 557.562 509.085 557.289 509.085C556.875 509.085 556.469 508.991 556.071 508.802C555.678 508.614 555.351 508.328 555.09 507.943C554.834 507.558 554.705 507.072 554.705 506.486V496.456Z" fill="white" fill-opacity="0.5"/>
<path d="M560.412 508.953V498.872H561.878V508.953H560.412ZM561.158 497.192C560.872 497.192 560.626 497.089 560.419 496.883C560.216 496.677 560.114 496.43 560.114 496.141C560.114 495.853 560.216 495.605 560.419 495.4C560.626 495.194 560.872 495.091 561.158 495.091C561.443 495.091 561.687 495.194 561.89 495.4C562.097 495.605 562.201 495.853 562.201 496.141C562.201 496.43 562.097 496.677 561.89 496.883C561.687 497.089 561.443 497.192 561.158 497.192Z" fill="white" fill-opacity="0.5"/>
<path d="M567.369 509.19C566.765 509.19 566.216 509.069 565.724 508.829C565.231 508.584 564.84 508.231 564.55 507.772C564.26 507.308 564.115 506.748 564.115 506.092C564.115 505.514 564.223 505.046 564.438 504.687C564.653 504.324 564.941 504.04 565.301 503.834C565.661 503.628 566.059 503.475 566.494 503.374C566.933 503.269 567.373 503.186 567.816 503.125C568.396 503.046 568.866 502.987 569.226 502.948C569.59 502.904 569.855 502.832 570.021 502.731C570.191 502.631 570.276 502.456 570.276 502.206V502.154C570.276 501.506 570.108 501.003 569.773 500.644C569.441 500.285 568.938 500.106 568.264 500.106C567.564 500.106 567.015 500.268 566.618 500.591C566.22 500.915 565.941 501.261 565.779 501.628L564.388 501.103C564.637 500.491 564.968 500.014 565.382 499.673C565.8 499.327 566.256 499.086 566.748 498.951C567.245 498.811 567.734 498.741 568.214 498.741C568.52 498.741 568.872 498.78 569.27 498.859C569.671 498.933 570.058 499.088 570.431 499.325C570.808 499.561 571.12 499.918 571.369 500.395C571.617 500.872 571.741 501.51 571.741 502.311V508.953H570.276V507.588H570.201C570.102 507.807 569.936 508.041 569.704 508.29C569.473 508.54 569.164 508.752 568.779 508.927C568.394 509.102 567.924 509.19 567.369 509.19ZM567.593 507.798C568.172 507.798 568.661 507.678 569.058 507.437C569.46 507.197 569.762 506.886 569.965 506.505C570.172 506.125 570.276 505.724 570.276 505.304V503.886C570.214 503.965 570.077 504.037 569.866 504.103C569.659 504.164 569.419 504.219 569.145 504.267C568.876 504.311 568.613 504.35 568.357 504.385C568.104 504.416 567.899 504.442 567.742 504.464C567.361 504.516 567.005 504.602 566.674 504.72C566.347 504.834 566.082 505.007 565.879 505.238C565.68 505.466 565.581 505.777 565.581 506.17C565.581 506.709 565.769 507.116 566.146 507.391C566.527 507.663 567.009 507.798 567.593 507.798Z" fill="white" fill-opacity="0.5"/>
<path d="M132.551 299.503V311.394H131.233L125.102 302.058H124.992V311.394H123.63V299.503H124.948L131.101 308.862H131.211V299.503H132.551Z" fill="white" fill-opacity="0.5"/>
<path d="M138.53 311.58C137.768 311.58 137.099 311.388 136.524 311.005C135.953 310.622 135.506 310.086 135.184 309.397C134.865 308.708 134.706 307.902 134.706 306.981C134.706 306.052 134.865 305.241 135.184 304.548C135.506 303.856 135.953 303.318 136.524 302.934C137.099 302.551 137.768 302.36 138.53 302.36C139.291 302.36 139.958 302.551 140.529 302.934C141.104 303.318 141.551 303.856 141.87 304.548C142.192 305.241 142.353 306.052 142.353 306.981C142.353 307.902 142.192 308.708 141.87 309.397C141.551 310.086 141.104 310.622 140.529 311.005C139.958 311.388 139.291 311.58 138.53 311.58ZM138.53 310.349C139.108 310.349 139.584 310.192 139.958 309.878C140.331 309.565 140.608 309.153 140.787 308.642C140.967 308.131 141.057 307.577 141.057 306.981C141.057 306.385 140.967 305.83 140.787 305.315C140.608 304.8 140.331 304.384 139.958 304.067C139.584 303.749 139.108 303.59 138.53 303.59C137.951 303.59 137.475 303.749 137.101 304.067C136.728 304.384 136.451 304.8 136.272 305.315C136.092 305.83 136.003 306.385 136.003 306.981C136.003 307.577 136.092 308.131 136.272 308.642C136.451 309.153 136.728 309.565 137.101 309.878C137.475 310.192 137.951 310.349 138.53 310.349Z" fill="white" fill-opacity="0.5"/>
<path d="M144.332 311.394V302.476H145.584V303.823H145.672C145.826 303.381 146.105 303.023 146.507 302.749C146.91 302.474 147.364 302.336 147.87 302.336C147.965 302.336 148.084 302.338 148.227 302.342C148.37 302.346 148.478 302.352 148.551 302.36V303.753C148.507 303.741 148.406 303.724 148.249 303.701C148.095 303.674 147.932 303.66 147.76 303.66C147.35 303.66 146.983 303.751 146.661 303.933C146.343 304.111 146.09 304.359 145.903 304.676C145.72 304.99 145.628 305.348 145.628 305.75V311.394H144.332Z" fill="white" fill-opacity="0.5"/>
<path d="M154.286 302.476V303.637H149.913V302.476H154.286ZM151.188 300.339H152.484V308.839C152.484 309.226 152.537 309.517 152.644 309.71C152.753 309.9 152.893 310.027 153.061 310.093C153.233 310.155 153.415 310.186 153.605 310.186C153.748 310.186 153.865 310.178 153.957 310.163C154.048 310.144 154.121 310.128 154.176 310.116L154.44 311.347C154.352 311.382 154.229 311.417 154.072 311.452C153.914 311.491 153.715 311.51 153.473 311.51C153.107 311.51 152.748 311.427 152.396 311.26C152.048 311.094 151.759 310.84 151.528 310.5C151.301 310.159 151.188 309.729 151.188 309.211V300.339Z" fill="white" fill-opacity="0.5"/>
<path d="M157.714 306.029V311.394H156.418V299.503H157.714V303.869H157.824C158.022 303.409 158.318 303.043 158.714 302.772C159.113 302.497 159.644 302.36 160.307 302.36C160.882 302.36 161.386 302.482 161.818 302.725C162.25 302.965 162.585 303.335 162.823 303.834C163.065 304.33 163.186 304.961 163.186 305.727V311.394H161.889V305.82C161.889 305.112 161.715 304.564 161.367 304.177C161.023 303.786 160.545 303.59 159.933 303.59C159.509 303.59 159.128 303.685 158.791 303.875C158.458 304.065 158.194 304.341 158 304.705C157.809 305.069 157.714 305.51 157.714 306.029Z" fill="white" fill-opacity="0.5"/>
<path d="M169.095 311.58C168.282 311.58 167.581 311.39 166.991 311.011C166.405 310.627 165.953 310.093 165.634 309.408C165.319 308.719 165.162 307.918 165.162 307.004C165.162 306.091 165.319 305.286 165.634 304.589C165.953 303.889 166.396 303.343 166.964 302.952C167.535 302.557 168.202 302.36 168.963 302.36C169.403 302.36 169.837 302.437 170.265 302.592C170.694 302.747 171.084 302.998 171.435 303.347C171.787 303.691 172.067 304.148 172.276 304.717C172.485 305.286 172.589 305.986 172.589 306.819V307.399H166.085V306.215H171.271C171.271 305.712 171.175 305.263 170.985 304.868C170.798 304.473 170.531 304.161 170.183 303.933C169.839 303.705 169.432 303.59 168.963 303.59C168.447 303.59 168 303.726 167.623 303.997C167.249 304.264 166.962 304.612 166.76 305.042C166.559 305.472 166.458 305.932 166.458 306.424V307.213C166.458 307.887 166.568 308.458 166.788 308.926C167.011 309.391 167.321 309.745 167.716 309.989C168.112 310.229 168.571 310.349 169.095 310.349C169.436 310.349 169.743 310.298 170.018 310.198C170.296 310.093 170.536 309.938 170.738 309.733C170.939 309.524 171.095 309.265 171.205 308.955L172.457 309.327C172.325 309.776 172.104 310.171 171.792 310.511C171.481 310.848 171.097 311.111 170.639 311.301C170.181 311.487 169.666 311.58 169.095 311.58Z" fill="white" fill-opacity="0.5"/>
<path d="M174.561 311.394V302.476H175.814V303.823H175.902C176.055 303.381 176.334 303.023 176.737 302.749C177.139 302.474 177.594 302.336 178.099 302.336C178.194 302.336 178.313 302.338 178.456 302.342C178.599 302.346 178.707 302.352 178.78 302.36V303.753C178.736 303.741 178.635 303.724 178.478 303.701C178.324 303.674 178.161 303.66 177.989 303.66C177.579 303.66 177.213 303.751 176.89 303.933C176.572 304.111 176.319 304.359 176.132 304.676C175.949 304.99 175.858 305.348 175.858 305.75V311.394H174.561Z" fill="white" fill-opacity="0.5"/>
<path d="M181.613 306.029V311.394H180.317V302.476H181.569V303.869H181.679C181.877 303.416 182.177 303.052 182.58 302.778C182.983 302.499 183.503 302.36 184.14 302.36C184.712 302.36 185.212 302.483 185.64 302.731C186.069 302.975 186.402 303.347 186.64 303.846C186.878 304.341 186.997 304.968 186.997 305.727V311.394H185.7V305.82C185.7 305.119 185.528 304.574 185.184 304.183C184.84 303.788 184.367 303.59 183.767 303.59C183.353 303.59 182.983 303.685 182.657 303.875C182.335 304.065 182.08 304.341 181.894 304.705C181.707 305.069 181.613 305.51 181.613 306.029Z" fill="white" fill-opacity="0.5"/>
<path d="M193.036 302.476V303.637H188.663V302.476H193.036ZM189.937 300.339H191.234V308.839C191.234 309.226 191.287 309.517 191.393 309.71C191.503 309.9 191.642 310.027 191.811 310.093C191.983 310.155 192.164 310.186 192.354 310.186C192.497 310.186 192.614 310.178 192.706 310.163C192.798 310.144 192.871 310.128 192.926 310.116L193.189 311.347C193.102 311.382 192.979 311.417 192.821 311.452C192.664 311.491 192.464 311.51 192.223 311.51C191.856 311.51 191.497 311.427 191.146 311.26C190.798 311.094 190.509 310.84 190.278 310.5C190.051 310.159 189.937 309.729 189.937 309.211V300.339Z" fill="white" fill-opacity="0.5"/>
<path d="M198.433 311.58C197.62 311.58 196.919 311.39 196.329 311.011C195.743 310.627 195.291 310.093 194.972 309.408C194.657 308.719 194.5 307.918 194.5 307.004C194.5 306.091 194.657 305.286 194.972 304.589C195.291 303.889 195.734 303.343 196.301 302.952C196.873 302.557 197.539 302.36 198.301 302.36C198.741 302.36 199.175 302.437 199.603 302.592C200.032 302.747 200.422 302.998 200.773 303.347C201.125 303.691 201.405 304.148 201.614 304.717C201.822 305.286 201.927 305.986 201.927 306.819V307.399H195.423V306.215H200.608C200.608 305.712 200.513 305.263 200.323 304.868C200.136 304.473 199.869 304.161 199.521 303.933C199.176 303.705 198.77 303.59 198.301 303.59C197.785 303.59 197.338 303.726 196.961 303.997C196.587 304.264 196.3 304.612 196.098 305.042C195.897 305.472 195.796 305.932 195.796 306.424V307.213C195.796 307.887 195.906 308.458 196.126 308.926C196.349 309.391 196.659 309.745 197.054 309.989C197.45 310.229 197.909 310.349 198.433 310.349C198.774 310.349 199.081 310.298 199.356 310.198C199.634 310.093 199.874 309.938 200.076 309.733C200.277 309.524 200.433 309.265 200.542 308.955L201.795 309.327C201.663 309.776 201.442 310.171 201.13 310.511C200.819 310.848 200.434 311.111 199.977 311.301C199.519 311.487 199.004 311.58 198.433 311.58Z" fill="white" fill-opacity="0.5"/>
<path d="M203.899 311.394V302.476H205.151V303.823H205.239C205.393 303.381 205.672 303.023 206.074 302.749C206.477 302.474 206.931 302.336 207.437 302.336C207.532 302.336 207.651 302.338 207.794 302.342C207.937 302.346 208.045 302.352 208.118 302.36V303.753C208.074 303.741 207.973 303.724 207.816 303.701C207.662 303.674 207.499 303.66 207.327 303.66C206.917 303.66 206.55 303.751 206.228 303.933C205.91 304.111 205.657 304.359 205.47 304.676C205.287 304.99 205.195 305.348 205.195 305.75V311.394H203.899Z" fill="white" fill-opacity="0.5"/>
<path d="M209.655 311.394V302.476H210.907V303.823H210.995C211.149 303.381 211.427 303.023 211.83 302.749C212.233 302.474 212.687 302.336 213.193 302.336C213.288 302.336 213.407 302.338 213.55 302.342C213.692 302.346 213.8 302.352 213.874 302.36V303.753C213.83 303.741 213.729 303.724 213.572 303.701C213.418 303.674 213.255 303.66 213.083 303.66C212.672 303.66 212.306 303.751 211.984 303.933C211.665 304.111 211.413 304.359 211.226 304.676C211.043 304.99 210.951 305.348 210.951 305.75V311.394H209.655Z" fill="white" fill-opacity="0.5"/>
<path d="M215.41 311.394V302.476H216.707V311.394H215.41ZM216.07 300.989C215.817 300.989 215.599 300.898 215.416 300.717C215.237 300.535 215.147 300.316 215.147 300.06C215.147 299.805 215.237 299.586 215.416 299.404C215.599 299.222 215.817 299.131 216.07 299.131C216.322 299.131 216.538 299.222 216.718 299.404C216.901 299.586 216.993 299.805 216.993 300.06C216.993 300.316 216.901 300.535 216.718 300.717C216.538 300.898 216.322 300.989 216.07 300.989Z" fill="white" fill-opacity="0.5"/>
<path d="M222.751 302.476V303.637H218.378V302.476H222.751ZM219.653 300.339H220.949V308.839C220.949 309.226 221.002 309.517 221.109 309.71C221.218 309.9 221.358 310.027 221.526 310.093C221.698 310.155 221.88 310.186 222.07 310.186C222.213 310.186 222.33 310.178 222.422 310.163C222.513 310.144 222.586 310.128 222.641 310.116L222.905 311.347C222.817 311.382 222.694 311.417 222.537 311.452C222.379 311.491 222.18 311.51 221.938 311.51C221.572 311.51 221.213 311.427 220.861 311.26C220.513 311.094 220.224 310.84 219.993 310.5C219.766 310.159 219.653 309.729 219.653 309.211V300.339Z" fill="white" fill-opacity="0.5"/>
<path d="M228.039 311.58C227.277 311.58 226.608 311.388 226.033 311.005C225.462 310.622 225.015 310.086 224.693 309.397C224.374 308.708 224.215 307.902 224.215 306.981C224.215 306.052 224.374 305.241 224.693 304.548C225.015 303.856 225.462 303.318 226.033 302.934C226.608 302.551 227.277 302.36 228.039 302.36C228.8 302.36 229.467 302.551 230.038 302.934C230.613 303.318 231.06 303.856 231.379 304.548C231.701 305.241 231.862 306.052 231.862 306.981C231.862 307.902 231.701 308.708 231.379 309.397C231.06 310.086 230.613 310.622 230.038 311.005C229.467 311.388 228.8 311.58 228.039 311.58ZM228.039 310.349C228.617 310.349 229.093 310.192 229.467 309.878C229.84 309.565 230.117 309.153 230.296 308.642C230.476 308.131 230.566 307.577 230.566 306.981C230.566 306.385 230.476 305.83 230.296 305.315C230.117 304.8 229.84 304.384 229.467 304.067C229.093 303.749 228.617 303.59 228.039 303.59C227.46 303.59 226.984 303.749 226.61 304.067C226.237 304.384 225.96 304.8 225.781 305.315C225.601 305.83 225.512 306.385 225.512 306.981C225.512 307.577 225.601 308.131 225.781 308.642C225.96 309.153 226.237 309.565 226.61 309.878C226.984 310.192 227.46 310.349 228.039 310.349Z" fill="white" fill-opacity="0.5"/>
<path d="M233.841 311.394V302.476H235.094V303.823H235.181C235.335 303.381 235.614 303.023 236.016 302.749C236.419 302.474 236.873 302.336 237.379 302.336C237.474 302.336 237.593 302.338 237.736 302.342C237.879 302.346 237.987 302.352 238.06 302.36V303.753C238.016 303.741 237.915 303.724 237.758 303.701C237.604 303.674 237.441 303.66 237.269 303.66C236.859 303.66 236.493 303.751 236.17 303.933C235.852 304.111 235.599 304.359 235.412 304.676C235.229 304.99 235.138 305.348 235.138 305.75V311.394H233.841Z" fill="white" fill-opacity="0.5"/>
<path d="M240.689 314.738C240.469 314.738 240.273 314.719 240.101 314.68C239.929 314.645 239.81 314.61 239.744 314.575L240.073 313.368C240.388 313.453 240.667 313.484 240.908 313.461C241.15 313.438 241.364 313.323 241.551 313.118C241.742 312.917 241.916 312.59 242.073 312.137L242.315 311.44L239.194 302.476H240.601L242.93 309.582H243.018L245.347 302.476H246.753L243.172 312.694C243.011 313.155 242.811 313.536 242.573 313.838C242.335 314.144 242.058 314.37 241.743 314.517C241.432 314.665 241.081 314.738 240.689 314.738Z" fill="white" fill-opacity="0.5"/>
<path d="M304.863 207.845L301.786 195.955H303.171L305.522 205.639H305.632L308.027 195.955H309.565L311.96 205.639H312.07L314.421 195.955H315.806L312.729 207.845H311.323L308.84 198.37H308.752L306.269 207.845H304.863Z" fill="white" fill-opacity="0.5"/>
<path d="M320.08 208.031C319.267 208.031 318.565 207.841 317.976 207.462C317.39 207.079 316.937 206.545 316.619 205.86C316.304 205.171 316.146 204.369 316.146 203.456C316.146 202.542 316.304 201.737 316.619 201.041C316.937 200.34 317.381 199.794 317.948 199.403C318.52 199.009 319.186 198.811 319.948 198.811C320.387 198.811 320.821 198.889 321.25 199.043C321.678 199.198 322.068 199.45 322.42 199.798C322.771 200.143 323.052 200.599 323.26 201.168C323.469 201.737 323.574 202.438 323.574 203.27V203.851H317.069V202.666H322.255C322.255 202.163 322.16 201.714 321.969 201.319C321.783 200.925 321.515 200.613 321.167 200.385C320.823 200.156 320.417 200.042 319.948 200.042C319.431 200.042 318.985 200.177 318.607 200.448C318.234 200.716 317.946 201.064 317.745 201.494C317.544 201.923 317.443 202.384 317.443 202.875V203.665C317.443 204.338 317.553 204.909 317.772 205.378C317.996 205.842 318.305 206.196 318.701 206.44C319.096 206.68 319.556 206.8 320.08 206.8C320.42 206.8 320.728 206.75 321.003 206.649C321.281 206.545 321.521 206.39 321.722 206.185C321.924 205.976 322.079 205.716 322.189 205.407L323.442 205.778C323.31 206.227 323.088 206.622 322.777 206.963C322.466 207.3 322.081 207.563 321.623 207.752C321.166 207.938 320.651 208.031 320.08 208.031Z" fill="white" fill-opacity="0.5"/>
<path d="M331.523 200.925L330.358 201.273C330.285 201.068 330.177 200.868 330.034 200.675C329.895 200.477 329.704 200.315 329.463 200.187C329.221 200.059 328.911 199.996 328.534 199.996C328.018 199.996 327.587 200.121 327.243 200.373C326.903 200.621 326.732 200.936 326.732 201.319C326.732 201.66 326.849 201.929 327.084 202.126C327.318 202.324 327.684 202.488 328.183 202.62L329.435 202.945C330.189 203.139 330.752 203.435 331.122 203.833C331.491 204.228 331.676 204.737 331.676 205.36C331.676 205.871 331.537 206.328 331.259 206.731C330.984 207.133 330.6 207.451 330.105 207.683C329.611 207.915 329.036 208.031 328.38 208.031C327.52 208.031 326.807 207.834 326.243 207.439C325.679 207.044 325.322 206.467 325.172 205.709L326.403 205.384C326.52 205.864 326.741 206.223 327.067 206.463C327.397 206.703 327.827 206.823 328.358 206.823C328.963 206.823 329.442 206.688 329.798 206.417C330.157 206.142 330.336 205.813 330.336 205.43C330.336 205.12 330.233 204.861 330.028 204.652C329.823 204.439 329.508 204.28 329.083 204.176L327.677 203.828C326.904 203.634 326.337 203.334 325.974 202.928C325.615 202.517 325.436 202.004 325.436 201.389C325.436 200.886 325.569 200.441 325.837 200.054C326.108 199.667 326.476 199.363 326.941 199.142C327.41 198.921 327.941 198.811 328.534 198.811C329.369 198.811 330.025 199.005 330.501 199.392C330.981 199.779 331.321 200.29 331.523 200.925Z" fill="white" fill-opacity="0.5"/>
<path d="M337.298 198.927V200.088H332.925V198.927H337.298ZM334.199 196.791H335.496V205.291C335.496 205.678 335.549 205.968 335.655 206.162C335.765 206.351 335.904 206.479 336.073 206.545C336.245 206.607 336.426 206.638 336.616 206.638C336.759 206.638 336.876 206.63 336.968 206.614C337.06 206.595 337.133 206.58 337.188 206.568L337.451 207.799C337.363 207.834 337.241 207.869 337.083 207.903C336.926 207.942 336.726 207.961 336.485 207.961C336.118 207.961 335.759 207.878 335.408 207.712C335.06 207.545 334.771 207.292 334.54 206.951C334.313 206.611 334.199 206.181 334.199 205.662V196.791Z" fill="white" fill-opacity="0.5"/>
<path d="M342.695 208.031C341.882 208.031 341.181 207.841 340.591 207.462C340.005 207.079 339.553 206.545 339.234 205.86C338.919 205.171 338.762 204.369 338.762 203.456C338.762 202.542 338.919 201.737 339.234 201.041C339.553 200.34 339.996 199.794 340.563 199.403C341.135 199.009 341.801 198.811 342.563 198.811C343.003 198.811 343.437 198.889 343.865 199.043C344.293 199.198 344.684 199.45 345.035 199.798C345.387 200.143 345.667 200.599 345.876 201.168C346.084 201.737 346.189 202.438 346.189 203.27V203.851H339.684V202.666H344.87C344.87 202.163 344.775 201.714 344.585 201.319C344.398 200.925 344.131 200.613 343.783 200.385C343.438 200.156 343.032 200.042 342.563 200.042C342.047 200.042 341.6 200.177 341.223 200.448C340.849 200.716 340.562 201.064 340.36 201.494C340.159 201.923 340.058 202.384 340.058 202.875V203.665C340.058 204.338 340.168 204.909 340.388 205.378C340.611 205.842 340.92 206.196 341.316 206.44C341.712 206.68 342.171 206.8 342.695 206.8C343.035 206.8 343.343 206.75 343.618 206.649C343.896 206.545 344.136 206.39 344.337 206.185C344.539 205.976 344.695 205.716 344.804 205.407L346.057 205.778C345.925 206.227 345.703 206.622 345.392 206.963C345.081 207.3 344.696 207.563 344.239 207.752C343.781 207.938 343.266 208.031 342.695 208.031Z" fill="white" fill-opacity="0.5"/>
<path d="M348.161 207.845V198.927H349.413V200.274H349.501C349.655 199.833 349.933 199.475 350.336 199.2C350.739 198.925 351.193 198.788 351.699 198.788C351.794 198.788 351.913 198.79 352.056 198.794C352.199 198.798 352.307 198.803 352.38 198.811V200.205C352.336 200.193 352.235 200.176 352.078 200.152C351.924 200.125 351.761 200.112 351.589 200.112C351.179 200.112 350.812 200.203 350.49 200.385C350.171 200.563 349.919 200.81 349.732 201.128C349.549 201.441 349.457 201.799 349.457 202.202V207.845H348.161Z" fill="white" fill-opacity="0.5"/>
<path d="M355.213 202.481V207.845H353.917V198.927H355.169V200.321H355.279C355.477 199.868 355.777 199.504 356.18 199.229C356.583 198.95 357.103 198.811 357.74 198.811C358.311 198.811 358.811 198.935 359.24 199.183C359.668 199.427 360.002 199.798 360.24 200.297C360.478 200.793 360.597 201.42 360.597 202.179V207.845H359.3V202.272C359.3 201.571 359.128 201.025 358.784 200.634C358.44 200.239 357.967 200.042 357.367 200.042C356.953 200.042 356.583 200.137 356.257 200.327C355.935 200.516 355.68 200.793 355.493 201.157C355.307 201.521 355.213 201.962 355.213 202.481Z" fill="white" fill-opacity="0.5"/>
<path d="M365.449 208.054C364.914 208.054 364.429 207.948 363.993 207.735C363.557 207.518 363.211 207.207 362.955 206.8C362.698 206.39 362.57 205.894 362.57 205.314C362.57 204.803 362.665 204.389 362.856 204.071C363.046 203.75 363.301 203.499 363.619 203.317C363.938 203.135 364.29 202.999 364.674 202.91C365.062 202.817 365.452 202.744 365.844 202.69C366.357 202.62 366.773 202.568 367.091 202.533C367.414 202.494 367.648 202.43 367.794 202.341C367.945 202.252 368.02 202.097 368.02 201.877V201.83C368.02 201.257 367.871 200.812 367.575 200.495C367.282 200.177 366.837 200.019 366.24 200.019C365.621 200.019 365.136 200.162 364.784 200.448C364.433 200.735 364.185 201.041 364.042 201.366L362.812 200.901C363.032 200.359 363.325 199.938 363.691 199.636C364.061 199.33 364.464 199.117 364.899 198.997C365.339 198.873 365.771 198.811 366.196 198.811C366.467 198.811 366.778 198.846 367.13 198.916C367.485 198.981 367.827 199.119 368.157 199.328C368.49 199.537 368.767 199.852 368.987 200.274C369.206 200.696 369.316 201.261 369.316 201.97V207.845H368.02V206.638H367.954C367.866 206.831 367.719 207.038 367.514 207.259C367.309 207.48 367.036 207.667 366.696 207.822C366.355 207.977 365.94 208.054 365.449 208.054ZM365.647 206.823C366.159 206.823 366.591 206.717 366.943 206.504C367.298 206.291 367.566 206.016 367.745 205.68C367.928 205.343 368.02 204.989 368.02 204.617V203.363C367.965 203.433 367.844 203.497 367.657 203.555C367.474 203.609 367.262 203.657 367.02 203.7C366.782 203.739 366.549 203.773 366.322 203.804C366.099 203.831 365.918 203.855 365.778 203.874C365.441 203.92 365.127 203.996 364.834 204.1C364.544 204.201 364.31 204.354 364.13 204.559C363.955 204.76 363.867 205.035 363.867 205.384C363.867 205.86 364.033 206.22 364.367 206.463C364.704 206.703 365.13 206.823 365.647 206.823Z" fill="white" fill-opacity="0.5"/>
<path d="M377 204.199V198.927H378.297V207.845H377V206.336H376.912C376.715 206.789 376.407 207.174 375.989 207.491C375.572 207.805 375.045 207.961 374.407 207.961C373.88 207.961 373.411 207.84 373.001 207.596C372.591 207.348 372.268 206.976 372.034 206.481C371.8 205.982 371.682 205.353 371.682 204.594V198.927H372.979V204.501C372.979 205.151 373.151 205.67 373.495 206.057C373.843 206.444 374.286 206.638 374.825 206.638C375.147 206.638 375.475 206.551 375.808 206.376C376.145 206.202 376.427 205.935 376.654 205.575C376.885 205.215 377 204.757 377 204.199Z" fill="white" fill-opacity="0.5"/>
<path d="M386.648 200.925L385.483 201.273C385.41 201.068 385.302 200.868 385.159 200.675C385.02 200.477 384.83 200.315 384.588 200.187C384.346 200.059 384.037 199.996 383.66 199.996C383.143 199.996 382.713 200.121 382.369 200.373C382.028 200.621 381.858 200.936 381.858 201.319C381.858 201.66 381.975 201.929 382.209 202.126C382.444 202.324 382.81 202.488 383.308 202.62L384.561 202.945C385.315 203.139 385.877 203.435 386.247 203.833C386.617 204.228 386.802 204.737 386.802 205.36C386.802 205.871 386.663 206.328 386.384 206.731C386.11 207.133 385.725 207.451 385.231 207.683C384.736 207.915 384.161 208.031 383.506 208.031C382.645 208.031 381.933 207.834 381.369 207.439C380.805 207.044 380.448 206.467 380.298 205.709L381.528 205.384C381.645 205.864 381.867 206.223 382.193 206.463C382.522 206.703 382.953 206.823 383.484 206.823C384.088 206.823 384.568 206.688 384.923 206.417C385.282 206.142 385.461 205.813 385.461 205.43C385.461 205.12 385.359 204.861 385.154 204.652C384.949 204.439 384.634 204.28 384.209 204.176L382.803 203.828C382.03 203.634 381.462 203.334 381.1 202.928C380.741 202.517 380.561 202.004 380.561 201.389C380.561 200.886 380.695 200.441 380.962 200.054C381.233 199.667 381.601 199.363 382.066 199.142C382.535 198.921 383.066 198.811 383.66 198.811C384.495 198.811 385.15 199.005 385.626 199.392C386.106 199.779 386.447 200.29 386.648 200.925Z" fill="white" fill-opacity="0.5"/>
<path d="M392.423 198.927V200.088H388.05V198.927H392.423ZM389.325 196.791H390.621V205.291C390.621 205.678 390.674 205.968 390.781 206.162C390.89 206.351 391.03 206.479 391.198 206.545C391.37 206.607 391.551 206.638 391.742 206.638C391.885 206.638 392.002 206.63 392.093 206.614C392.185 206.595 392.258 206.58 392.313 206.568L392.577 207.799C392.489 207.834 392.366 207.869 392.209 207.903C392.051 207.942 391.852 207.961 391.61 207.961C391.244 207.961 390.885 207.878 390.533 207.712C390.185 207.545 389.896 207.292 389.665 206.951C389.438 206.611 389.325 206.181 389.325 205.662V196.791Z" fill="white" fill-opacity="0.5"/>
<path d="M394.373 207.845V198.927H395.626V200.274H395.714C395.867 199.833 396.146 199.475 396.549 199.2C396.951 198.925 397.406 198.788 397.911 198.788C398.006 198.788 398.125 198.79 398.268 198.794C398.411 198.798 398.519 198.803 398.592 198.811V200.205C398.548 200.193 398.448 200.176 398.29 200.152C398.136 200.125 397.973 200.112 397.801 200.112C397.391 200.112 397.025 200.203 396.702 200.385C396.384 200.563 396.131 200.81 395.944 201.128C395.761 201.441 395.67 201.799 395.67 202.202V207.845H394.373Z" fill="white" fill-opacity="0.5"/>
<path d="M402.612 208.054C402.077 208.054 401.592 207.948 401.156 207.735C400.72 207.518 400.374 207.207 400.118 206.8C399.862 206.39 399.733 205.894 399.733 205.314C399.733 204.803 399.829 204.389 400.019 204.071C400.21 203.75 400.464 203.499 400.783 203.317C401.101 203.135 401.453 202.999 401.837 202.91C402.226 202.817 402.616 202.744 403.008 202.69C403.52 202.62 403.936 202.568 404.255 202.533C404.577 202.494 404.811 202.43 404.958 202.341C405.108 202.252 405.183 202.097 405.183 201.877V201.83C405.183 201.257 405.035 200.812 404.738 200.495C404.445 200.177 404 200.019 403.403 200.019C402.784 200.019 402.299 200.162 401.947 200.448C401.596 200.735 401.349 201.041 401.206 201.366L399.975 200.901C400.195 200.359 400.488 199.938 400.854 199.636C401.224 199.33 401.627 199.117 402.063 198.997C402.502 198.873 402.934 198.811 403.359 198.811C403.63 198.811 403.941 198.846 404.293 198.916C404.648 198.981 404.991 199.119 405.32 199.328C405.654 199.537 405.93 199.852 406.15 200.274C406.37 200.696 406.479 201.261 406.479 201.97V207.845H405.183V206.638H405.117C405.029 206.831 404.883 207.038 404.678 207.259C404.473 207.48 404.2 207.667 403.859 207.822C403.518 207.977 403.103 208.054 402.612 208.054ZM402.81 206.823C403.323 206.823 403.755 206.717 404.106 206.504C404.462 206.291 404.729 206.016 404.908 205.68C405.091 205.343 405.183 204.989 405.183 204.617V203.363C405.128 203.433 405.007 203.497 404.82 203.555C404.637 203.609 404.425 203.657 404.183 203.7C403.945 203.739 403.713 203.773 403.486 203.804C403.262 203.831 403.081 203.855 402.942 203.874C402.605 203.92 402.29 203.996 401.997 204.1C401.707 204.201 401.473 204.354 401.294 204.559C401.118 204.76 401.03 205.035 401.03 205.384C401.03 205.86 401.197 206.22 401.53 206.463C401.867 206.703 402.293 206.823 402.81 206.823Z" fill="white" fill-opacity="0.5"/>
<path d="M410.142 195.955V207.845H408.846V195.955H410.142Z" fill="white" fill-opacity="0.5"/>
<path d="M412.517 207.845V198.927H413.813V207.845H412.517ZM413.176 197.441C412.923 197.441 412.705 197.35 412.522 197.168C412.343 196.986 412.253 196.767 412.253 196.512C412.253 196.256 412.343 196.038 412.522 195.856C412.705 195.674 412.923 195.583 413.176 195.583C413.429 195.583 413.645 195.674 413.824 195.856C414.007 196.038 414.099 196.256 414.099 196.512C414.099 196.767 414.007 196.986 413.824 197.168C413.645 197.35 413.429 197.441 413.176 197.441Z" fill="white" fill-opacity="0.5"/>
<path d="M418.671 208.054C418.136 208.054 417.651 207.948 417.215 207.735C416.779 207.518 416.433 207.207 416.177 206.8C415.92 206.39 415.792 205.894 415.792 205.314C415.792 204.803 415.887 204.389 416.078 204.071C416.268 203.75 416.523 203.499 416.841 203.317C417.16 203.135 417.512 202.999 417.896 202.91C418.284 202.817 418.674 202.744 419.066 202.69C419.579 202.62 419.995 202.568 420.313 202.533C420.636 202.494 420.87 202.43 421.017 202.341C421.167 202.252 421.242 202.097 421.242 201.877V201.83C421.242 201.257 421.093 200.812 420.797 200.495C420.504 200.177 420.059 200.019 419.462 200.019C418.843 200.019 418.358 200.162 418.006 200.448C417.655 200.735 417.407 201.041 417.264 201.366L416.034 200.901C416.254 200.359 416.547 199.938 416.913 199.636C417.283 199.33 417.686 199.117 418.121 198.997C418.561 198.873 418.993 198.811 419.418 198.811C419.689 198.811 420 198.846 420.352 198.916C420.707 198.981 421.049 199.119 421.379 199.328C421.712 199.537 421.989 199.852 422.209 200.274C422.428 200.696 422.538 201.261 422.538 201.97V207.845H421.242V206.638H421.176C421.088 206.831 420.941 207.038 420.736 207.259C420.531 207.48 420.258 207.667 419.918 207.822C419.577 207.977 419.162 208.054 418.671 208.054ZM418.869 206.823C419.381 206.823 419.813 206.717 420.165 206.504C420.52 206.291 420.788 206.016 420.967 205.68C421.15 205.343 421.242 204.989 421.242 204.617V203.363C421.187 203.433 421.066 203.497 420.879 203.555C420.696 203.609 420.484 203.657 420.242 203.7C420.004 203.739 419.771 203.773 419.544 203.804C419.321 203.831 419.14 203.855 419 203.874C418.663 203.92 418.349 203.996 418.056 204.1C417.766 204.201 417.532 204.354 417.352 204.559C417.177 204.76 417.089 205.035 417.089 205.384C417.089 205.86 417.255 206.22 417.589 206.463C417.926 206.703 418.352 206.823 418.869 206.823Z" fill="white" fill-opacity="0.5"/>
<path d="M329.289 378.974C329.215 378.309 328.913 377.792 328.383 377.425C327.853 377.057 327.203 376.873 326.433 376.873C325.87 376.873 325.377 376.97 324.955 377.162C324.536 377.355 324.209 377.619 323.973 377.956C323.742 378.293 323.626 378.676 323.626 379.105C323.626 379.464 323.706 379.772 323.868 380.03C324.033 380.284 324.245 380.496 324.501 380.667C324.758 380.833 325.027 380.971 325.309 381.08C325.59 381.186 325.849 381.271 326.085 381.336L327.377 381.704C327.708 381.796 328.076 381.923 328.482 382.085C328.892 382.247 329.283 382.468 329.656 382.748C330.032 383.023 330.343 383.378 330.587 383.811C330.832 384.244 330.954 384.776 330.954 385.406C330.954 386.132 330.774 386.789 330.413 387.375C330.057 387.961 329.536 388.427 328.848 388.773C328.165 389.119 327.335 389.291 326.358 389.291C325.447 389.291 324.659 389.136 323.992 388.825C323.33 388.515 322.808 388.082 322.427 387.526C322.05 386.97 321.837 386.325 321.787 385.59H323.377C323.419 386.097 323.58 386.517 323.862 386.85C324.147 387.178 324.508 387.423 324.942 387.585C325.381 387.742 325.853 387.821 326.358 387.821C326.946 387.821 327.474 387.721 327.942 387.519C328.41 387.314 328.78 387.029 329.053 386.666C329.327 386.298 329.463 385.87 329.463 385.38C329.463 384.933 329.345 384.57 329.109 384.29C328.873 384.01 328.563 383.782 328.178 383.607C327.793 383.432 327.377 383.279 326.929 383.148L325.365 382.675C324.371 382.373 323.584 381.942 323.005 381.382C322.425 380.822 322.135 380.089 322.135 379.184C322.135 378.431 322.328 377.775 322.713 377.215C323.102 376.65 323.624 376.213 324.278 375.902C324.936 375.587 325.671 375.429 326.482 375.429C327.302 375.429 328.031 375.585 328.668 375.895C329.306 376.202 329.811 376.622 330.184 377.155C330.56 377.689 330.759 378.295 330.78 378.974H329.289Z" fill="white" fill-opacity="0.5"/>
<path d="M337.162 389.265C336.301 389.265 335.546 389.049 334.896 388.615C334.25 388.182 333.745 387.576 333.38 386.797C333.02 386.018 332.84 385.108 332.84 384.067C332.84 383.017 333.02 382.1 333.38 381.317C333.745 380.534 334.25 379.925 334.896 379.492C335.546 379.059 336.301 378.842 337.162 378.842C338.023 378.842 338.777 379.059 339.423 379.492C340.073 379.925 340.578 380.534 340.938 381.317C341.302 382.1 341.485 383.017 341.485 384.067C341.485 385.108 341.302 386.018 340.938 386.797C340.578 387.576 340.073 388.182 339.423 388.615C338.777 389.049 338.023 389.265 337.162 389.265ZM337.162 387.874C337.816 387.874 338.355 387.697 338.777 387.342C339.199 386.988 339.512 386.522 339.715 385.944C339.918 385.366 340.019 384.741 340.019 384.067C340.019 383.393 339.918 382.765 339.715 382.183C339.512 381.601 339.199 381.131 338.777 380.772C338.355 380.413 337.816 380.234 337.162 380.234C336.508 380.234 335.97 380.413 335.548 380.772C335.125 381.131 334.813 381.601 334.61 382.183C334.407 382.765 334.306 383.393 334.306 384.067C334.306 384.741 334.407 385.366 334.61 385.944C334.813 386.522 335.125 386.988 335.548 387.342C335.97 387.697 336.508 387.874 337.162 387.874Z" fill="white" fill-opacity="0.5"/>
<path d="M349.733 384.933V378.974H351.199V389.055H349.733V387.349H349.634C349.41 387.861 349.063 388.296 348.591 388.655C348.119 389.009 347.522 389.186 346.802 389.186C346.206 389.186 345.676 389.049 345.212 388.773C344.749 388.493 344.384 388.073 344.119 387.513C343.854 386.948 343.722 386.237 343.722 385.38V378.974H345.187V385.275C345.187 386.01 345.382 386.596 345.771 387.034C346.164 387.471 346.665 387.69 347.274 387.69C347.638 387.69 348.009 387.591 348.386 387.395C348.767 387.198 349.085 386.896 349.342 386.489C349.603 386.082 349.733 385.563 349.733 384.933Z" fill="white" fill-opacity="0.5"/>
<path d="M358.032 378.974V380.286H353.088V378.974H358.032ZM354.529 376.558H355.995V386.167C355.995 386.605 356.055 386.933 356.175 387.152C356.299 387.366 356.456 387.511 356.647 387.585C356.841 387.655 357.046 387.69 357.262 387.69C357.423 387.69 357.555 387.681 357.659 387.664C357.762 387.642 357.845 387.624 357.907 387.611L358.205 389.003C358.106 389.042 357.967 389.081 357.789 389.121C357.611 389.165 357.386 389.186 357.112 389.186C356.698 389.186 356.293 389.092 355.895 388.904C355.502 388.716 355.175 388.429 354.914 388.044C354.657 387.659 354.529 387.174 354.529 386.587V376.558Z" fill="white" fill-opacity="0.5"/>
<path d="M361.907 382.99V389.055H360.441V375.613H361.907V380.549H362.031C362.255 380.028 362.59 379.615 363.037 379.308C363.488 378.998 364.089 378.842 364.838 378.842C365.488 378.842 366.057 378.98 366.546 379.256C367.034 379.527 367.413 379.945 367.682 380.509C367.955 381.07 368.092 381.783 368.092 382.649V389.055H366.626V382.754C366.626 381.953 366.43 381.334 366.036 380.897C365.647 380.455 365.107 380.234 364.416 380.234C363.935 380.234 363.505 380.341 363.124 380.555C362.747 380.77 362.449 381.083 362.23 381.494C362.014 381.905 361.907 382.404 361.907 382.99Z" fill="white" fill-opacity="0.5"/>
<path d="M376.412 389.055H374.798L379.468 375.613H381.057L385.727 389.055H384.113L380.312 377.74H380.213L376.412 389.055ZM377.008 383.804H383.517V385.248H377.008V383.804Z" fill="white" fill-opacity="0.5"/>
<path d="M393.521 384.933V378.974H394.987V389.055H393.521V387.349H393.422C393.198 387.861 392.85 388.296 392.379 388.655C391.907 389.009 391.31 389.186 390.59 389.186C389.994 389.186 389.464 389.049 389 388.773C388.536 388.493 388.172 388.073 387.907 387.513C387.642 386.948 387.51 386.237 387.51 385.38V378.974H388.975V385.275C388.975 386.01 389.17 386.596 389.559 387.034C389.952 387.471 390.453 387.69 391.062 387.69C391.426 387.69 391.797 387.591 392.174 387.395C392.554 387.198 392.873 386.896 393.13 386.489C393.391 386.082 393.521 385.563 393.521 384.933Z" fill="white" fill-opacity="0.5"/>
<path d="M404.428 381.231L403.111 381.625C403.028 381.393 402.906 381.168 402.745 380.949C402.587 380.726 402.372 380.542 402.099 380.398C401.826 380.253 401.476 380.181 401.049 380.181C400.466 380.181 399.979 380.324 399.59 380.608C399.205 380.888 399.013 381.245 399.013 381.678C399.013 382.063 399.145 382.367 399.41 382.59C399.675 382.813 400.089 382.999 400.652 383.148L402.068 383.516C402.921 383.734 403.556 384.069 403.974 384.52C404.393 384.966 404.602 385.541 404.602 386.246C404.602 386.824 404.444 387.34 404.13 387.795C403.819 388.25 403.384 388.609 402.826 388.871C402.267 389.134 401.617 389.265 400.876 389.265C399.903 389.265 399.097 389.042 398.46 388.596C397.822 388.149 397.419 387.497 397.249 386.64L398.64 386.272C398.772 386.815 399.023 387.222 399.391 387.493C399.764 387.764 400.25 387.9 400.851 387.9C401.534 387.9 402.076 387.747 402.478 387.441C402.884 387.13 403.086 386.758 403.086 386.325C403.086 385.975 402.97 385.682 402.739 385.445C402.507 385.205 402.151 385.025 401.67 384.907L400.081 384.513C399.207 384.294 398.565 383.955 398.156 383.496C397.75 383.032 397.547 382.452 397.547 381.757C397.547 381.188 397.698 380.684 398 380.247C398.307 379.809 398.723 379.466 399.249 379.216C399.778 378.967 400.379 378.842 401.049 378.842C401.993 378.842 402.734 379.061 403.273 379.499C403.815 379.936 404.2 380.514 404.428 381.231Z" fill="white" fill-opacity="0.5"/>
<path d="M410.956 378.974V380.286H406.013V378.974H410.956ZM407.454 376.558H408.919V386.167C408.919 386.605 408.979 386.933 409.099 387.152C409.224 387.366 409.381 387.511 409.571 387.585C409.766 387.655 409.971 387.69 410.186 387.69C410.348 387.69 410.48 387.681 410.584 387.664C410.687 387.642 410.77 387.624 410.832 387.611L411.13 389.003C411.031 389.042 410.892 389.081 410.714 389.121C410.536 389.165 410.31 389.186 410.037 389.186C409.623 389.186 409.217 389.092 408.82 388.904C408.427 388.716 408.1 388.429 407.839 388.044C407.582 387.659 407.454 387.174 407.454 386.587V376.558Z" fill="white" fill-opacity="0.5"/>
<path d="M413.161 389.055V378.974H414.577V380.496H414.676C414.85 379.997 415.165 379.593 415.62 379.282C416.075 378.971 416.589 378.816 417.16 378.816C417.268 378.816 417.402 378.818 417.564 378.823C417.725 378.827 417.847 378.834 417.93 378.842V380.418C417.881 380.404 417.767 380.385 417.589 380.358C417.415 380.328 417.231 380.313 417.036 380.313C416.572 380.313 416.158 380.415 415.794 380.621C415.434 380.822 415.148 381.102 414.937 381.461C414.73 381.816 414.626 382.22 414.626 382.675V389.055H413.161Z" fill="white" fill-opacity="0.5"/>
<path d="M422.475 389.291C421.87 389.291 421.322 389.171 420.829 388.93C420.336 388.685 419.945 388.333 419.655 387.874C419.365 387.41 419.22 386.85 419.22 386.193C419.22 385.616 419.328 385.148 419.543 384.789C419.759 384.426 420.046 384.141 420.407 383.936C420.767 383.73 421.164 383.577 421.599 383.476C422.038 383.371 422.479 383.288 422.922 383.227C423.501 383.148 423.971 383.089 424.331 383.05C424.696 383.006 424.961 382.934 425.126 382.833C425.296 382.732 425.381 382.557 425.381 382.308V382.255C425.381 381.608 425.213 381.105 424.878 380.746C424.547 380.387 424.044 380.208 423.369 380.208C422.669 380.208 422.121 380.369 421.723 380.693C421.326 381.017 421.046 381.363 420.885 381.73L419.494 381.205C419.742 380.593 420.073 380.116 420.487 379.774C420.905 379.429 421.361 379.188 421.854 379.052C422.35 378.912 422.839 378.842 423.319 378.842C423.626 378.842 423.977 378.882 424.375 378.96C424.776 379.035 425.164 379.19 425.536 379.426C425.913 379.663 426.226 380.019 426.474 380.496C426.722 380.973 426.846 381.612 426.846 382.413V389.055H425.381V387.69H425.306C425.207 387.909 425.041 388.143 424.81 388.392C424.578 388.642 424.269 388.854 423.884 389.029C423.499 389.204 423.029 389.291 422.475 389.291ZM422.698 387.9C423.278 387.9 423.766 387.78 424.164 387.539C424.565 387.298 424.868 386.988 425.07 386.607C425.277 386.226 425.381 385.826 425.381 385.406V383.988C425.319 384.067 425.182 384.139 424.971 384.205C424.764 384.266 424.524 384.321 424.251 384.369C423.982 384.413 423.719 384.452 423.462 384.487C423.209 384.518 423.004 384.544 422.847 384.566C422.466 384.618 422.11 384.704 421.779 384.822C421.452 384.935 421.187 385.108 420.984 385.34C420.785 385.568 420.686 385.878 420.686 386.272C420.686 386.81 420.874 387.217 421.251 387.493C421.632 387.764 422.114 387.9 422.698 387.9Z" fill="white" fill-opacity="0.5"/>
<path d="M430.987 375.613V389.055H429.522V375.613H430.987Z" fill="white" fill-opacity="0.5"/>
<path d="M433.671 389.055V378.974H435.137V389.055H433.671ZM434.417 377.293C434.131 377.293 433.885 377.191 433.678 376.985C433.475 376.779 433.373 376.532 433.373 376.243C433.373 375.954 433.475 375.707 433.678 375.501C433.885 375.296 434.131 375.193 434.417 375.193C434.702 375.193 434.947 375.296 435.15 375.501C435.357 375.707 435.46 375.954 435.46 376.243C435.46 376.532 435.357 376.779 435.15 376.985C434.947 377.191 434.702 377.293 434.417 377.293Z" fill="white" fill-opacity="0.5"/>
<path d="M440.628 389.291C440.024 389.291 439.475 389.171 438.983 388.93C438.49 388.685 438.099 388.333 437.809 387.874C437.519 387.41 437.374 386.85 437.374 386.193C437.374 385.616 437.482 385.148 437.697 384.789C437.913 384.426 438.2 384.141 438.56 383.936C438.921 383.73 439.318 383.577 439.753 383.476C440.192 383.371 440.633 383.288 441.076 383.227C441.655 383.148 442.125 383.089 442.485 383.05C442.85 383.006 443.115 382.934 443.28 382.833C443.45 382.732 443.535 382.557 443.535 382.308V382.255C443.535 381.608 443.367 381.105 443.032 380.746C442.701 380.387 442.198 380.208 441.523 380.208C440.823 380.208 440.274 380.369 439.877 380.693C439.48 381.017 439.2 381.363 439.039 381.73L437.648 381.205C437.896 380.593 438.227 380.116 438.641 379.774C439.059 379.429 439.515 379.188 440.007 379.052C440.504 378.912 440.993 378.842 441.473 378.842C441.779 378.842 442.131 378.882 442.529 378.96C442.93 379.035 443.317 379.19 443.69 379.426C444.067 379.663 444.379 380.019 444.628 380.496C444.876 380.973 445 381.612 445 382.413V389.055H443.535V387.69H443.46C443.361 387.909 443.195 388.143 442.963 388.392C442.732 388.642 442.423 388.854 442.038 389.029C441.653 389.204 441.183 389.291 440.628 389.291ZM440.852 387.9C441.432 387.9 441.92 387.78 442.318 387.539C442.719 387.298 443.021 386.988 443.224 386.607C443.431 386.226 443.535 385.826 443.535 385.406V383.988C443.473 384.067 443.336 384.139 443.125 384.205C442.918 384.266 442.678 384.321 442.405 384.369C442.135 384.413 441.873 384.452 441.616 384.487C441.363 384.518 441.158 384.544 441.001 384.566C440.62 384.618 440.264 384.704 439.933 384.822C439.606 384.935 439.341 385.108 439.138 385.34C438.939 385.568 438.84 385.878 438.84 386.272C438.84 386.81 439.028 387.217 439.405 387.493C439.786 387.764 440.268 387.9 440.852 387.9Z" fill="white" fill-opacity="0.5"/>
<path d="M502.276 258.144H503.965L505.381 260.113L505.754 260.638L507.865 263.605H506.176L504.785 261.636L504.437 261.137L502.276 258.144ZM508.387 255.623C508.387 257.041 508.145 258.266 507.66 259.299C507.176 260.332 506.512 261.128 505.667 261.688C504.822 262.248 503.858 262.528 502.773 262.528C501.688 262.528 500.724 262.248 499.879 261.688C499.035 261.128 498.37 260.332 497.886 259.299C497.401 258.266 497.159 257.041 497.159 255.623C497.159 254.206 497.401 252.981 497.886 251.948C498.37 250.915 499.035 250.119 499.879 249.559C500.724 248.999 501.688 248.719 502.773 248.719C503.858 248.719 504.822 248.999 505.667 249.559C506.512 250.119 507.176 250.915 507.66 251.948C508.145 252.981 508.387 254.206 508.387 255.623ZM506.897 255.623C506.897 254.46 506.712 253.477 506.344 252.676C505.98 251.876 505.485 251.27 504.86 250.858C504.239 250.447 503.543 250.241 502.773 250.241C502.003 250.241 501.305 250.447 500.68 250.858C500.059 251.27 499.564 251.876 499.196 252.676C498.832 253.477 498.65 254.46 498.65 255.623C498.65 256.787 498.832 257.77 499.196 258.57C499.564 259.371 500.059 259.977 500.68 260.389C501.305 260.8 502.003 261.006 502.773 261.006C503.543 261.006 504.239 260.8 504.86 260.389C505.485 259.977 505.98 259.371 506.344 258.57C506.712 257.77 506.897 256.787 506.897 255.623Z" fill="white" fill-opacity="0.5"/>
<path d="M516.789 258.223V252.263H518.255V262.345H516.789V260.638H516.69C516.466 261.15 516.119 261.585 515.647 261.944C515.175 262.299 514.579 262.476 513.858 262.476C513.262 262.476 512.732 262.338 512.268 262.062C511.805 261.782 511.44 261.362 511.175 260.802C510.91 260.238 510.778 259.527 510.778 258.669V252.263H512.244V258.564C512.244 259.299 512.438 259.885 512.827 260.323C513.221 260.761 513.722 260.979 514.33 260.979C514.695 260.979 515.065 260.881 515.442 260.684C515.823 260.487 516.142 260.185 516.398 259.778C516.659 259.371 516.789 258.853 516.789 258.223Z" fill="white" fill-opacity="0.5"/>
<path d="M524.939 262.555C524.02 262.555 523.227 262.34 522.56 261.911C521.898 261.478 521.387 260.874 521.026 260.1C520.67 259.321 520.492 258.415 520.492 257.382C520.492 256.35 520.67 255.44 521.026 254.652C521.387 253.86 521.887 253.243 522.529 252.801C523.175 252.355 523.929 252.132 524.79 252.132C525.287 252.132 525.777 252.219 526.262 252.394C526.746 252.569 527.187 252.854 527.584 253.247C527.982 253.637 528.298 254.153 528.534 254.796C528.77 255.44 528.888 256.232 528.888 257.172V257.829H521.536V256.49H527.398C527.398 255.921 527.29 255.413 527.075 254.967C526.864 254.521 526.562 254.169 526.168 253.91C525.779 253.652 525.32 253.523 524.79 253.523C524.206 253.523 523.701 253.676 523.274 253.983C522.852 254.285 522.527 254.678 522.299 255.164C522.072 255.65 521.958 256.17 521.958 256.726V257.619C521.958 258.38 522.082 259.026 522.33 259.555C522.583 260.08 522.933 260.48 523.38 260.756C523.827 261.027 524.347 261.163 524.939 261.163C525.324 261.163 525.672 261.106 525.982 260.992C526.297 260.874 526.568 260.699 526.796 260.467C527.023 260.231 527.199 259.938 527.323 259.588L528.739 260.008C528.59 260.515 528.34 260.962 527.988 261.347C527.636 261.728 527.201 262.025 526.684 262.24C526.166 262.45 525.585 262.555 524.939 262.555Z" fill="white" fill-opacity="0.5"/>
<path d="M535.117 262.555C534.198 262.555 533.405 262.34 532.739 261.911C532.076 261.478 531.565 260.874 531.205 260.1C530.849 259.321 530.671 258.415 530.671 257.382C530.671 256.35 530.849 255.44 531.205 254.652C531.565 253.86 532.066 253.243 532.708 252.801C533.354 252.355 534.107 252.132 534.968 252.132C535.465 252.132 535.956 252.219 536.44 252.394C536.924 252.569 537.365 252.854 537.763 253.247C538.16 253.637 538.477 254.153 538.713 254.796C538.949 255.44 539.067 256.232 539.067 257.172V257.829H531.714V256.49H537.576C537.576 255.921 537.469 255.413 537.254 254.967C537.042 254.521 536.74 254.169 536.347 253.91C535.958 253.652 535.498 253.523 534.968 253.523C534.384 253.523 533.879 253.676 533.453 253.983C533.031 254.285 532.706 254.678 532.478 255.164C532.25 255.65 532.136 256.17 532.136 256.726V257.619C532.136 258.38 532.261 259.026 532.509 259.555C532.762 260.08 533.111 260.48 533.558 260.756C534.006 261.027 534.525 261.163 535.117 261.163C535.502 261.163 535.85 261.106 536.161 260.992C536.475 260.874 536.746 260.699 536.974 260.467C537.202 260.231 537.378 259.938 537.502 259.588L538.918 260.008C538.769 260.515 538.518 260.962 538.166 261.347C537.815 261.728 537.38 262.025 536.862 262.24C536.345 262.45 535.763 262.555 535.117 262.555Z" fill="white" fill-opacity="0.5"/>
<path d="M542.762 256.28V262.345H541.296V252.263H542.712V253.838H542.836C543.06 253.326 543.4 252.915 543.855 252.604C544.31 252.289 544.898 252.132 545.619 252.132C546.264 252.132 546.83 252.272 547.314 252.552C547.798 252.827 548.175 253.247 548.444 253.812C548.713 254.372 548.848 255.081 548.848 255.939V262.345H547.382V256.044C547.382 255.252 547.188 254.635 546.799 254.193C546.409 253.746 545.875 253.523 545.196 253.523C544.729 253.523 544.31 253.63 543.942 253.845C543.578 254.059 543.29 254.372 543.079 254.783C542.868 255.195 542.762 255.693 542.762 256.28Z" fill="white" fill-opacity="0.5"/>
<path d="M558.283 254.521L556.966 254.915C556.883 254.683 556.761 254.457 556.6 254.239C556.442 254.015 556.227 253.832 555.954 253.687C555.681 253.543 555.331 253.471 554.904 253.471C554.321 253.471 553.834 253.613 553.445 253.897C553.06 254.177 552.867 254.534 552.867 254.967C552.867 255.352 553 255.656 553.265 255.879C553.53 256.103 553.944 256.289 554.507 256.437L555.923 256.805C556.776 257.024 557.411 257.358 557.829 257.809C558.248 258.255 558.457 258.831 558.457 259.535C558.457 260.113 558.299 260.629 557.985 261.084C557.674 261.539 557.239 261.898 556.68 262.161C556.122 262.423 555.472 262.555 554.731 262.555C553.758 262.555 552.952 262.331 552.315 261.885C551.677 261.439 551.274 260.787 551.104 259.929L552.495 259.562C552.627 260.104 552.878 260.511 553.246 260.782C553.619 261.054 554.105 261.189 554.706 261.189C555.389 261.189 555.931 261.036 556.333 260.73C556.738 260.419 556.941 260.047 556.941 259.614C556.941 259.264 556.825 258.971 556.594 258.735C556.362 258.494 556.006 258.315 555.525 258.196L553.936 257.803C553.062 257.584 552.42 257.245 552.01 256.785C551.605 256.321 551.402 255.742 551.402 255.046C551.402 254.477 551.553 253.974 551.855 253.536C552.162 253.099 552.578 252.755 553.103 252.506C553.633 252.256 554.234 252.132 554.904 252.132C555.848 252.132 556.589 252.35 557.128 252.788C557.67 253.226 558.055 253.803 558.283 254.521Z" fill="white" fill-opacity="0.5"/>
<path d="M562.128 248.902V262.345H560.663V248.902H562.128Z" fill="white" fill-opacity="0.5"/>
<path d="M567.62 262.581C567.015 262.581 566.467 262.46 565.974 262.22C565.481 261.975 565.09 261.623 564.8 261.163C564.51 260.699 564.366 260.139 564.366 259.483C564.366 258.905 564.473 258.437 564.689 258.078C564.904 257.715 565.192 257.431 565.552 257.225C565.912 257.019 566.309 256.866 566.744 256.766C567.183 256.661 567.624 256.577 568.067 256.516C568.646 256.437 569.116 256.378 569.477 256.339C569.841 256.295 570.106 256.223 570.271 256.122C570.441 256.022 570.526 255.847 570.526 255.597V255.545C570.526 254.897 570.358 254.394 570.023 254.035C569.692 253.676 569.189 253.497 568.514 253.497C567.814 253.497 567.266 253.659 566.868 253.983C566.471 254.306 566.191 254.652 566.03 255.02L564.639 254.495C564.887 253.882 565.218 253.405 565.632 253.064C566.051 252.718 566.506 252.477 566.999 252.342C567.496 252.202 567.984 252.132 568.464 252.132C568.771 252.132 569.123 252.171 569.52 252.25C569.922 252.324 570.309 252.48 570.681 252.716C571.058 252.952 571.371 253.309 571.619 253.786C571.867 254.263 571.992 254.901 571.992 255.702V262.345H570.526V260.979H570.452C570.352 261.198 570.187 261.432 569.955 261.682C569.723 261.931 569.414 262.143 569.029 262.318C568.644 262.493 568.174 262.581 567.62 262.581ZM567.843 261.189C568.423 261.189 568.911 261.069 569.309 260.828C569.71 260.588 570.013 260.277 570.216 259.896C570.423 259.516 570.526 259.115 570.526 258.695V257.277C570.464 257.356 570.327 257.428 570.116 257.494C569.909 257.555 569.669 257.61 569.396 257.658C569.127 257.702 568.864 257.741 568.607 257.776C568.355 257.807 568.15 257.833 567.992 257.855C567.611 257.908 567.255 257.993 566.924 258.111C566.597 258.225 566.332 258.398 566.129 258.63C565.931 258.857 565.831 259.168 565.831 259.562C565.831 260.1 566.02 260.507 566.396 260.782C566.777 261.054 567.26 261.189 567.843 261.189Z" fill="white" fill-opacity="0.5"/>
<path d="M576.132 256.28V262.345H574.667V252.263H576.083V253.838H576.207C576.43 253.326 576.77 252.915 577.225 252.604C577.681 252.289 578.269 252.132 578.989 252.132C579.635 252.132 580.2 252.272 580.684 252.552C581.169 252.827 581.546 253.247 581.815 253.812C582.084 254.372 582.218 255.081 582.218 255.939V262.345H580.753V256.044C580.753 255.252 580.558 254.635 580.169 254.193C579.78 253.746 579.246 253.523 578.567 253.523C578.099 253.523 577.681 253.63 577.312 253.845C576.948 254.059 576.66 254.372 576.449 254.783C576.238 255.195 576.132 255.693 576.132 256.28Z" fill="white" fill-opacity="0.5"/>
<path d="M588.498 262.555C587.703 262.555 587.002 262.342 586.393 261.918C585.785 261.489 585.308 260.885 584.965 260.106C584.621 259.323 584.449 258.398 584.449 257.33C584.449 256.271 584.621 255.352 584.965 254.573C585.308 253.794 585.787 253.193 586.399 252.768C587.012 252.344 587.72 252.132 588.523 252.132C589.144 252.132 589.635 252.241 589.995 252.46C590.359 252.674 590.637 252.919 590.827 253.195C591.022 253.466 591.173 253.689 591.28 253.864H591.405V248.902H592.87V262.345H591.454V260.796H591.28C591.173 260.979 591.02 261.211 590.821 261.491C590.622 261.767 590.339 262.014 589.97 262.233C589.602 262.447 589.111 262.555 588.498 262.555ZM588.697 261.163C589.285 261.163 589.782 261.001 590.188 260.677C590.593 260.349 590.902 259.896 591.113 259.319C591.324 258.737 591.43 258.065 591.43 257.304C591.43 256.551 591.326 255.893 591.119 255.328C590.912 254.759 590.606 254.317 590.2 254.002C589.794 253.683 589.293 253.523 588.697 253.523C588.076 253.523 587.559 253.692 587.145 254.029C586.735 254.361 586.426 254.814 586.219 255.387C586.016 255.956 585.915 256.595 585.915 257.304C585.915 258.021 586.018 258.673 586.225 259.26C586.437 259.842 586.747 260.305 587.157 260.651C587.571 260.992 588.084 261.163 588.697 261.163Z" fill="white" fill-opacity="0.5"/>
<path d="M546.415 361.988V375.43H544.925L537.994 364.876H537.87V375.43H536.33V361.988H537.82L544.776 372.569H544.9V361.988H546.415Z" fill="white" fill-opacity="0.5"/>
<path d="M553.298 375.64C552.378 375.64 551.586 375.426 550.919 374.997C550.257 374.564 549.745 373.96 549.385 373.186C549.029 372.407 548.851 371.501 548.851 370.468C548.851 369.436 549.029 368.526 549.385 367.738C549.745 366.946 550.246 366.329 550.888 365.887C551.534 365.441 552.287 365.218 553.149 365.218C553.645 365.218 554.136 365.305 554.62 365.48C555.105 365.655 555.546 365.939 555.943 366.333C556.341 366.723 556.657 367.239 556.893 367.882C557.129 368.526 557.247 369.318 557.247 370.258V370.915H549.894V369.576H555.757C555.757 369.007 555.649 368.499 555.434 368.053C555.223 367.607 554.921 367.254 554.527 366.996C554.138 366.738 553.679 366.609 553.149 366.609C552.565 366.609 552.06 366.762 551.633 367.068C551.211 367.37 550.886 367.764 550.658 368.25C550.431 368.736 550.317 369.256 550.317 369.812V370.705C550.317 371.466 550.441 372.111 550.689 372.641C550.942 373.166 551.292 373.566 551.739 373.842C552.186 374.113 552.706 374.249 553.298 374.249C553.683 374.249 554.03 374.192 554.341 374.078C554.656 373.96 554.927 373.785 555.154 373.553C555.382 373.317 555.558 373.024 555.682 372.674L557.098 373.094C556.949 373.601 556.699 374.048 556.347 374.433C555.995 374.813 555.56 375.111 555.043 375.325C554.525 375.535 553.943 375.64 553.298 375.64Z" fill="white" fill-opacity="0.5"/>
<path d="M561.638 375.43L558.732 365.349H560.272L562.333 373.067H562.433L564.47 365.349H566.035L568.047 373.041H568.146L570.208 365.349H571.748L568.842 375.43H567.401L565.314 367.685H565.165L563.079 375.43H561.638Z" fill="white" fill-opacity="0.5"/>
<path d="M585.758 365.349C585.684 364.684 585.381 364.167 584.852 363.8C584.322 363.432 583.672 363.248 582.902 363.248C582.338 363.248 581.846 363.345 581.423 363.537C581.005 363.73 580.678 363.995 580.442 364.331C580.21 364.668 580.095 365.051 580.095 365.48C580.095 365.839 580.175 366.147 580.337 366.406C580.502 366.659 580.713 366.872 580.97 367.042C581.227 367.208 581.496 367.346 581.777 367.456C582.059 367.561 582.318 367.646 582.554 367.712L583.845 368.079C584.177 368.171 584.545 368.298 584.951 368.46C585.361 368.622 585.752 368.843 586.125 369.123C586.501 369.398 586.812 369.753 587.056 370.186C587.3 370.619 587.423 371.151 587.423 371.781C587.423 372.507 587.242 373.164 586.882 373.75C586.526 374.336 586.005 374.802 585.317 375.148C584.634 375.494 583.804 375.667 582.827 375.667C581.916 375.667 581.127 375.511 580.461 375.201C579.798 374.89 579.277 374.457 578.896 373.901C578.519 373.345 578.306 372.7 578.256 371.965H579.846C579.888 372.472 580.049 372.892 580.331 373.225C580.616 373.553 580.976 373.798 581.411 373.96C581.85 374.118 582.322 374.196 582.827 374.196C583.415 374.196 583.943 374.096 584.411 373.894C584.878 373.689 585.249 373.404 585.522 373.041C585.795 372.674 585.932 372.245 585.932 371.755C585.932 371.308 585.814 370.945 585.578 370.665C585.342 370.385 585.032 370.158 584.647 369.983C584.262 369.808 583.845 369.654 583.398 369.523L581.833 369.051C580.84 368.749 580.053 368.318 579.473 367.758C578.894 367.198 578.604 366.465 578.604 365.559C578.604 364.806 578.797 364.15 579.182 363.59C579.571 363.025 580.092 362.588 580.747 362.277C581.405 361.962 582.14 361.804 582.951 361.804C583.771 361.804 584.5 361.96 585.137 362.271C585.775 362.577 586.28 362.997 586.652 363.531C587.029 364.065 587.228 364.671 587.249 365.349H585.758Z" fill="white" fill-opacity="0.5"/>
<path d="M593.631 375.64C592.77 375.64 592.014 375.424 591.364 374.991C590.719 374.557 590.213 373.951 589.849 373.173C589.489 372.394 589.309 371.484 589.309 370.442C589.309 369.392 589.489 368.475 589.849 367.692C590.213 366.909 590.719 366.301 591.364 365.867C592.014 365.434 592.77 365.218 593.631 365.218C594.492 365.218 595.246 365.434 595.892 365.867C596.542 366.301 597.047 366.909 597.407 367.692C597.771 368.475 597.953 369.392 597.953 370.442C597.953 371.484 597.771 372.394 597.407 373.173C597.047 373.951 596.542 374.557 595.892 374.991C595.246 375.424 594.492 375.64 593.631 375.64ZM593.631 374.249C594.285 374.249 594.823 374.072 595.246 373.717C595.668 373.363 595.981 372.897 596.184 372.319C596.386 371.742 596.488 371.116 596.488 370.442C596.488 369.768 596.386 369.14 596.184 368.558C595.981 367.976 595.668 367.506 595.246 367.147C594.823 366.788 594.285 366.609 593.631 366.609C592.977 366.609 592.439 366.788 592.016 367.147C591.594 367.506 591.282 367.976 591.079 368.558C590.876 369.14 590.774 369.768 590.774 370.442C590.774 371.116 590.876 371.742 591.079 372.319C591.282 372.897 591.594 373.363 592.016 373.717C592.439 374.072 592.977 374.249 593.631 374.249Z" fill="white" fill-opacity="0.5"/>
<path d="M606.202 371.308V365.349H607.668V375.43H606.202V373.724H606.103C605.879 374.236 605.531 374.671 605.059 375.03C604.587 375.384 603.991 375.562 603.271 375.562C602.675 375.562 602.145 375.424 601.681 375.148C601.217 374.868 600.853 374.448 600.588 373.888C600.323 373.323 600.191 372.612 600.191 371.755V365.349H601.656V371.65C601.656 372.385 601.851 372.971 602.24 373.409C602.633 373.846 603.134 374.065 603.743 374.065C604.107 374.065 604.478 373.967 604.854 373.77C605.235 373.573 605.554 373.271 605.811 372.864C606.072 372.457 606.202 371.939 606.202 371.308Z" fill="white" fill-opacity="0.5"/>
<path d="M614.5 365.349V366.661H609.557V365.349H614.5ZM610.998 362.933H612.463V372.542C612.463 372.98 612.524 373.308 612.644 373.527C612.768 373.741 612.925 373.886 613.116 373.96C613.31 374.03 613.515 374.065 613.73 374.065C613.892 374.065 614.024 374.056 614.128 374.039C614.231 374.017 614.314 374 614.376 373.986L614.674 375.378C614.575 375.417 614.436 375.457 614.258 375.496C614.08 375.54 613.855 375.562 613.581 375.562C613.167 375.562 612.762 375.468 612.364 375.279C611.971 375.091 611.644 374.805 611.383 374.42C611.126 374.035 610.998 373.549 610.998 372.962V362.933Z" fill="white" fill-opacity="0.5"/>
<path d="M618.376 369.366V375.43H616.91V361.988H618.376V366.924H618.5C618.723 366.403 619.059 365.99 619.506 365.684C619.957 365.373 620.557 365.218 621.307 365.218C621.957 365.218 622.526 365.355 623.015 365.631C623.503 365.902 623.882 366.32 624.151 366.885C624.424 367.445 624.561 368.158 624.561 369.024V375.43H623.095V369.129C623.095 368.329 622.899 367.709 622.505 367.272C622.116 366.83 621.576 366.609 620.884 366.609C620.404 366.609 619.974 366.716 619.593 366.931C619.216 367.145 618.918 367.458 618.699 367.869C618.483 368.281 618.376 368.779 618.376 369.366Z" fill="white" fill-opacity="0.5"/>
<path d="M629.403 375.43L626.497 365.349H628.037L630.099 373.067H630.198L632.235 365.349H633.8L635.812 373.041H635.911L637.973 365.349H639.513L636.607 375.43H635.166L633.08 367.685H632.931L630.844 375.43H629.403Z" fill="white" fill-opacity="0.5"/>
<path d="M644.258 375.667C643.654 375.667 643.105 375.546 642.612 375.306C642.12 375.061 641.728 374.708 641.439 374.249C641.149 373.785 641.004 373.225 641.004 372.569C641.004 371.991 641.112 371.523 641.327 371.164C641.542 370.801 641.83 370.516 642.19 370.311C642.55 370.105 642.948 369.952 643.382 369.851C643.821 369.746 644.262 369.663 644.705 369.602C645.285 369.523 645.755 369.464 646.115 369.425C646.479 369.381 646.744 369.309 646.91 369.208C647.08 369.108 647.164 368.932 647.164 368.683V368.631C647.164 367.983 646.997 367.48 646.661 367.121C646.33 366.762 645.827 366.583 645.152 366.583C644.453 366.583 643.904 366.745 643.507 367.068C643.109 367.392 642.83 367.738 642.668 368.105L641.277 367.58C641.526 366.968 641.857 366.491 642.271 366.15C642.689 365.804 643.144 365.563 643.637 365.428C644.134 365.288 644.622 365.218 645.103 365.218C645.409 365.218 645.761 365.257 646.158 365.336C646.56 365.41 646.947 365.565 647.32 365.802C647.696 366.038 648.009 366.395 648.257 366.872C648.506 367.348 648.63 367.987 648.63 368.788V375.43H647.164V374.065H647.09C646.99 374.284 646.825 374.518 646.593 374.767C646.361 375.017 646.053 375.229 645.668 375.404C645.283 375.579 644.813 375.667 644.258 375.667ZM644.482 374.275C645.061 374.275 645.55 374.155 645.947 373.914C646.349 373.674 646.651 373.363 646.854 372.982C647.061 372.601 647.164 372.201 647.164 371.781V370.363C647.102 370.442 646.966 370.514 646.755 370.58C646.548 370.641 646.307 370.696 646.034 370.744C645.765 370.788 645.502 370.827 645.245 370.862C644.993 370.893 644.788 370.919 644.631 370.941C644.25 370.993 643.894 371.079 643.562 371.197C643.235 371.311 642.97 371.484 642.768 371.715C642.569 371.943 642.469 372.254 642.469 372.647C642.469 373.186 642.658 373.593 643.035 373.868C643.415 374.14 643.898 374.275 644.482 374.275Z" fill="white" fill-opacity="0.5"/>
<path d="M652.771 361.988V375.43H651.305V361.988H652.771Z" fill="white" fill-opacity="0.5"/>
<path d="M659.454 375.64C658.535 375.64 657.742 375.426 657.076 374.997C656.413 374.564 655.902 373.96 655.542 373.186C655.186 372.407 655.008 371.501 655.008 370.468C655.008 369.436 655.186 368.526 655.542 367.738C655.902 366.946 656.403 366.329 657.045 365.887C657.691 365.441 658.444 365.218 659.305 365.218C659.802 365.218 660.293 365.305 660.777 365.48C661.261 365.655 661.702 365.939 662.1 366.333C662.497 366.723 662.814 367.239 663.05 367.882C663.286 368.526 663.404 369.318 663.404 370.258V370.915H656.051V369.576H661.914C661.914 369.007 661.806 368.499 661.591 368.053C661.38 367.607 661.077 367.254 660.684 366.996C660.295 366.738 659.835 366.609 659.305 366.609C658.721 366.609 658.216 366.762 657.79 367.068C657.368 367.37 657.043 367.764 656.815 368.25C656.587 368.736 656.473 369.256 656.473 369.812V370.705C656.473 371.466 656.598 372.111 656.846 372.641C657.099 373.166 657.448 373.566 657.896 373.842C658.343 374.113 658.862 374.249 659.454 374.249C659.839 374.249 660.187 374.192 660.498 374.078C660.812 373.96 661.083 373.785 661.311 373.553C661.539 373.317 661.715 373.024 661.839 372.674L663.255 373.094C663.106 373.601 662.855 374.048 662.504 374.433C662.152 374.813 661.717 375.111 661.199 375.325C660.682 375.535 660.1 375.64 659.454 375.64Z" fill="white" fill-opacity="0.5"/>
<path d="M672.39 367.607L671.074 368C670.991 367.769 670.869 367.543 670.707 367.324C670.55 367.101 670.335 366.917 670.061 366.773C669.788 366.629 669.438 366.556 669.012 366.556C668.428 366.556 667.942 366.699 667.552 366.983C667.167 367.263 666.975 367.62 666.975 368.053C666.975 368.438 667.107 368.742 667.372 368.965C667.637 369.188 668.051 369.374 668.614 369.523L670.03 369.891C670.883 370.11 671.519 370.444 671.937 370.895C672.355 371.341 672.564 371.917 672.564 372.621C672.564 373.199 672.407 373.715 672.092 374.17C671.781 374.625 671.347 374.984 670.788 375.247C670.229 375.509 669.579 375.64 668.838 375.64C667.865 375.64 667.06 375.417 666.422 374.971C665.785 374.525 665.381 373.873 665.211 373.015L666.602 372.647C666.735 373.19 666.985 373.597 667.354 373.868C667.726 374.14 668.213 374.275 668.813 374.275C669.496 374.275 670.039 374.122 670.44 373.816C670.846 373.505 671.049 373.133 671.049 372.7C671.049 372.35 670.933 372.057 670.701 371.82C670.469 371.58 670.113 371.4 669.633 371.282L668.043 370.888C667.169 370.67 666.528 370.331 666.118 369.871C665.712 369.407 665.509 368.827 665.509 368.132C665.509 367.563 665.66 367.06 665.963 366.622C666.269 366.185 666.685 365.841 667.211 365.592C667.741 365.342 668.341 365.218 669.012 365.218C669.956 365.218 670.697 365.436 671.235 365.874C671.777 366.311 672.162 366.889 672.39 367.607Z" fill="white" fill-opacity="0.5"/>
</svg>
