<svg width="70" height="164" viewBox="0 0 70 164" fill="none" xmlns="http://www.w3.org/2000/svg">
<path d="M1 1C24.6039 13.5308 70.5048 25.8643 49.7512 158" stroke="#0D8A9B" stroke-opacity="0.5" stroke-width="0.8" stroke-dasharray="4 4"/>
<circle cx="53" cy="147" r="17" fill="#01171B"/>
<circle cx="53" cy="147" r="16.5" stroke="#0D8A9B" stroke-opacity="0.5" stroke-dasharray="3 3"/>
<path d="M49.606 152.14C48.8687 152.14 48.192 151.935 47.576 151.524C46.9693 151.104 46.484 150.516 46.12 149.76C45.756 149.004 45.574 148.113 45.574 147.086C45.574 146.059 45.7513 145.173 46.106 144.426C46.47 143.67 46.9553 143.087 47.562 142.676C48.1687 142.265 48.8407 142.06 49.578 142.06C50.3247 142.06 51.0013 142.265 51.608 142.676C52.2147 143.087 52.6953 143.67 53.05 144.426C53.414 145.173 53.596 146.064 53.596 147.1C53.596 148.127 53.414 149.018 53.05 149.774C52.6953 150.53 52.2147 151.113 51.608 151.524C51.0107 151.935 50.3433 152.14 49.606 152.14ZM49.578 150.628C50.0633 150.628 50.4833 150.497 50.838 150.236C51.1927 149.975 51.468 149.583 51.664 149.06C51.8693 148.537 51.972 147.879 51.972 147.086C51.972 146.302 51.8693 145.649 51.664 145.126C51.468 144.603 51.188 144.216 50.824 143.964C50.4693 143.703 50.054 143.572 49.578 143.572C49.102 143.572 48.682 143.703 48.318 143.964C47.9633 144.216 47.688 144.603 47.492 145.126C47.296 145.639 47.198 146.293 47.198 147.086C47.198 147.879 47.296 148.537 47.492 149.06C47.688 149.583 47.9633 149.975 48.318 150.236C48.682 150.497 49.102 150.628 49.578 150.628ZM56.4978 152V142.2H58.0798V152H56.4978ZM54.5378 143.642V142.2H57.9398V143.642H54.5378Z" fill="#0D8A9B" fill-opacity="0.5"/>
</svg>
