<svg width="47" height="48" viewBox="0 0 47 48" fill="none" xmlns="http://www.w3.org/2000/svg">
<g id="Frame 569">
<path id="&#208;&#151;&#208;&#178;&#208;&#190;&#209;&#128;&#208;&#190;&#209;&#130;&#208;&#189;&#209;&#150;&#208;&#185; &#208;&#180;&#208;&#183;&#208;&#178;&#209;&#150;&#208;&#189;&#208;&#190;&#208;&#186;" d="M14.5559 4V18H13.1559V6.12L8.25586 14.32H8.05586L3.15586 6.12V18H1.75586V4H3.49586L8.15586 11.8L12.8159 4H14.5559ZM26.332 16.74C25.3186 17.74 24.0786 18.24 22.612 18.24C21.1453 18.24 19.8986 17.74 18.872 16.74C17.8586 15.7267 17.352 14.48 17.352 13C17.352 11.52 17.8586 10.28 18.872 9.28C19.8986 8.26667 21.1453 7.76 22.612 7.76C24.0786 7.76 25.3186 8.26667 26.332 9.28C27.3586 10.28 27.872 11.52 27.872 13C27.872 14.48 27.3586 15.7267 26.332 16.74ZM19.812 15.82C20.572 16.58 21.5053 16.96 22.612 16.96C23.7186 16.96 24.652 16.58 25.412 15.82C26.172 15.0467 26.552 14.1067 26.552 13C26.552 11.8933 26.172 10.96 25.412 10.2C24.652 9.42667 23.7186 9.04 22.612 9.04C21.5053 9.04 20.572 9.42667 19.812 10.2C19.052 10.96 18.672 11.8933 18.672 13C18.672 14.1067 19.052 15.0467 19.812 15.82ZM31.8009 9.66C32.4142 8.44667 33.4675 7.84 34.9609 7.84V9.12C34.0542 9.12 33.3009 9.38667 32.7009 9.92C32.1009 10.4533 31.8009 11.2933 31.8009 12.44V18H30.4809V8H31.8009V9.66ZM41.1845 7.76C42.6645 7.76 43.8578 8.28667 44.7645 9.34C45.6845 10.38 46.1445 11.6133 46.1445 13.04C46.1445 13.1867 46.1311 13.3933 46.1045 13.66H37.3245C37.4578 14.6733 37.8845 15.48 38.6045 16.08C39.3378 16.6667 40.2378 16.96 41.3045 16.96C42.0645 16.96 42.7178 16.8067 43.2645 16.5C43.8245 16.18 44.2445 15.7667 44.5245 15.26L45.6845 15.94C45.2445 16.6467 44.6445 17.2067 43.8845 17.62C43.1245 18.0333 42.2578 18.24 41.2845 18.24C39.7111 18.24 38.4311 17.7467 37.4445 16.76C36.4578 15.7733 35.9645 14.52 35.9645 13C35.9645 11.5067 36.4511 10.26 37.4245 9.26C38.3978 8.26 39.6511 7.76 41.1845 7.76ZM41.1845 9.04C40.1445 9.04 39.2711 9.35333 38.5645 9.98C37.8711 10.5933 37.4578 11.3933 37.3245 12.38H44.7845C44.6511 11.3267 44.2445 10.5067 43.5645 9.92C42.8845 9.33333 42.0911 9.04 41.1845 9.04Z" fill="black"/>
<path id="Line 2" d="M23.1464 48.3536C23.3417 48.5488 23.6583 48.5488 23.8536 48.3536L27.0355 45.1716C27.2308 44.9763 27.2308 44.6597 27.0355 44.4645C26.8403 44.2692 26.5237 44.2692 26.3284 44.4645L23.5 47.2929L20.6716 44.4645C20.4763 44.2692 20.1597 44.2692 19.9645 44.4645C19.7692 44.6597 19.7692 44.9763 19.9645 45.1716L23.1464 48.3536ZM23 32L23 48L24 48L24 32L23 32Z" fill="black"/>
</g>
</svg>
