<svg width="80" height="80" viewBox="0 0 80 80" fill="none" xmlns="http://www.w3.org/2000/svg">
<g id="Group 1000002179">
<g id="Group 3">
<circle id="Ellipse" cx="40" cy="40" r="40" fill="white" fill-opacity="0.4"/>
<circle id="Ellipse_2" cx="40.0003" cy="40.0001" r="22.8571" fill="black"/>
</g>
<g id="Group">
<g id="Group_2">
<g id="Group_3">
<path id="Vector" d="M56.1045 23.7084C47.1585 14.7654 32.6555 14.7624 23.7095 23.7084C14.7635 32.6524 14.7635 47.1554 23.7095 56.1024C32.6535 65.0484 47.1585 65.0484 56.1045 56.1024C65.0475 47.1564 65.0475 32.6534 56.1045 23.7084ZM37.0515 48.7044C37.0515 50.1634 35.8685 51.3444 34.4105 51.3444C32.9525 51.3444 31.7705 50.1634 31.7705 48.7044V31.1084C31.7705 29.6514 32.9525 28.4684 34.4105 28.4684C35.8685 28.4684 37.0515 29.6514 37.0515 31.1084V48.7044V48.7044ZM48.0415 48.7044C48.0415 50.1634 46.8585 51.3444 45.4015 51.3444C43.9445 51.3444 42.7615 50.1634 42.7615 48.7044V31.1084C42.7615 29.6514 43.9445 28.4684 45.4015 28.4684C46.8585 28.4684 48.0415 29.6514 48.0415 31.1084V48.7044Z" fill="white"/>
</g>
</g>
</g>
</g>
</svg>
