<svg width="32" height="32" viewBox="0 0 32 32" fill="none" xmlns="http://www.w3.org/2000/svg">
<path d="M23.9968 9.54669C23.9168 9.53336 23.8234 9.53336 23.7434 9.54669C21.9034 9.48003 20.4368 7.97336 20.4368 6.10669C20.4368 4.20002 21.9701 2.66669 23.8768 2.66669C25.7834 2.66669 27.3168 4.21336 27.3168 6.10669C27.3034 7.97336 25.8368 9.48003 23.9968 9.54669Z" stroke="#E58620" stroke-width="1.5" stroke-linecap="round" stroke-linejoin="round"/>
<path d="M22.6233 19.2533C24.4499 19.56 26.4633 19.24 27.8766 18.2933C29.7566 17.04 29.7566 14.9867 27.8766 13.7333C26.4499 12.7867 24.4099 12.4667 22.5833 12.7867" stroke="#E58620" stroke-width="1.5" stroke-linecap="round" stroke-linejoin="round"/>
<path d="M7.95672 9.54669C8.03672 9.53336 8.13005 9.53336 8.21005 9.54669C10.0501 9.48003 11.5167 7.97336 11.5167 6.10669C11.5167 4.20002 9.98339 2.66669 8.07672 2.66669C6.17005 2.66669 4.63672 4.21336 4.63672 6.10669C4.65005 7.97336 6.11672 9.48003 7.95672 9.54669Z" stroke="#E58620" stroke-width="1.5" stroke-linecap="round" stroke-linejoin="round"/>
<path d="M9.33008 19.2533C7.50341 19.56 5.49008 19.24 4.07675 18.2933C2.19675 17.04 2.19675 14.9867 4.07675 13.7333C5.50341 12.7867 7.54341 12.4667 9.37008 12.7867" stroke="#E58620" stroke-width="1.5" stroke-linecap="round" stroke-linejoin="round"/>
<path d="M15.9999 19.5067C15.9199 19.4933 15.8266 19.4933 15.7466 19.5067C13.9066 19.44 12.4399 17.9333 12.4399 16.0667C12.4399 14.16 13.9733 12.6266 15.8799 12.6266C17.7866 12.6266 19.3199 14.1733 19.3199 16.0667C19.3066 17.9333 17.8399 19.4533 15.9999 19.5067Z" stroke="#E58620" stroke-width="1.5" stroke-linecap="round" stroke-linejoin="round"/>
<path d="M12.12 23.7067C10.24 24.96 10.24 27.0133 12.12 28.2667C14.2533 29.6933 17.7466 29.6933 19.88 28.2667C21.76 27.0133 21.76 24.96 19.88 23.7067C17.76 22.2933 14.2533 22.2933 12.12 23.7067Z" stroke="#E58620" stroke-width="1.5" stroke-linecap="round" stroke-linejoin="round"/>
</svg>
