<svg width="20" height="20" viewBox="0 0 200 200" fill="none" xmlns="http://www.w3.org/2000/svg">
<path d="M190.37 134.46L143.26 113.35L143.13 113.29C140.684 112.244 138.016 111.824 135.368 112.069C132.719 112.313 130.173 113.214 127.96 114.69C127.699 114.862 127.449 115.049 127.21 115.25L102.87 136C87.45 128.51 71.53 112.71 64.04 97.4901L84.82 72.7801C85.02 72.5301 85.21 72.2801 85.39 72.0101C86.8342 69.8031 87.7105 67.2733 87.9408 64.6458C88.1711 62.0183 87.7483 59.3746 86.71 56.95V56.8301L65.54 9.64005C64.1674 6.4727 61.8072 3.8342 58.8118 2.11844C55.8165 0.402671 52.3465 -0.298339 48.92 0.120052C35.3697 1.90312 22.9318 8.55774 13.9293 18.841C4.92684 29.1243 -0.0245314 42.333 -3.15839e-05 56C-3.15839e-05 135.4 64.6 200 144 200C157.667 200.025 170.876 195.073 181.159 186.071C191.442 177.068 198.097 164.63 199.88 151.08C200.299 147.655 199.6 144.186 197.886 141.19C196.172 138.195 193.535 135.834 190.37 134.46ZM144 184C110.064 183.963 77.5279 170.465 53.5312 146.469C29.5346 122.472 16.037 89.9364 16 56C15.9623 46.2349 19.4805 36.79 25.8973 29.4291C32.3142 22.0682 41.191 17.2947 50.87 16.0001C50.866 16.04 50.866 16.0801 50.87 16.1201L71.87 63.1201L51.2 87.8601C50.9902 88.1015 50.7996 88.3589 50.63 88.6301C49.1251 90.9392 48.2423 93.598 48.0671 96.3487C47.8919 99.0993 48.4303 101.849 49.63 104.33C58.69 122.86 77.36 141.39 96.09 150.44C98.5896 151.629 101.355 152.148 104.115 151.948C106.876 151.749 109.538 150.836 111.84 149.3C112.097 149.127 112.344 148.94 112.58 148.74L136.89 128L183.89 149.05H184C182.721 158.743 177.955 167.637 170.592 174.07C163.23 180.503 153.777 184.033 144 184Z" fill="#D6943C"/>
</svg>
