<svg xmlns="http://www.w3.org/2000/svg" xmlns:xlink="http://www.w3.org/1999/xlink" width="1080" zoomAndPan="magnify" viewBox="0 0 810 809.999993" height="1080" preserveAspectRatio="xMidYMid meet" version="1.0"><defs><clipPath id="b36ba21503"><path d="M 631 15.945312 L 659 15.945312 L 659 65 L 631 65 Z M 631 15.945312 " clip-rule="nonzero"/></clipPath><clipPath id="a3f5a8aaa1"><path d="M 28.589844 333 L 267 333 L 267 460 L 28.589844 460 Z M 28.589844 333 " clip-rule="nonzero"/></clipPath><clipPath id="2ae66c3bbb"><path d="M 91 375 L 774 375 L 774 793.695312 L 91 793.695312 Z M 91 375 " clip-rule="nonzero"/></clipPath></defs><rect x="-81" width="972" fill="#ffffff" y="-80.999999" height="971.999992" fill-opacity="1"/><rect x="-81" width="972" fill="#ffffff" y="-80.999999" height="971.999992" fill-opacity="1"/><rect x="-81" width="972" fill="#ffffff" y="-80.999999" height="971.999992" fill-opacity="1"/><path fill="#ff971e" d="M 644.617188 186.246094 C 667.429688 186.246094 687.558594 167.472656 687.558594 143.335938 C 687.558594 120.539062 668.773438 100.425781 644.617188 100.425781 C 621.804688 100.425781 601.675781 119.199219 601.675781 143.335938 C 601.675781 167.472656 620.464844 186.246094 644.617188 186.246094 Z M 644.617188 186.246094 " fill-opacity="1" fill-rule="nonzero"/><g clip-path="url(#b36ba21503)"><path fill="#ff971e" d="M 644.617188 64.21875 C 652.667969 64.21875 658.035156 58.855469 658.035156 50.8125 L 658.035156 29.355469 C 658.035156 21.308594 652.667969 15.945312 644.617188 15.945312 C 636.566406 15.945312 631.199219 21.308594 631.199219 29.355469 L 631.199219 50.8125 C 631.199219 58.855469 636.566406 64.21875 644.617188 64.21875 Z M 644.617188 64.21875 " fill-opacity="1" fill-rule="nonzero"/></g><path fill="#ff971e" d="M 568.128906 88.359375 C 570.8125 91.039062 574.839844 92.378906 577.523438 92.378906 C 580.207031 92.378906 584.234375 91.039062 586.917969 88.359375 C 592.285156 82.992188 592.285156 74.949219 586.917969 69.585938 L 570.8125 53.492188 C 565.445312 48.128906 557.394531 48.128906 552.027344 53.492188 C 546.660156 58.855469 546.660156 66.902344 552.027344 72.265625 Z M 568.128906 88.359375 " fill-opacity="1" fill-rule="nonzero"/><path fill="#ff971e" d="M 529.214844 158.085938 L 550.683594 158.085938 C 558.738281 158.085938 564.105469 152.722656 564.105469 144.675781 C 564.105469 136.632812 558.738281 131.269531 550.683594 131.269531 L 529.214844 131.269531 C 521.164062 131.269531 515.796875 136.632812 515.796875 144.675781 C 515.796875 152.722656 521.164062 158.085938 529.214844 158.085938 Z M 529.214844 158.085938 " fill-opacity="1" fill-rule="nonzero"/><path fill="#ff971e" d="M 572.15625 235.863281 L 588.257812 219.769531 C 593.625 214.40625 593.625 206.359375 588.257812 200.996094 C 582.890625 195.632812 574.839844 195.632812 569.472656 200.996094 L 553.371094 217.089844 C 548 222.453125 548 230.5 553.371094 235.863281 C 556.054688 238.542969 560.078125 239.882812 562.761719 239.882812 C 565.445312 239.882812 569.472656 238.542969 572.15625 235.863281 Z M 572.15625 235.863281 " fill-opacity="1" fill-rule="nonzero"/><path fill="#ff971e" d="M 658.035156 260 L 658.035156 238.542969 C 658.035156 230.5 652.667969 225.132812 644.617188 225.132812 C 636.566406 225.132812 631.199219 230.5 631.199219 238.542969 L 631.199219 260 C 631.199219 268.042969 636.566406 273.410156 644.617188 273.410156 C 652.667969 273.410156 658.035156 266.703125 658.035156 260 Z M 658.035156 260 " fill-opacity="1" fill-rule="nonzero"/><path fill="#ff971e" d="M 715.738281 235.863281 C 718.421875 238.542969 722.445312 239.882812 725.132812 239.882812 C 727.816406 239.882812 731.839844 238.542969 734.523438 235.863281 C 739.890625 230.5 739.890625 222.453125 734.523438 217.089844 L 718.421875 200.996094 C 713.054688 195.632812 705.003906 195.632812 699.636719 200.996094 C 694.265625 206.359375 694.265625 214.40625 699.636719 219.769531 Z M 715.738281 235.863281 " fill-opacity="1" fill-rule="nonzero"/><path fill="#ff971e" d="M 723.789062 144.675781 C 723.789062 152.722656 729.15625 158.085938 737.207031 158.085938 L 758.679688 158.085938 C 766.730469 158.085938 772.097656 152.722656 772.097656 144.675781 C 772.097656 136.632812 766.730469 131.269531 758.679688 131.269531 L 737.207031 131.269531 C 730.5 131.269531 723.789062 136.632812 723.789062 144.675781 Z M 723.789062 144.675781 " fill-opacity="1" fill-rule="nonzero"/><path fill="#ff971e" d="M 710.371094 92.378906 C 714.394531 92.378906 717.078125 91.039062 719.761719 88.359375 L 735.867188 72.265625 C 741.234375 66.902344 741.234375 58.855469 735.867188 53.492188 C 730.5 48.128906 722.445312 48.128906 717.078125 53.492188 L 700.976562 69.585938 C 695.609375 74.949219 695.609375 82.992188 700.976562 88.359375 C 703.660156 91.039062 706.34375 92.378906 710.371094 92.378906 Z M 710.371094 92.378906 " fill-opacity="1" fill-rule="nonzero"/><path fill="#ff971e" d="M 471.515625 573.78125 C 450.042969 567.074219 424.546875 567.074219 403.078125 573.78125 L 346.71875 592.554688 C 340.007812 595.234375 335.984375 601.941406 338.667969 609.988281 C 341.351562 616.691406 348.058594 620.714844 356.113281 618.03125 L 413.8125 599.257812 C 429.914062 593.894531 448.703125 593.894531 466.148438 599.257812 L 523.847656 618.03125 C 534.582031 622.054688 546.660156 623.394531 558.738281 623.394531 C 570.8125 623.394531 581.550781 622.054688 593.625 618.03125 L 651.328125 599.257812 C 667.429688 593.894531 686.214844 593.894531 703.660156 599.257812 L 761.363281 618.03125 C 768.070312 620.714844 776.121094 616.691406 778.804688 609.988281 C 781.492188 603.28125 777.464844 595.234375 770.753906 592.554688 L 713.054688 573.78125 C 691.582031 567.074219 666.089844 567.074219 644.617188 573.78125 L 580.207031 592.554688 C 564.105469 597.917969 545.316406 597.917969 527.875 592.554688 Z M 471.515625 573.78125 " fill-opacity="1" fill-rule="nonzero"/><path fill="#ff971e" d="M 354.769531 701.171875 L 412.472656 682.398438 C 428.574219 677.035156 447.359375 677.035156 464.804688 682.398438 L 522.507812 701.171875 C 533.242188 705.195312 545.316406 706.535156 557.394531 706.535156 C 569.472656 706.535156 580.207031 705.195312 592.285156 701.171875 L 649.984375 682.398438 C 666.089844 677.035156 684.875 677.035156 702.320312 682.398438 L 760.019531 701.171875 C 766.730469 703.851562 774.78125 699.828125 777.464844 693.125 C 780.148438 686.421875 776.121094 678.375 769.414062 675.691406 L 711.710938 656.917969 C 690.242188 650.214844 664.746094 650.214844 643.277344 656.917969 L 585.574219 675.691406 C 569.472656 681.058594 550.6875 681.058594 533.242188 675.691406 L 475.539062 656.917969 C 454.070312 650.214844 428.574219 650.214844 407.101562 656.917969 L 346.71875 675.691406 C 340.007812 678.375 335.984375 685.078125 338.667969 693.125 C 340.007812 699.828125 348.058594 703.851562 354.769531 701.171875 Z M 354.769531 701.171875 " fill-opacity="1" fill-rule="nonzero"/><path fill="#ff971e" d="M 162.878906 202.339844 C 170.929688 202.339844 176.296875 209.042969 176.296875 215.746094 L 174.957031 242.566406 L 193.742188 262.679688 L 219.238281 264.023438 C 223.265625 264.023438 225.949219 265.363281 228.632812 268.042969 C 231.316406 270.726562 232.65625 274.75 232.65625 277.429688 L 231.316406 302.910156 L 246.078125 320.339844 C 254.128906 323.023438 262.179688 325.707031 268.890625 328.386719 C 268.890625 325.707031 270.230469 321.683594 270.230469 317.660156 C 270.230469 278.773438 262.179688 226.476562 224.605469 191.609375 C 195.085938 164.792969 152.144531 152.722656 95.785156 154.0625 L 137.382812 199.65625 Z M 162.878906 202.339844 " fill-opacity="1" fill-rule="nonzero"/><path fill="#ff971e" d="M 474.199219 379.34375 C 424.546875 343.136719 357.453125 353.867188 321.222656 363.25 C 321.222656 363.25 319.878906 363.25 319.878906 363.25 L 368.1875 394.09375 L 393.683594 388.730469 C 397.710938 387.390625 400.394531 388.730469 404.417969 390.070312 C 407.101562 391.410156 409.789062 395.433594 409.789062 398.117188 L 415.15625 423.59375 L 437.96875 438.34375 L 463.460938 432.980469 C 467.488281 431.640625 470.171875 432.980469 474.199219 434.320312 C 476.882812 435.664062 479.566406 439.6875 479.566406 442.367188 L 484.933594 467.847656 L 535.925781 501.371094 C 529.214844 445.050781 507.746094 403.480469 474.199219 379.34375 Z M 474.199219 379.34375 " fill-opacity="1" fill-rule="nonzero"/><g clip-path="url(#a3f5a8aaa1)"><path fill="#ff971e" d="M 101.152344 403.480469 C 103.835938 402.140625 107.863281 402.140625 111.886719 403.480469 L 137.382812 412.867188 L 162.878906 402.140625 L 172.273438 378.003906 C 173.613281 375.320312 176.296875 372.636719 178.980469 369.957031 C 181.667969 368.617188 185.691406 368.617188 189.71875 369.957031 L 213.871094 379.34375 L 266.207031 356.546875 C 244.734375 347.160156 208.503906 333.75 170.929688 333.75 C 152.144531 333.75 132.015625 337.773438 113.230469 345.820312 C 75.65625 363.25 46.136719 402.140625 28.691406 459.800781 L 85.050781 435.664062 L 94.445312 411.527344 C 95.785156 407.503906 97.128906 404.820312 101.152344 403.480469 Z M 101.152344 403.480469 " fill-opacity="1" fill-rule="nonzero"/></g><path fill="#ff971e" d="M 311.828125 337.773438 L 338.667969 316.320312 L 341.351562 290.839844 C 342.691406 284.136719 349.402344 278.773438 356.113281 278.773438 L 381.609375 281.453125 L 403.078125 264.023438 L 405.761719 237.203125 C 405.761719 233.179688 408.445312 230.5 411.128906 227.816406 C 413.8125 225.132812 417.839844 225.132812 420.523438 225.132812 L 447.359375 227.816406 L 495.667969 190.269531 C 437.96875 179.542969 391 184.90625 357.453125 209.042969 C 310.488281 242.566406 297.070312 301.566406 293.042969 339.113281 C 293.042969 339.113281 294.386719 339.113281 294.386719 339.113281 C 299.753906 341.796875 305.121094 339.113281 311.828125 337.773438 Z M 311.828125 337.773438 " fill-opacity="1" fill-rule="nonzero"/><g clip-path="url(#2ae66c3bbb)"><path fill="#ff971e" d="M 758.679688 766.878906 L 326.589844 766.878906 C 302.4375 726.648438 286.332031 685.078125 278.28125 644.851562 L 247.417969 644.851562 C 239.367188 644.851562 234 639.488281 234 631.441406 C 234 623.394531 239.367188 618.03125 247.417969 618.03125 L 272.914062 618.03125 C 254.128906 505.390625 282.308594 408.84375 293.042969 378.003906 L 289.015625 375.320312 L 244.734375 394.09375 C 231.316406 415.550781 213.871094 449.074219 201.792969 496.003906 L 223.265625 496.003906 C 231.316406 496.003906 236.683594 501.371094 236.683594 509.414062 C 236.683594 517.460938 231.316406 522.824219 223.265625 522.824219 L 195.085938 522.824219 C 184.351562 571.097656 180.324219 630.101562 191.058594 699.828125 L 223.265625 699.828125 C 231.316406 699.828125 236.683594 705.195312 236.683594 713.238281 C 236.683594 721.285156 231.316406 726.648438 223.265625 726.648438 L 196.425781 726.648438 C 199.109375 740.058594 201.792969 753.46875 205.820312 766.878906 L 105.179688 766.878906 C 97.128906 766.878906 91.757812 772.242188 91.757812 780.285156 C 91.757812 788.332031 97.128906 793.695312 105.179688 793.695312 L 760.019531 793.695312 C 768.070312 793.695312 773.4375 788.332031 773.4375 780.285156 C 773.4375 772.242188 766.730469 766.878906 758.679688 766.878906 Z M 758.679688 766.878906 " fill-opacity="1" fill-rule="nonzero"/></g></svg>