<svg width="35" height="624" viewBox="0 0 35 624" fill="none" xmlns="http://www.w3.org/2000/svg">
<g id="Group 1767270">
<g id="Group 1767269">
<line id="Line 160" x1="17.5" y1="-2.18557e-08" x2="17.5" y2="552" stroke="url(#paint0_linear_266_1507)" stroke-opacity="0.2"/>
<g id="Group 1767268">
<g id="Ellipse 322" filter="url(#filter0_b_266_1507)">
<circle cx="17.5" cy="221.5" r="17.5" fill="white" fill-opacity="0.3"/>
</g>
<path id="3" d="M12.4992 218.55C12.5926 217.897 12.7726 217.32 13.0392 216.82C13.3059 216.313 13.6426 215.89 14.0492 215.55C14.4626 215.21 14.9326 214.953 15.4592 214.78C15.9926 214.6 16.5659 214.51 17.1792 214.51C17.7859 214.51 18.3459 214.597 18.8592 214.77C19.3726 214.943 19.8126 215.19 20.1792 215.51C20.5526 215.83 20.8426 216.217 21.0492 216.67C21.2559 217.123 21.3592 217.627 21.3592 218.18C21.3592 218.633 21.2992 219.04 21.1792 219.4C21.0659 219.753 20.8992 220.063 20.6792 220.33C20.4659 220.597 20.2059 220.823 19.8992 221.01C19.5926 221.197 19.2492 221.35 18.8692 221.47C19.8026 221.71 20.5026 222.123 20.9692 222.71C21.4426 223.29 21.6792 224.017 21.6792 224.89C21.6792 225.55 21.5526 226.143 21.2992 226.67C21.0526 227.197 20.7126 227.647 20.2792 228.02C19.8459 228.387 19.3392 228.67 18.7592 228.87C18.1859 229.063 17.5692 229.16 16.9092 229.16C16.1492 229.16 15.4992 229.067 14.9592 228.88C14.4192 228.687 13.9626 228.423 13.5892 228.09C13.2159 227.757 12.9092 227.363 12.6692 226.91C12.4292 226.45 12.2259 225.953 12.0592 225.42L12.8292 225.1C13.0292 225.013 13.2226 224.99 13.4092 225.03C13.6026 225.07 13.7426 225.18 13.8292 225.36C13.9159 225.547 14.0226 225.77 14.1492 226.03C14.2826 226.29 14.4626 226.54 14.6892 226.78C14.9159 227.02 15.2026 227.223 15.5492 227.39C15.9026 227.557 16.3492 227.64 16.8892 227.64C17.3892 227.64 17.8259 227.56 18.1992 227.4C18.5792 227.233 18.8926 227.02 19.1392 226.76C19.3926 226.5 19.5826 226.21 19.7092 225.89C19.8359 225.57 19.8992 225.253 19.8992 224.94C19.8992 224.553 19.8492 224.2 19.7492 223.88C19.6492 223.56 19.4626 223.283 19.1892 223.05C18.9159 222.817 18.5392 222.633 18.0592 222.5C17.5859 222.367 16.9759 222.3 16.2292 222.3V221.01C16.8426 221.003 17.3626 220.937 17.7892 220.81C18.2226 220.683 18.5726 220.51 18.8392 220.29C19.1126 220.07 19.3092 219.807 19.4292 219.5C19.5559 219.193 19.6192 218.853 19.6192 218.48C19.6192 218.067 19.5526 217.707 19.4192 217.4C19.2926 217.093 19.1159 216.84 18.8892 216.64C18.6626 216.44 18.3926 216.29 18.0792 216.19C17.7726 216.09 17.4392 216.04 17.0792 216.04C16.7192 216.04 16.3826 216.093 16.0692 216.2C15.7626 216.307 15.4892 216.457 15.2492 216.65C15.0159 216.837 14.8192 217.06 14.6592 217.32C14.4992 217.58 14.3859 217.867 14.3192 218.18C14.2326 218.413 14.1226 218.57 13.9892 218.65C13.8626 218.723 13.6759 218.743 13.4292 218.71L12.4992 218.55Z" fill="white"/>
<circle id="Ellipse 324" cx="17.5" cy="99.5" r="3.5" fill="white"/>
<circle id="Ellipse 323" cx="17.5" cy="342.5" r="3.5" fill="white"/>
<circle id="Ellipse 325" cx="17.5" cy="450.5" r="3.5" fill="white"/>
</g>
</g>
<path id="03/05" d="M25.2 617.4C25.2 618.44 24.9067 619.393 24.32 620.26C23.7333 621.113 22.9067 621.793 21.84 622.3C20.76 622.807 19.4933 623.06 18.04 623.06C16.5867 623.06 15.3267 622.813 14.26 622.32C13.1933 621.813 12.3733 621.133 11.8 620.28C11.2133 619.427 10.92 618.487 10.92 617.46C10.92 616.407 11.2133 615.453 11.8 614.6C12.3733 613.747 13.1933 613.073 14.26 612.58C15.3267 612.073 16.5933 611.82 18.06 611.82C19.5133 611.82 20.78 612.073 21.86 612.58C22.9267 613.073 23.7533 613.747 24.34 614.6C24.9133 615.44 25.2 616.373 25.2 617.4ZM23.42 617.44C23.42 616.707 23.22 616.067 22.82 615.52C22.4067 614.96 21.8 614.52 21 614.2C20.2 613.88 19.2133 613.72 18.04 613.72C16.8667 613.72 15.8867 613.88 15.1 614.2C14.3 614.52 13.7 614.96 13.3 615.52C12.8867 616.08 12.68 616.727 12.68 617.46C12.68 618.18 12.8867 618.82 13.3 619.38C13.7 619.94 14.3 620.38 15.1 620.7C15.8867 621.007 16.8667 621.16 18.04 621.16C19.2133 621.16 20.2 621.007 21 620.7C21.8 620.38 22.4067 619.94 22.82 619.38C23.22 618.82 23.42 618.173 23.42 617.44ZM25.2 605.935C25.2 606.842 25.0333 607.668 24.7 608.415C24.3533 609.148 23.8533 609.768 23.2 610.275L21.92 608.995C22.3867 608.688 22.76 608.268 23.04 607.735C23.3067 607.202 23.44 606.608 23.44 605.955C23.44 605.342 23.3267 604.815 23.1 604.375C22.86 603.922 22.5267 603.568 22.1 603.315C21.6733 603.048 21.18 602.915 20.62 602.915C20.0467 602.915 19.5533 603.048 19.14 603.315C18.7133 603.568 18.3867 603.928 18.16 604.395C17.9333 604.862 17.82 605.415 17.82 606.055C17.82 606.295 17.84 606.535 17.88 606.775C17.9067 607.015 17.9533 607.248 18.02 607.475L16.94 606.675C16.82 606.422 16.7267 606.148 16.66 605.855C16.5933 605.562 16.56 605.268 16.56 604.975C16.56 604.228 16.7333 603.562 17.08 602.975C17.4267 602.375 17.9133 601.902 18.54 601.555C19.1667 601.195 19.8933 601.015 20.72 601.015C21.6 601.015 22.38 601.228 23.06 601.655C23.7267 602.068 24.2533 602.642 24.64 603.375C25.0133 604.108 25.2 604.962 25.2 605.935ZM18.02 607.475H16.88L12.26 603.415L12.24 601.175L16.98 605.355L18.02 607.475ZM12.8 609.615H11.12L11.12 601.175H12.24L12.8 602.815L12.8 609.615ZM25.8 599.833L10.34 594.273V592.593L25.8 598.133V599.833ZM25.2 585.72C25.2 586.76 24.9067 587.714 24.32 588.58C23.7333 589.434 22.9067 590.114 21.84 590.62C20.76 591.127 19.4933 591.38 18.04 591.38C16.5867 591.38 15.3267 591.134 14.26 590.64C13.1933 590.134 12.3733 589.454 11.8 588.6C11.2133 587.747 10.92 586.807 10.92 585.78C10.92 584.727 11.2133 583.774 11.8 582.92C12.3733 582.067 13.1933 581.394 14.26 580.9C15.3267 580.394 16.5933 580.14 18.06 580.14C19.5133 580.14 20.78 580.394 21.86 580.9C22.9267 581.394 23.7533 582.067 24.34 582.92C24.9133 583.76 25.2 584.694 25.2 585.72ZM23.42 585.76C23.42 585.027 23.22 584.387 22.82 583.84C22.4067 583.28 21.8 582.84 21 582.52C20.2 582.2 19.2133 582.04 18.04 582.04C16.8667 582.04 15.8867 582.2 15.1 582.52C14.3 582.84 13.7 583.28 13.3 583.84C12.8867 584.4 12.68 585.047 12.68 585.78C12.68 586.5 12.8867 587.14 13.3 587.7C13.7 588.26 14.3 588.7 15.1 589.02C15.8867 589.327 16.8667 589.48 18.04 589.48C19.2133 589.48 20.2 589.327 21 589.02C21.8 588.7 22.4067 588.26 22.82 587.7C23.22 587.14 23.42 586.494 23.42 585.76ZM25.2 574.235C25.2 575.182 25.0333 576.029 24.7 576.775C24.3533 577.509 23.8533 578.129 23.2 578.635L21.92 577.355C22.3867 577.049 22.76 576.629 23.04 576.095C23.3067 575.549 23.44 574.942 23.44 574.275C23.44 573.649 23.32 573.102 23.08 572.635C22.84 572.155 22.5067 571.782 22.08 571.515C21.64 571.235 21.12 571.095 20.52 571.095C19.9067 571.095 19.3867 571.229 18.96 571.495C18.5333 571.762 18.2133 572.122 18 572.575C17.7733 573.015 17.66 573.502 17.66 574.035C17.66 574.582 17.7267 575.082 17.86 575.535C17.9933 575.975 18.22 576.395 18.54 576.795L17.34 576.775C17.06 576.549 16.8333 576.289 16.66 575.995C16.4867 575.702 16.3533 575.369 16.26 574.995C16.1667 574.622 16.12 574.189 16.12 573.695C16.12 572.735 16.32 571.922 16.72 571.255C17.12 570.589 17.66 570.082 18.34 569.735C19.02 569.375 19.78 569.195 20.62 569.195C21.5 569.195 22.2867 569.415 22.98 569.855C23.6733 570.282 24.22 570.875 24.62 571.635C25.0067 572.395 25.2 573.262 25.2 574.235ZM18.54 576.795L17.52 577.815L11.12 577.195V575.475L17.7 576.175L18.54 576.795ZM12.8 576.815L11.12 577.195L11.12 569.895H12.8L12.8 576.815Z" fill="white" fill-opacity="0.9"/>
</g>
<defs>
<filter id="filter0_b_266_1507" x="-4" y="200" width="43" height="43" filterUnits="userSpaceOnUse" color-interpolation-filters="sRGB">
<feFlood flood-opacity="0" result="BackgroundImageFix"/>
<feGaussianBlur in="BackgroundImage" stdDeviation="2"/>
<feComposite in2="SourceAlpha" operator="in" result="effect1_backgroundBlur_266_1507"/>
<feBlend mode="normal" in="SourceGraphic" in2="effect1_backgroundBlur_266_1507" result="shape"/>
</filter>
<linearGradient id="paint0_linear_266_1507" x1="17" y1="-86.5" x2="17" y2="637.5" gradientUnits="userSpaceOnUse">
<stop stop-color="white" stop-opacity="0"/>
<stop offset="0.515625" stop-color="white"/>
<stop offset="1" stop-color="white" stop-opacity="0"/>
</linearGradient>
</defs>
</svg>
