<svg width="150" height="150" viewBox="0 0 150 150" fill="none" xmlns="http://www.w3.org/2000/svg">
<path fill-rule="evenodd" clip-rule="evenodd" d="M15.4313 62.3062C15.8667 61.8697 16.384 61.5234 16.9535 61.2871C17.5229 61.0508 18.1334 60.9291 18.75 60.9291C19.3666 60.9291 19.9771 61.0508 20.5466 61.2871C21.1161 61.5234 21.6333 61.8697 22.0688 62.3062L75 115.247L127.931 62.3062C128.811 61.4261 130.005 60.9316 131.25 60.9316C132.495 60.9316 133.689 61.4261 134.569 62.3062C135.449 63.1864 135.943 64.3802 135.943 65.625C135.943 66.8698 135.449 68.0636 134.569 68.9438L78.3188 125.194C77.8833 125.63 77.3661 125.977 76.7966 126.213C76.2271 126.449 75.6166 126.571 75 126.571C74.3834 126.571 73.7729 126.449 73.2035 126.213C72.634 125.977 72.1167 125.63 71.6813 125.194L15.4313 68.9438C14.9947 68.5083 14.6484 67.9911 14.4121 67.4216C14.1758 66.8521 14.0541 66.2416 14.0541 65.625C14.0541 65.0084 14.1758 64.3979 14.4121 63.8284C14.6484 63.2589 14.9947 62.7417 15.4313 62.3062Z" fill="white"/>
<path fill-rule="evenodd" clip-rule="evenodd" d="M15.4313 24.8062C15.8667 24.3697 16.384 24.0234 16.9535 23.7871C17.5229 23.5508 18.1334 23.4291 18.75 23.4291C19.3666 23.4291 19.9771 23.5508 20.5466 23.7871C21.1161 24.0234 21.6333 24.3697 22.0688 24.8062L75 77.7469L127.931 24.8062C128.367 24.3704 128.884 24.0247 129.454 23.7888C130.023 23.553 130.634 23.4316 131.25 23.4316C131.866 23.4316 132.477 23.553 133.046 23.7888C133.616 24.0247 134.133 24.3704 134.569 24.8062C135.005 25.2421 135.35 25.7595 135.586 26.3289C135.822 26.8983 135.943 27.5086 135.943 28.125C135.943 28.7413 135.822 29.3517 135.586 29.9211C135.35 30.4905 135.005 31.0079 134.569 31.4437L78.3188 87.6937C77.8833 88.1303 77.3661 88.4766 76.7966 88.7129C76.2271 88.9492 75.6166 89.0709 75 89.0709C74.3834 89.0709 73.7729 88.9492 73.2035 88.7129C72.634 88.4766 72.1167 88.1303 71.6813 87.6937L15.4313 31.4437C14.9947 31.0083 14.6484 30.4911 14.4121 29.9216C14.1758 29.3521 14.0541 28.7416 14.0541 28.125C14.0541 27.5084 14.1758 26.8979 14.4121 26.3284C14.6484 25.7589 14.9947 25.2417 15.4313 24.8062Z" fill="white"/>
</svg>
