<svg width="62" height="62" viewBox="0 0 62 62" fill="none" xmlns="http://www.w3.org/2000/svg">
<g id="Group 48095581">
<circle id="Ellipse 320" cx="31" cy="31" r="30.6" fill="white" stroke="#0D8A9B" stroke-width="0.8" stroke-dasharray="8 8"/>
<path id="02" d="M19.5223 30.52C19.5223 28.2133 19.9089 26.4133 20.6823 25.12C21.4689 23.8133 22.8156 23.16 24.7223 23.16C26.6289 23.16 27.9689 23.8133 28.7423 25.12C29.5289 26.4133 29.9223 28.2133 29.9223 30.52C29.9223 32.8533 29.5289 34.68 28.7423 36C27.9689 37.3067 26.6289 37.96 24.7223 37.96C22.8156 37.96 21.4689 37.3067 20.6823 36C19.9089 34.68 19.5223 32.8533 19.5223 30.52ZM27.6823 30.52C27.6823 29.44 27.6089 28.5267 27.4623 27.78C27.3289 27.0333 27.0489 26.4267 26.6223 25.96C26.1956 25.48 25.5623 25.24 24.7223 25.24C23.8823 25.24 23.2489 25.48 22.8223 25.96C22.3956 26.4267 22.1089 27.0333 21.9623 27.78C21.8289 28.5267 21.7623 29.44 21.7623 30.52C21.7623 31.64 21.8289 32.58 21.9623 33.34C22.0956 34.1 22.3756 34.7133 22.8023 35.18C23.2423 35.6467 23.8823 35.88 24.7223 35.88C25.5623 35.88 26.1956 35.6467 26.6223 35.18C27.0623 34.7133 27.3489 34.1 27.4823 33.34C27.6156 32.58 27.6823 31.64 27.6823 30.52ZM33.5948 34.9C34.8748 33.7933 35.8814 32.8867 36.6148 32.18C37.3614 31.46 37.9814 30.7133 38.4748 29.94C38.9681 29.1667 39.2148 28.3933 39.2148 27.62C39.2148 26.82 39.0214 26.1933 38.6348 25.74C38.2614 25.2867 37.6681 25.06 36.8548 25.06C36.0681 25.06 35.4548 25.3133 35.0148 25.82C34.5881 26.3133 34.3614 26.98 34.3348 27.82H32.1348C32.1748 26.3 32.6281 25.14 33.4948 24.34C34.3748 23.5267 35.4881 23.12 36.8348 23.12C38.2881 23.12 39.4214 23.52 40.2348 24.32C41.0614 25.12 41.4748 26.1867 41.4748 27.52C41.4748 28.48 41.2281 29.4067 40.7348 30.3C40.2548 31.18 39.6748 31.9733 38.9948 32.68C38.3281 33.3733 37.4748 34.18 36.4348 35.1L35.5348 35.9H41.8748V37.8H32.1548V36.14L33.5948 34.9Z" fill="#0D8A9B"/>
</g>
</svg>
