<svg width="48" height="48" viewBox="0 0 48 48" fill="none" xmlns="http://www.w3.org/2000/svg">
<g id="Group 1000002178">
<path id="Ellipse 1" opacity="0.95" d="M48 24C48 24 37.2548 24 24 24C10.7452 24 0 24 0 24C0 10.7452 10.7452 0 24 0C37.2548 0 48 10.7452 48 24Z" fill="#161616"/>
<path id="Ellipse 2" opacity="0.95" d="M2.74181e-06 24C2.74181e-06 24 10.7452 24 24 24C37.2548 24 48 24 48 24C48 37.2548 37.2548 48 24 48C10.7452 48 2.74181e-06 37.2548 2.74181e-06 24Z" fill="#161616"/>
<g id="vuesax/twotone/quote-up">
<g id="vuesax/twotone/quote-up_2">
<g id="quote-up">
<g id="Group 99">
<path id="Vector" d="M14 24.3502H19.8C21.33 24.3502 22.38 25.5102 22.38 26.9302V30.1503C22.38 31.5703 21.33 32.7302 19.8 32.7302H16.58C15.16 32.7302 14 31.5703 14 30.1503V24.3502" stroke="#E58620" stroke-width="1.5" stroke-linecap="round" stroke-linejoin="round"/>
<path id="Vector_2" d="M14 24.3502C14 18.3002 15.13 17.3003 18.53 15.2803" stroke="#E58620" stroke-width="1.5" stroke-linecap="round" stroke-linejoin="round"/>
</g>
<g id="Group">
<path id="Vector_3" d="M25.6299 24.3502H31.4299C32.9599 24.3502 34.0099 25.5102 34.0099 26.9302V30.1503C34.0099 31.5703 32.9599 32.7302 31.4299 32.7302H28.2099C26.7899 32.7302 25.6299 31.5703 25.6299 30.1503V24.3502" stroke="#E58620" stroke-width="1.5" stroke-linecap="round" stroke-linejoin="round"/>
<path id="Vector_4" d="M25.6299 24.3502C25.6299 18.3002 26.7599 17.3003 30.1599 15.2803" stroke="#E58620" stroke-width="1.5" stroke-linecap="round" stroke-linejoin="round"/>
</g>
</g>
</g>
</g>
</g>
</svg>
