<svg width="62" height="62" viewBox="0 0 62 62" fill="none" xmlns="http://www.w3.org/2000/svg">
<g id="Group 48095588">
<circle id="Ellipse 320" cx="31" cy="31" r="30.6" fill="white" stroke="#E58620" stroke-width="0.8" stroke-dasharray="8 8"/>
<path id="03" d="M25.6269 39.2C24.5735 39.2 23.6069 38.9067 22.7269 38.32C21.8602 37.72 21.1669 36.88 20.6469 35.8C20.1269 34.72 19.8669 33.4467 19.8669 31.98C19.8669 30.5133 20.1202 29.2467 20.6269 28.18C21.1469 27.1 21.8402 26.2667 22.7069 25.68C23.5735 25.0933 24.5335 24.8 25.5869 24.8C26.6535 24.8 27.6202 25.0933 28.4869 25.68C29.3535 26.2667 30.0402 27.1 30.5469 28.18C31.0669 29.2467 31.3269 30.52 31.3269 32C31.3269 33.4667 31.0669 34.74 30.5469 35.82C30.0402 36.9 29.3535 37.7333 28.4869 38.32C27.6335 38.9067 26.6802 39.2 25.6269 39.2ZM25.5869 37.04C26.2802 37.04 26.8802 36.8533 27.3869 36.48C27.8935 36.1067 28.2869 35.5467 28.5669 34.8C28.8602 34.0533 29.0069 33.1133 29.0069 31.98C29.0069 30.86 28.8602 29.9267 28.5669 29.18C28.2869 28.4333 27.8869 27.88 27.3669 27.52C26.8602 27.1467 26.2669 26.96 25.5869 26.96C24.9069 26.96 24.3069 27.1467 23.7869 27.52C23.2802 27.88 22.8869 28.4333 22.6069 29.18C22.3269 29.9133 22.1869 30.8467 22.1869 31.98C22.1869 33.1133 22.3269 34.0533 22.6069 34.8C22.8869 35.5467 23.2802 36.1067 23.7869 36.48C24.3069 36.8533 24.9069 37.04 25.5869 37.04ZM37.0723 39.2C36.139 39.2 35.2923 39.0333 34.5323 38.7C33.7857 38.3533 33.1523 37.8533 32.6323 37.2L34.1923 35.64C34.4723 36.0667 34.8657 36.4067 35.3723 36.66C35.879 36.9133 36.4323 37.04 37.0323 37.04C37.6057 37.04 38.099 36.9333 38.5123 36.72C38.9257 36.5067 39.2457 36.2067 39.4723 35.82C39.7123 35.4333 39.8323 34.9867 39.8323 34.48C39.8323 33.9467 39.7123 33.4933 39.4723 33.12C39.2457 32.7467 38.9123 32.46 38.4723 32.26C38.0457 32.0467 37.5257 31.94 36.9123 31.94C36.6723 31.94 36.4257 31.96 36.1723 32C35.919 32.0267 35.6923 32.0733 35.4923 32.14L36.5123 30.82C36.7923 30.7133 37.0857 30.6267 37.3923 30.56C37.7123 30.48 38.019 30.44 38.3123 30.44C39.0323 30.44 39.679 30.6133 40.2523 30.96C40.839 31.3067 41.299 31.7933 41.6323 32.42C41.979 33.0333 42.1523 33.76 42.1523 34.6C42.1523 35.5067 41.939 36.3067 41.5123 37C41.0857 37.6933 40.4923 38.2333 39.7323 38.62C38.9723 39.0067 38.0857 39.2 37.0723 39.2ZM35.4923 32.14V30.78L39.2323 26.42L41.9923 26.36L38.0923 30.84L35.4923 32.14ZM33.3323 27.06V25H41.9923V26.36L40.0123 27.06H33.3323Z" fill="#E58620"/>
</g>
</svg>
