<svg width="50" height="50" viewBox="0 0 50 50" fill="none" xmlns="http://www.w3.org/2000/svg">
<g id="Group 1000002180">
<g id="muted 1" clip-path="url(#clip0_326_43)">
<path id="Vector" d="M10 33H3C1.897 33 1 32.102 1 31V19C1 17.898 1.897 17 3 17H10" stroke="white" stroke-width="2.08" stroke-miterlimit="10" stroke-linejoin="round"/>
<path id="Vector_2" d="M9.604 32.43C9.256 32.129 9 31.391 9 30.754V19.247C9 18.61 9.256 17.8591 9.604 17.5581L22.274 4.92605C23.905 3.27005 26 3.89805 26 6.32705V43.315C26 45.929 24.104 46.919 22.215 45.001L9.604 32.43Z" stroke="white" stroke-width="1.9797" stroke-miterlimit="10" stroke-linejoin="round"/>
</g>
<path id="Vector_3" d="M32.0029 29.3631C31.4295 29.362 30.884 29.1074 30.505 28.6633C30.154 28.2567 29.9732 27.7231 30.0032 27.1796C30.0333 26.6356 30.271 26.1264 30.6652 25.7632C31.5248 24.9826 32.0171 23.8588 32.0171 22.678C32.0171 21.4978 31.5249 20.374 30.6652 19.5934C30.1334 19.101 29.8973 18.354 30.0454 17.6335C30.194 16.9131 30.7036 16.329 31.3835 16.101C32.0629 15.8735 32.8091 16.0364 33.3404 16.5282C35.0596 18.0901 36.0447 20.3377 36.0447 22.6986C36.0447 25.0602 35.0597 27.3072 33.3404 28.869C32.9684 29.197 32.4925 29.3729 32.0029 29.3631Z" fill="white"/>
<path id="Vector_4" d="M38.0029 33.5156C37.4326 33.5205 36.8877 33.2729 36.505 32.837C36.154 32.4304 35.9732 31.8967 36.0032 31.3527C36.0333 30.8093 36.271 30.3 36.6652 29.9368C38.7871 27.9856 40.0003 25.1947 40.0003 22.2647C40.0003 19.3347 38.7871 16.5443 36.6652 14.5932C36.1334 14.1008 35.8973 13.3538 36.0454 12.6333C36.1935 11.9129 36.7036 11.3287 37.3835 11.1013C38.0629 10.8733 38.8091 11.0362 39.3405 11.5286C42.3087 14.2598 44.0053 18.1654 44.0053 22.2647C44.0053 26.3646 42.3087 30.2702 39.3405 33.0014C38.9715 33.3369 38.4951 33.5199 38.0028 33.5155L38.0029 33.5156Z" fill="white"/>
</g>
<defs>
<clipPath id="clip0_326_43">
<rect width="50" height="50" fill="white"/>
</clipPath>
</defs>
</svg>
